<svg width="690" height="393" viewBox="0 0 690 393" fill="none" xmlns="http://www.w3.org/2000/svg">
<rect width="690" height="393" fill="white"/>
<path fill-rule="evenodd" clip-rule="evenodd" d="M283 167.211C283 164.333 285.401 162 288.364 162H395.636C398.599 162 401 164.333 401 167.211V255.789C401 258.667 398.599 261 395.636 261H288.364C285.401 261 283 258.667 283 255.789V167.211ZM291.045 217.044V169.816H392.955V229.974L363.763 198.465C362.966 197.605 361.818 197.132 360.628 197.174C359.438 197.215 358.328 197.767 357.597 198.68L341.892 218.296L318.272 190.761C317.493 189.853 316.331 189.336 315.114 189.356C313.896 189.376 312.754 189.93 312.006 190.864L291.045 217.044ZM291.045 229.775V253.184H392.955V241.658L360.997 207.163L345.175 226.926C344.428 227.859 343.285 228.414 342.068 228.434C340.85 228.454 339.689 227.937 338.91 227.028L315.29 199.493L291.045 229.775Z" fill="#2E3A59"/>
</svg>
