<svg width="6000" height="100" viewBox="0 0 6000 100" fill="none" xmlns="http://www.w3.org/2000/svg">
<rect x="0.5" y="0.5" width="5999" height="90" fill="#FFDC58" stroke="black"/>
<path d="M2301 69.2L2300.26 69.8735L2300.27 69.8823L2301 69.2ZM2301 18.8L2300.27 18.1176L2300.26 18.1265L2301 18.8ZM2320.28 18.8L2319.54 19.4735L2319.55 19.4823L2320.28 18.8ZM2323.64 34.88V35.88H2324.64V34.88H2323.64ZM2315.32 34.88H2314.32V35.88H2315.32V34.88ZM2315.32 51.12V50.12H2314.32V51.12H2315.32ZM2323.64 51.12H2324.64V50.12H2323.64V51.12ZM2320.28 69.2L2319.55 68.5176L2319.54 68.5265L2320.28 69.2ZM2310.68 71.8C2306.66 71.8 2303.73 70.6614 2301.73 68.5177L2300.27 69.8823C2302.75 72.5386 2306.27 73.8 2310.68 73.8V71.8ZM2301.74 68.5265C2299.77 66.3666 2298.72 63.2519 2298.72 59.04H2296.72C2296.72 63.5747 2297.86 67.2334 2300.26 69.8735L2301.74 68.5265ZM2298.72 59.04V28.96H2296.72V59.04H2298.72ZM2298.72 28.96C2298.72 24.7481 2299.77 21.6334 2301.74 19.4735L2300.26 18.1265C2297.86 20.7666 2296.72 24.4253 2296.72 28.96H2298.72ZM2301.73 19.4823C2303.73 17.3386 2306.66 16.2 2310.68 16.2V14.2C2306.27 14.2 2302.75 15.4614 2300.27 18.1177L2301.73 19.4823ZM2310.68 16.2C2314.7 16.2 2317.6 17.339 2319.54 19.4735L2321.02 18.1265C2318.59 15.4609 2315.09 14.2 2310.68 14.2V16.2ZM2319.55 19.4823C2321.57 21.6426 2322.64 24.7539 2322.64 28.96H2324.64C2324.64 24.4194 2323.47 20.7574 2321.01 18.1177L2319.55 19.4823ZM2322.64 28.96V34.88H2324.64V28.96H2322.64ZM2323.64 33.88H2315.32V35.88H2323.64V33.88ZM2316.32 34.88V28.4H2314.32V34.88H2316.32ZM2316.32 28.4C2316.32 26.5495 2315.93 24.9752 2314.98 23.8541C2314.01 22.7009 2312.59 22.2 2310.92 22.2V24.2C2312.18 24.2 2312.97 24.5658 2313.46 25.1459C2313.97 25.7581 2314.32 26.7838 2314.32 28.4H2316.32ZM2310.92 22.2C2309.25 22.2 2307.83 22.7009 2306.86 23.8541C2305.91 24.9752 2305.52 26.5495 2305.52 28.4H2307.52C2307.52 26.7838 2307.87 25.7581 2308.38 25.1459C2308.87 24.5658 2309.66 24.2 2310.92 24.2V22.2ZM2305.52 28.4V59.68H2307.52V28.4H2305.52ZM2305.52 59.68C2305.52 61.5068 2305.91 63.0636 2306.86 64.1718C2307.84 65.3089 2309.26 65.8 2310.92 65.8V63.8C2309.65 63.8 2308.87 63.4377 2308.38 62.8682C2307.86 62.2697 2307.52 61.2665 2307.52 59.68H2305.52ZM2310.92 65.8C2312.58 65.8 2314 65.3089 2314.98 64.1718C2315.93 63.0636 2316.32 61.5068 2316.32 59.68H2314.32C2314.32 61.2665 2313.98 62.2697 2313.46 62.8682C2312.97 63.4377 2312.19 63.8 2310.92 63.8V65.8ZM2316.32 59.68V51.12H2314.32V59.68H2316.32ZM2315.32 52.12H2323.64V50.12H2315.32V52.12ZM2322.64 51.12V59.04H2324.64V51.12H2322.64ZM2322.64 59.04C2322.64 63.2461 2321.57 66.3574 2319.55 68.5177L2321.01 69.8823C2323.47 67.2426 2324.64 63.5806 2324.64 59.04H2322.64ZM2319.54 68.5265C2317.6 70.661 2314.7 71.8 2310.68 71.8V73.8C2315.09 73.8 2318.59 72.539 2321.02 69.8735L2319.54 68.5265ZM2331.95 69.2L2331.21 69.8743L2331.21 69.8823L2331.95 69.2ZM2328.59 16V15H2327.59V16H2328.59ZM2337.38 16H2338.38V15H2337.38V16ZM2338.51 63.52L2337.75 64.1785L2337.76 64.1914L2337.78 64.2039L2338.51 63.52ZM2345.15 63.52L2344.42 62.8361L2344.4 62.8486L2344.39 62.8615L2345.15 63.52ZM2346.35 16V15H2345.35V16H2346.35ZM2354.83 16H2355.83V15H2354.83V16ZM2351.47 69.2L2352.2 69.8824L2352.2 69.8743L2351.47 69.2ZM2341.71 71.8C2337.63 71.8 2334.67 70.6589 2332.68 68.5177L2331.21 69.8823C2333.7 72.5411 2337.25 73.8 2341.71 73.8V71.8ZM2332.68 68.5257C2330.66 66.3148 2329.59 63.0958 2329.59 58.72H2327.59C2327.59 63.4109 2328.75 67.1785 2331.21 69.8743L2332.68 68.5257ZM2329.59 58.72V16H2327.59V58.72H2329.59ZM2328.59 17H2337.38V15H2328.59V17ZM2336.38 16V59.36H2338.38V16H2336.38ZM2336.38 59.36C2336.38 61.3675 2336.77 63.0529 2337.75 64.1785L2339.26 62.8615C2338.75 62.2804 2338.38 61.1925 2338.38 59.36H2336.38ZM2337.78 64.2039C2338.81 65.304 2340.22 65.8 2341.87 65.8V63.8C2340.63 63.8 2339.8 63.4427 2339.23 62.8361L2337.78 64.2039ZM2341.87 65.8C2343.51 65.8 2344.91 65.3047 2345.9 64.1785L2344.39 62.8615C2343.88 63.442 2343.1 63.8 2341.87 63.8V65.8ZM2345.87 64.2039C2346.93 63.0774 2347.35 61.3804 2347.35 59.36H2345.35C2345.35 61.1796 2344.96 62.2559 2344.42 62.8361L2345.87 64.2039ZM2347.35 59.36V16H2345.35V59.36H2347.35ZM2346.35 17H2354.83V15H2346.35V17ZM2353.83 16V58.72H2355.83V16H2353.83ZM2353.83 58.72C2353.83 63.0958 2352.75 66.3148 2350.73 68.5257L2352.2 69.8743C2354.66 67.1785 2355.83 63.4109 2355.83 58.72H2353.83ZM2350.73 68.5177C2348.74 70.6589 2345.78 71.8 2341.71 71.8V73.8C2346.16 73.8 2349.71 72.5411 2352.2 69.8823L2350.73 68.5177ZM2361.09 16V15H2360.09V16H2361.09ZM2384.05 19.2L2383.34 19.8982L2383.35 19.9071L2384.05 19.2ZM2381.41 43.36L2381.04 42.4324L2380.41 42.6847V43.36H2381.41ZM2381.41 43.52H2380.41V44.264L2381.13 44.4778L2381.41 43.52ZM2385.89 47.44L2384.97 47.8369L2384.98 47.8473L2384.98 47.8575L2385.89 47.44ZM2387.41 69.12L2386.42 69.2247L2386.42 69.2304L2387.41 69.12ZM2388.21 72V73H2389.75L2389.13 71.5939L2388.21 72ZM2379.25 72L2378.31 72.3328L2378.54 73H2379.25V72ZM2377.17 49.52L2376.39 50.1396L2376.4 50.152L2376.41 50.1641L2377.17 49.52ZM2369.89 48V47H2368.89V48H2369.89ZM2369.89 72V73H2370.89V72H2369.89ZM2361.09 72H2360.09V73H2361.09V72ZM2377.01 38.64L2376.31 37.9329L2376.29 37.9436L2376.28 37.9546L2377.01 38.64ZM2377.25 25.36L2376.46 25.9674L2376.47 25.9818L2376.48 25.9957L2377.25 25.36ZM2369.89 24V23H2368.89V24H2369.89ZM2369.89 40H2368.89V41H2369.89V40ZM2361.09 17H2374.13V15H2361.09V17ZM2374.13 17C2378.53 17 2381.52 18.0385 2383.34 19.8981L2384.77 18.5019C2382.42 16.0948 2378.8 15 2374.13 15V17ZM2383.35 19.9071C2385.16 21.7252 2386.17 24.6439 2386.17 28.88H2388.17C2388.17 24.3695 2387.1 20.8348 2384.76 18.4929L2383.35 19.9071ZM2386.17 28.88V32.32H2388.17V28.88H2386.17ZM2386.17 32.32C2386.17 35.1264 2385.71 37.3258 2384.85 38.9774C2384 40.6069 2382.74 41.7483 2381.04 42.4324L2381.79 44.2876C2383.93 43.425 2385.55 41.9531 2386.62 39.9026C2387.68 37.8742 2388.17 35.3269 2388.17 32.32H2386.17ZM2380.41 43.36V43.52H2382.41V43.36H2380.41ZM2381.13 44.4778C2382.99 45.0365 2384.24 46.1454 2384.97 47.8369L2386.81 47.0431C2385.84 44.7879 2384.1 43.2835 2381.7 42.5622L2381.13 44.4778ZM2384.98 47.8575C2385.81 49.6495 2386.25 52.1293 2386.25 55.36H2388.25C2388.25 51.9774 2387.79 49.1771 2386.8 47.0225L2384.98 47.8575ZM2386.25 55.36V65.2H2388.25V55.36H2386.25ZM2386.25 65.2C2386.25 66.8177 2386.31 68.1628 2386.42 69.2247L2388.41 69.0153C2388.31 68.0505 2388.25 66.7823 2388.25 65.2H2386.25ZM2386.42 69.2304C2386.54 70.3011 2386.83 71.3605 2387.3 72.4061L2389.13 71.5939C2388.74 70.7195 2388.5 69.8589 2388.41 69.0096L2386.42 69.2304ZM2388.21 71H2379.25V73H2388.21V71ZM2380.2 71.6672C2379.89 70.8136 2379.7 70.028 2379.6 69.3078L2377.62 69.5722C2377.74 70.452 2377.97 71.3731 2378.31 72.3328L2380.2 71.6672ZM2379.6 69.3078C2379.51 68.5819 2379.45 67.2035 2379.45 65.12H2377.45C2377.45 67.1965 2377.5 68.6981 2377.62 69.5722L2379.6 69.3078ZM2379.45 65.12V54.88H2377.45V65.12H2379.45ZM2379.45 54.88C2379.45 52.2738 2379.03 50.1748 2377.94 48.8759L2376.41 50.1641C2377.02 50.8919 2377.45 52.3662 2377.45 54.88H2379.45ZM2377.96 48.9004C2376.88 47.5363 2375.09 47 2372.93 47V49C2374.83 49 2375.86 49.477 2376.39 50.1396L2377.96 48.9004ZM2372.93 47H2369.89V49H2372.93V47ZM2368.89 48V72H2370.89V48H2368.89ZM2369.89 71H2361.09V73H2369.89V71ZM2362.09 72V16H2360.09V72H2362.09ZM2373.09 41C2375.01 41 2376.63 40.5042 2377.74 39.3254L2376.28 37.9546C2375.69 38.5891 2374.69 39 2373.09 39V41ZM2377.72 39.3471C2378.91 38.1611 2379.37 36.312 2379.37 34.08H2377.37C2377.37 36.1147 2376.93 37.3055 2376.31 37.9329L2377.72 39.3471ZM2379.37 34.08V29.76H2377.37V34.08H2379.37ZM2379.37 29.76C2379.37 27.6539 2378.99 25.9001 2378.02 24.7243L2376.48 25.9957C2377.01 26.6332 2377.37 27.8127 2377.37 29.76H2379.37ZM2378.05 24.7525C2377.1 23.5173 2375.63 23 2373.89 23V25C2375.25 25 2376.02 25.3894 2376.46 25.9674L2378.05 24.7525ZM2373.89 23H2369.89V25H2373.89V23ZM2368.89 24V40H2370.89V24H2368.89ZM2369.89 41H2373.09V39H2369.89V41ZM2395.12 69.2L2394.37 69.8654L2394.38 69.8735L2395.12 69.2ZM2391.84 55.52V54.52H2390.84V55.52H2391.84ZM2400.16 55.52H2401.16V54.52H2400.16V55.52ZM2408.08 63.52L2407.33 62.8584L2407.33 62.8615L2408.08 63.52ZM2407.68 53.04L2406.82 53.5471L2406.82 53.5583L2407.68 53.04ZM2401.76 46.56L2401.1 47.3099L2401.1 47.3143L2401.76 46.56ZM2394.16 37.92L2393.28 38.4026L2393.29 38.4103L2394.16 37.92ZM2395.36 18.88L2396.09 19.5624L2396.1 19.5543L2395.36 18.88ZM2414.64 18.88L2413.88 19.5362L2413.89 19.5449L2413.9 19.5535L2414.64 18.88ZM2417.92 31.6V32.6H2418.92V31.6H2417.92ZM2409.6 31.6H2408.6V32.6H2409.6V31.6ZM2408.48 24.56L2407.71 25.1957L2407.72 25.2072L2407.73 25.2185L2408.48 24.56ZM2402.4 34.24L2401.54 34.7583L2401.55 34.7676L2401.55 34.7769L2402.4 34.24ZM2408.4 40.64L2407.74 41.3943L2407.74 41.3946L2408.4 40.64ZM2416 49.36L2415.11 49.8287L2415.11 49.8287L2416 49.36ZM2414.64 69.12L2413.91 68.4371L2413.9 68.4457L2414.64 69.12ZM2404.8 71.8C2400.72 71.8 2397.8 70.6584 2395.86 68.5265L2394.38 69.8735C2396.81 72.5416 2400.34 73.8 2404.8 73.8V71.8ZM2395.86 68.5346C2393.89 66.3239 2392.84 63.1014 2392.84 58.72H2390.84C2390.84 63.4053 2391.97 67.1694 2394.37 69.8654L2395.86 68.5346ZM2392.84 58.72V55.52H2390.84V58.72H2392.84ZM2391.84 56.52H2400.16V54.52H2391.84V56.52ZM2399.16 55.52V59.36H2401.16V55.52H2399.16ZM2399.16 59.36C2399.16 61.2887 2399.56 62.9215 2400.53 64.0824C2401.53 65.2771 2402.99 65.8 2404.72 65.8V63.8C2403.4 63.8 2402.58 63.4162 2402.06 62.7976C2401.52 62.1452 2401.16 61.058 2401.16 59.36H2399.16ZM2404.72 65.8C2406.4 65.8 2407.84 65.3125 2408.83 64.1785L2407.33 62.8615C2406.82 63.4342 2406.02 63.8 2404.72 63.8V65.8ZM2408.83 64.1816C2409.86 63.0072 2410.28 61.2727 2410.28 59.2H2408.28C2408.28 61.074 2407.89 62.2195 2407.33 62.8584L2408.83 64.1816ZM2410.28 59.2C2410.28 56.6968 2409.71 54.459 2408.53 52.5217L2406.82 53.5583C2407.78 55.141 2408.28 57.0099 2408.28 59.2H2410.28ZM2408.54 52.533C2407.39 50.5798 2405.32 48.3354 2402.41 45.8057L2401.1 47.3143C2403.96 49.798 2405.83 51.8736 2406.82 53.547L2408.54 52.533ZM2402.42 45.8102C2398.83 42.6428 2396.39 39.8493 2395.03 37.4297L2393.29 38.4103C2394.81 41.1107 2397.43 44.0772 2401.1 47.3098L2402.42 45.8102ZM2395.03 37.4374C2393.68 34.985 2393 32.2202 2393 29.12H2391C2391 32.5265 2391.75 35.6283 2393.28 38.4026L2395.03 37.4374ZM2393 29.12C2393 24.8568 2394.07 21.7205 2396.09 19.5623L2394.63 18.1977C2392.16 20.8395 2391 24.5299 2391 29.12H2393ZM2396.1 19.5543C2398.1 17.3638 2401.05 16.2 2405.12 16.2V14.2C2400.66 14.2 2397.1 15.4896 2394.62 18.2057L2396.1 19.5543ZM2405.12 16.2C2409.13 16.2 2411.99 17.3619 2413.88 19.5362L2415.39 18.2238C2413.02 15.4914 2409.53 14.2 2405.12 14.2V16.2ZM2413.9 19.5535C2415.86 21.7074 2416.92 24.8969 2416.92 29.28H2418.92C2418.92 24.5964 2417.79 20.8526 2415.38 18.2065L2413.9 19.5535ZM2416.92 29.28V31.6H2418.92V29.28H2416.92ZM2417.92 30.6H2409.6V32.6H2417.92V30.6ZM2410.6 31.6V28.72H2408.6V31.6H2410.6ZM2410.6 28.72C2410.6 26.7125 2410.22 25.0271 2409.23 23.9015L2407.73 25.2185C2408.23 25.7996 2408.6 26.8875 2408.6 28.72H2410.6ZM2409.25 23.9243C2408.27 22.7353 2406.86 22.2 2405.2 22.2V24.2C2406.41 24.2 2407.19 24.5714 2407.71 25.1957L2409.25 23.9243ZM2405.2 22.2C2403.52 22.2 2402.1 22.7208 2401.13 23.9055C2400.18 25.0525 2399.8 26.6619 2399.8 28.56H2401.8C2401.8 26.8848 2402.15 25.8142 2402.67 25.1745C2403.17 24.5726 2403.94 24.2 2405.2 24.2V22.2ZM2399.8 28.56C2399.8 30.7724 2400.38 32.8446 2401.54 34.7583L2403.25 33.7217C2402.28 32.1154 2401.8 30.401 2401.8 28.56H2399.8ZM2401.55 34.7769C2402.75 36.6592 2404.84 38.8676 2407.74 41.3943L2409.05 39.8857C2406.2 37.3991 2404.28 35.3408 2403.24 33.7031L2401.55 34.7769ZM2407.74 41.3946C2411.38 44.5594 2413.81 47.3716 2415.11 49.8287L2416.88 48.8913C2415.41 46.1218 2412.77 43.1206 2409.05 39.8854L2407.74 41.3946ZM2415.11 49.8287C2416.41 52.2726 2417.08 55.1725 2417.08 58.56H2419.08C2419.08 54.9075 2418.36 51.674 2416.88 48.8913L2415.11 49.8287ZM2417.08 58.56C2417.08 62.9871 2415.97 66.2279 2413.91 68.4371L2415.37 69.8029C2417.89 67.1055 2419.08 63.3062 2419.08 58.56H2417.08ZM2413.9 68.4457C2411.9 70.6337 2408.93 71.8 2404.8 71.8V73.8C2409.31 73.8 2412.89 72.513 2415.38 69.7943L2413.9 68.4457ZM2425.92 69.12L2426.65 68.4371L2426.65 68.4371L2425.92 69.12ZM2425.92 18.88L2426.65 19.5629L2426.65 19.5629L2425.92 18.88ZM2445.76 18.88L2445.03 19.5629L2445.03 19.5629L2445.76 18.88ZM2445.76 69.12L2445.03 68.4371L2445.03 68.4371L2445.76 69.12ZM2435.84 71.8C2431.72 71.8 2428.71 70.6341 2426.65 68.4371L2425.19 69.8029C2427.73 72.5125 2431.33 73.8 2435.84 73.8V71.8ZM2426.65 68.4371C2424.59 66.2238 2423.48 63.033 2423.48 58.72H2421.48C2421.48 63.367 2422.68 67.1095 2425.19 69.8029L2426.65 68.4371ZM2423.48 58.72V29.28H2421.48V58.72H2423.48ZM2423.48 29.28C2423.48 24.967 2424.59 21.7762 2426.65 19.5629L2425.19 18.1971C2422.68 20.8905 2421.48 24.633 2421.48 29.28H2423.48ZM2426.65 19.5629C2428.71 17.3659 2431.72 16.2 2435.84 16.2V14.2C2431.33 14.2 2427.73 15.4874 2425.19 18.1971L2426.65 19.5629ZM2435.84 16.2C2439.97 16.2 2442.98 17.3659 2445.03 19.5629L2446.49 18.1971C2443.96 15.4874 2440.36 14.2 2435.84 14.2V16.2ZM2445.03 19.5629C2447.1 21.7762 2448.2 24.967 2448.2 29.28H2450.2C2450.2 24.633 2449.01 20.8905 2446.49 18.1971L2445.03 19.5629ZM2448.2 29.28V58.72H2450.2V29.28H2448.2ZM2448.2 58.72C2448.2 63.033 2447.1 66.2238 2445.03 68.4371L2446.49 69.8029C2449.01 67.1095 2450.2 63.367 2450.2 58.72H2448.2ZM2445.03 68.4371C2442.98 70.6341 2439.97 71.8 2435.84 71.8V73.8C2440.36 73.8 2443.96 72.5125 2446.49 69.8029L2445.03 68.4371ZM2435.84 65.8C2437.57 65.8 2439.03 65.2673 2440.03 64.0569C2441 62.883 2441.4 61.2326 2441.4 59.28H2439.4C2439.4 61.0074 2439.04 62.117 2438.49 62.7831C2437.97 63.4127 2437.15 63.8 2435.84 63.8V65.8ZM2441.4 59.28V28.72H2439.4V59.28H2441.4ZM2441.4 28.72C2441.4 26.7674 2441 25.117 2440.03 23.9431C2439.03 22.7327 2437.57 22.2 2435.84 22.2V24.2C2437.15 24.2 2437.97 24.5873 2438.49 25.2169C2439.04 25.883 2439.4 26.9926 2439.4 28.72H2441.4ZM2435.84 22.2C2434.11 22.2 2432.65 22.7327 2431.65 23.9431C2430.68 25.117 2430.28 26.7674 2430.28 28.72H2432.28C2432.28 26.9926 2432.64 25.883 2433.19 25.2169C2433.71 24.5873 2434.53 24.2 2435.84 24.2V22.2ZM2430.28 28.72V59.28H2432.28V28.72H2430.28ZM2430.28 59.28C2430.28 61.2326 2430.68 62.883 2431.65 64.0569C2432.65 65.2673 2434.11 65.8 2435.84 65.8V63.8C2434.53 63.8 2433.71 63.4127 2433.19 62.7831C2432.64 62.117 2432.28 61.0074 2432.28 59.28H2430.28ZM2456.92 69.2L2456.17 69.8654L2456.18 69.8735L2456.92 69.2ZM2453.64 55.52V54.52H2452.64V55.52H2453.64ZM2461.96 55.52H2462.96V54.52H2461.96V55.52ZM2469.88 63.52L2469.13 62.8584L2469.12 62.8615L2469.88 63.52ZM2469.48 53.04L2468.61 53.5471L2468.62 53.5583L2469.48 53.04ZM2463.56 46.56L2462.89 47.3099L2462.9 47.3143L2463.56 46.56ZM2455.96 37.92L2455.08 38.4026L2455.08 38.4103L2455.96 37.92ZM2457.15 18.88L2457.89 19.5624L2457.89 19.5543L2457.15 18.88ZM2476.44 18.88L2475.68 19.5362L2475.69 19.5449L2475.7 19.5535L2476.44 18.88ZM2479.72 31.6V32.6H2480.72V31.6H2479.72ZM2471.4 31.6H2470.4V32.6H2471.4V31.6ZM2470.28 24.56L2469.5 25.1957L2469.51 25.2072L2469.52 25.2185L2470.28 24.56ZM2464.2 34.24L2463.34 34.7583L2463.35 34.7676L2463.35 34.7769L2464.2 34.24ZM2470.2 40.64L2469.54 41.3943L2469.54 41.3946L2470.2 40.64ZM2477.8 49.36L2476.91 49.8287L2476.91 49.8287L2477.8 49.36ZM2476.44 69.12L2475.7 68.4371L2475.7 68.4457L2476.44 69.12ZM2466.6 71.8C2462.52 71.8 2459.6 70.6584 2457.65 68.5265L2456.18 69.8735C2458.61 72.5416 2462.14 73.8 2466.6 73.8V71.8ZM2457.66 68.5346C2455.69 66.3239 2454.64 63.1014 2454.64 58.72H2452.64C2452.64 63.4053 2453.77 67.1694 2456.17 69.8654L2457.66 68.5346ZM2454.64 58.72V55.52H2452.64V58.72H2454.64ZM2453.64 56.52H2461.96V54.52H2453.64V56.52ZM2460.96 55.52V59.36H2462.96V55.52H2460.96ZM2460.96 59.36C2460.96 61.2887 2461.36 62.9215 2462.33 64.0824C2463.33 65.2771 2464.79 65.8 2466.52 65.8V63.8C2465.2 63.8 2464.38 63.4162 2463.86 62.7976C2463.31 62.1452 2462.96 61.058 2462.96 59.36H2460.96ZM2466.52 65.8C2468.2 65.8 2469.64 65.3125 2470.63 64.1785L2469.12 62.8615C2468.62 63.4342 2467.82 63.8 2466.52 63.8V65.8ZM2470.62 64.1816C2471.66 63.0072 2472.08 61.2727 2472.08 59.2H2470.08C2470.08 61.074 2469.69 62.2195 2469.13 62.8584L2470.62 64.1816ZM2472.08 59.2C2472.08 56.6968 2471.5 54.459 2470.33 52.5217L2468.62 53.5583C2469.58 55.141 2470.08 57.0099 2470.08 59.2H2472.08ZM2470.34 52.533C2469.19 50.5798 2467.12 48.3354 2464.21 45.8057L2462.9 47.3143C2465.75 49.798 2467.63 51.8736 2468.61 53.547L2470.34 52.533ZM2464.22 45.8102C2460.63 42.6428 2458.19 39.8493 2456.83 37.4297L2455.08 38.4103C2456.6 41.1107 2459.23 44.0772 2462.89 47.3098L2464.22 45.8102ZM2456.83 37.4374C2455.48 34.985 2454.8 32.2202 2454.8 29.12H2452.8C2452.8 32.5265 2453.55 35.6283 2455.08 38.4026L2456.83 37.4374ZM2454.8 29.12C2454.8 24.8568 2455.87 21.7205 2457.89 19.5623L2456.42 18.1977C2453.96 20.8395 2452.8 24.5299 2452.8 29.12H2454.8ZM2457.89 19.5543C2459.89 17.3638 2462.84 16.2 2466.92 16.2V14.2C2462.45 14.2 2458.9 15.4896 2456.42 18.2057L2457.89 19.5543ZM2466.92 16.2C2470.93 16.2 2473.79 17.3619 2475.68 19.5362L2477.19 18.2238C2474.81 15.4914 2471.33 14.2 2466.92 14.2V16.2ZM2475.7 19.5535C2477.66 21.7074 2478.72 24.8969 2478.72 29.28H2480.72C2480.72 24.5964 2479.59 20.8526 2477.17 18.2065L2475.7 19.5535ZM2478.72 29.28V31.6H2480.72V29.28H2478.72ZM2479.72 30.6H2471.4V32.6H2479.72V30.6ZM2472.4 31.6V28.72H2470.4V31.6H2472.4ZM2472.4 28.72C2472.4 26.7125 2472.01 25.0271 2471.03 23.9015L2469.52 25.2185C2470.03 25.7996 2470.4 26.8875 2470.4 28.72H2472.4ZM2471.05 23.9243C2470.07 22.7353 2468.66 22.2 2467 22.2V24.2C2468.21 24.2 2468.99 24.5714 2469.5 25.1957L2471.05 23.9243ZM2467 22.2C2465.32 22.2 2463.89 22.7208 2462.92 23.9055C2461.98 25.0525 2461.6 26.6619 2461.6 28.56H2463.6C2463.6 26.8848 2463.94 25.8142 2464.47 25.1745C2464.96 24.5726 2465.74 24.2 2467 24.2V22.2ZM2461.6 28.56C2461.6 30.7724 2462.18 32.8446 2463.34 34.7583L2465.05 33.7217C2464.08 32.1154 2463.6 30.401 2463.6 28.56H2461.6ZM2463.35 34.7769C2464.55 36.6592 2466.64 38.8676 2469.54 41.3943L2470.85 39.8857C2467.99 37.3991 2466.08 35.3408 2465.04 33.7031L2463.35 34.7769ZM2469.54 41.3946C2473.18 44.5594 2475.61 47.3716 2476.91 49.8287L2478.68 48.8913C2477.21 46.1218 2474.57 43.1206 2470.85 39.8854L2469.54 41.3946ZM2476.91 49.8287C2478.21 52.2726 2478.88 55.1725 2478.88 58.56H2480.88C2480.88 54.9075 2480.15 51.674 2478.68 48.8913L2476.91 49.8287ZM2478.88 58.56C2478.88 62.9871 2477.77 66.2279 2475.7 68.4371L2477.17 69.8029C2479.69 67.1055 2480.88 63.3062 2480.88 58.56H2478.88ZM2475.7 68.4457C2473.7 70.6337 2470.72 71.8 2466.6 71.8V73.8C2471.11 73.8 2474.69 72.513 2477.17 69.7943L2475.7 68.4457Z" fill="black"/>
<path d="M2552.5 46C2552.5 52.2975 2546.74 57.5 2539.5 57.5C2532.26 57.5 2526.5 52.2975 2526.5 46C2526.5 39.7025 2532.26 34.5 2539.5 34.5C2546.74 34.5 2552.5 39.7025 2552.5 46Z" stroke="black"/>
<path d="M2596.28 20V19H2595.28V20H2596.28ZM2620.28 20H2621.28V19H2620.28V20ZM2620.28 28V29H2621.28V28H2620.28ZM2605.08 28V27H2604.08V28H2605.08ZM2605.08 42.8H2604.08V43.8H2605.08V42.8ZM2617.16 42.8H2618.16V41.8H2617.16V42.8ZM2617.16 50.8V51.8H2618.16V50.8H2617.16ZM2605.08 50.8V49.8H2604.08V50.8H2605.08ZM2605.08 68H2604.08V69H2605.08V68ZM2620.28 68H2621.28V67H2620.28V68ZM2620.28 76V77H2621.28V76H2620.28ZM2596.28 76H2595.28V77H2596.28V76ZM2596.28 21H2620.28V19H2596.28V21ZM2619.28 20V28H2621.28V20H2619.28ZM2620.28 27H2605.08V29H2620.28V27ZM2604.08 28V42.8H2606.08V28H2604.08ZM2605.08 43.8H2617.16V41.8H2605.08V43.8ZM2616.16 42.8V50.8H2618.16V42.8H2616.16ZM2617.16 49.8H2605.08V51.8H2617.16V49.8ZM2604.08 50.8V68H2606.08V50.8H2604.08ZM2605.08 69H2620.28V67H2605.08V69ZM2619.28 68V76H2621.28V68H2619.28ZM2620.28 75H2596.28V77H2620.28V75ZM2597.28 76V20H2595.28V76H2597.28ZM2623.02 20V19H2621.86L2622.03 20.1497L2623.02 20ZM2631.9 20L2632.89 19.8686L2632.78 19H2631.9V20ZM2637.66 63.44L2636.67 63.5714L2636.79 64.44H2637.66V63.44ZM2637.82 63.44V64.44H2638.7L2638.81 63.5714L2637.82 63.44ZM2643.58 20V19H2642.71L2642.59 19.8685L2643.58 20ZM2651.66 20L2652.65 20.1497L2652.83 19H2651.66V20ZM2643.18 76V77H2644.04L2644.17 76.1497L2643.18 76ZM2631.5 76L2630.51 76.1497L2630.64 77H2631.5V76ZM2623.02 21H2631.9V19H2623.02V21ZM2630.91 20.1314L2636.67 63.5714L2638.65 63.3086L2632.89 19.8686L2630.91 20.1314ZM2637.66 64.44H2637.82V62.44H2637.66V64.44ZM2638.81 63.5714L2644.57 20.1314L2642.59 19.8685L2636.83 63.3086L2638.81 63.5714ZM2643.58 21H2651.66V19H2643.58V21ZM2650.67 19.8503L2642.19 75.8503L2644.17 76.1497L2652.65 20.1497L2650.67 19.8503ZM2643.18 75H2631.5V77H2643.18V75ZM2632.49 75.8503L2624.01 19.8503L2622.03 20.1497L2630.51 76.1497L2632.49 75.8503ZM2655.89 20V19H2654.89V20H2655.89ZM2679.89 20H2680.89V19H2679.89V20ZM2679.89 28V29H2680.89V28H2679.89ZM2664.69 28V27H2663.69V28H2664.69ZM2664.69 42.8H2663.69V43.8H2664.69V42.8ZM2676.77 42.8H2677.77V41.8H2676.77V42.8ZM2676.77 50.8V51.8H2677.77V50.8H2676.77ZM2664.69 50.8V49.8H2663.69V50.8H2664.69ZM2664.69 68H2663.69V69H2664.69V68ZM2679.89 68H2680.89V67H2679.89V68ZM2679.89 76V77H2680.89V76H2679.89ZM2655.89 76H2654.89V77H2655.89V76ZM2655.89 21H2679.89V19H2655.89V21ZM2678.89 20V28H2680.89V20H2678.89ZM2679.89 27H2664.69V29H2679.89V27ZM2663.69 28V42.8H2665.69V28H2663.69ZM2664.69 43.8H2676.77V41.8H2664.69V43.8ZM2675.77 42.8V50.8H2677.77V42.8H2675.77ZM2676.77 49.8H2664.69V51.8H2676.77V49.8ZM2663.69 50.8V68H2665.69V50.8H2663.69ZM2664.69 69H2679.89V67H2664.69V69ZM2678.89 68V76H2680.89V68H2678.89ZM2679.89 75H2655.89V77H2679.89V75ZM2656.89 76V20H2654.89V76H2656.89ZM2684.95 20V19H2683.95V20H2684.95ZM2695.99 20L2696.96 19.7526L2696.77 19H2695.99V20ZM2704.55 53.52L2703.58 53.7674L2703.78 54.52H2704.55V53.52ZM2704.71 53.52V54.52H2705.71V53.52H2704.71ZM2704.71 20V19H2703.71V20H2704.71ZM2712.55 20H2713.55V19H2712.55V20ZM2712.55 76V77H2713.55V76H2712.55ZM2703.51 76L2702.54 76.2501L2702.74 77H2703.51V76ZM2692.95 35.12L2693.92 34.8699L2693.73 34.12H2692.95V35.12ZM2692.79 35.12V34.12H2691.79V35.12H2692.79ZM2692.79 76V77H2693.79V76H2692.79ZM2684.95 76H2683.95V77H2684.95V76ZM2684.95 21H2695.99V19H2684.95V21ZM2695.02 20.2474L2703.58 53.7674L2705.52 53.2726L2696.96 19.7526L2695.02 20.2474ZM2704.55 54.52H2704.71V52.52H2704.55V54.52ZM2705.71 53.52V20H2703.71V53.52H2705.71ZM2704.71 21H2712.55V19H2704.71V21ZM2711.55 20V76H2713.55V20H2711.55ZM2712.55 75H2703.51V77H2712.55V75ZM2704.48 75.7499L2693.92 34.8699L2691.98 35.3701L2702.54 76.2501L2704.48 75.7499ZM2692.95 34.12H2692.79V36.12H2692.95V34.12ZM2691.79 35.12V76H2693.79V35.12H2691.79ZM2692.79 75H2684.95V77H2692.79V75ZM2685.95 76V20H2683.95V76H2685.95ZM2725.97 28H2726.97V27H2725.97V28ZM2716.77 28H2715.77V29H2716.77V28ZM2716.77 20V19H2715.77V20H2716.77ZM2743.97 20H2744.97V19H2743.97V20ZM2743.97 28V29H2744.97V28H2743.97ZM2734.77 28V27H2733.77V28H2734.77ZM2734.77 76V77H2735.77V76H2734.77ZM2725.97 76H2724.97V77H2725.97V76ZM2725.97 27H2716.77V29H2725.97V27ZM2717.77 28V20H2715.77V28H2717.77ZM2716.77 21H2743.97V19H2716.77V21ZM2742.97 20V28H2744.97V20H2742.97ZM2743.97 27H2734.77V29H2743.97V27ZM2733.77 28V76H2735.77V28H2733.77ZM2734.77 75H2725.97V77H2734.77V75ZM2726.97 76V28H2724.97V76H2726.97ZM2750.72 73.12L2751.45 72.4371L2751.45 72.4371L2750.72 73.12ZM2750.72 22.88L2751.45 23.5629L2751.45 23.5629L2750.72 22.88ZM2770.56 22.88L2769.83 23.5629L2769.83 23.5629L2770.56 22.88ZM2770.56 73.12L2769.83 72.4371L2769.83 72.4371L2770.56 73.12ZM2760.64 75.8C2756.51 75.8 2753.5 74.6341 2751.45 72.4371L2749.99 73.8029C2752.52 76.5125 2756.13 77.8 2760.64 77.8V75.8ZM2751.45 72.4371C2749.38 70.2238 2748.28 67.033 2748.28 62.72H2746.28C2746.28 67.367 2747.47 71.1095 2749.99 73.8029L2751.45 72.4371ZM2748.28 62.72V33.28H2746.28V62.72H2748.28ZM2748.28 33.28C2748.28 28.967 2749.38 25.7762 2751.45 23.5629L2749.99 22.1971C2747.47 24.8905 2746.28 28.633 2746.28 33.28H2748.28ZM2751.45 23.5629C2753.5 21.3659 2756.51 20.2 2760.64 20.2V18.2C2756.13 18.2 2752.52 19.4874 2749.99 22.1971L2751.45 23.5629ZM2760.64 20.2C2764.77 20.2 2767.78 21.3659 2769.83 23.5629L2771.29 22.1971C2768.76 19.4874 2765.15 18.2 2760.64 18.2V20.2ZM2769.83 23.5629C2771.9 25.7762 2773 28.967 2773 33.28H2775C2775 28.633 2773.81 24.8905 2771.29 22.1971L2769.83 23.5629ZM2773 33.28V62.72H2775V33.28H2773ZM2773 62.72C2773 67.033 2771.9 70.2238 2769.83 72.4371L2771.29 73.8029C2773.81 71.1095 2775 67.367 2775 62.72H2773ZM2769.83 72.4371C2767.78 74.6341 2764.77 75.8 2760.64 75.8V77.8C2765.15 77.8 2768.76 76.5125 2771.29 73.8029L2769.83 72.4371ZM2760.64 69.8C2762.37 69.8 2763.83 69.2673 2764.83 68.0569C2765.8 66.883 2766.2 65.2326 2766.2 63.28H2764.2C2764.2 65.0074 2763.84 66.117 2763.29 66.7831C2762.77 67.4127 2761.95 67.8 2760.64 67.8V69.8ZM2766.2 63.28V32.72H2764.2V63.28H2766.2ZM2766.2 32.72C2766.2 30.7674 2765.8 29.117 2764.83 27.9431C2763.83 26.7327 2762.37 26.2 2760.64 26.2V28.2C2761.95 28.2 2762.77 28.5873 2763.29 29.2169C2763.84 29.883 2764.2 30.9926 2764.2 32.72H2766.2ZM2760.64 26.2C2758.91 26.2 2757.45 26.7327 2756.45 27.9431C2755.48 29.117 2755.08 30.7674 2755.08 32.72H2757.08C2757.08 30.9926 2757.44 29.883 2757.99 29.2169C2758.51 28.5873 2759.33 28.2 2760.64 28.2V26.2ZM2755.08 32.72V63.28H2757.08V32.72H2755.08ZM2755.08 63.28C2755.08 65.2326 2755.48 66.883 2756.45 68.0569C2757.45 69.2673 2758.91 69.8 2760.64 69.8V67.8C2759.33 67.8 2758.51 67.4127 2757.99 66.7831C2757.44 66.117 2757.08 65.0074 2757.08 63.28H2755.08ZM2781.71 73.2L2780.97 73.8654L2780.97 73.8735L2781.71 73.2ZM2778.43 59.52V58.52H2777.43V59.52H2778.43ZM2786.75 59.52H2787.75V58.52H2786.75V59.52ZM2794.67 67.52L2793.92 66.8584L2793.92 66.8615L2794.67 67.52ZM2794.27 57.04L2793.41 57.5471L2793.42 57.5583L2794.27 57.04ZM2788.35 50.56L2787.69 51.3099L2787.7 51.3143L2788.35 50.56ZM2780.75 41.92L2779.88 42.4026L2779.88 42.4103L2780.75 41.92ZM2781.95 22.88L2782.68 23.5624L2782.69 23.5543L2781.95 22.88ZM2801.23 22.88L2800.48 23.5362L2800.48 23.5449L2800.49 23.5535L2801.23 22.88ZM2804.51 35.6V36.6H2805.51V35.6H2804.51ZM2796.19 35.6H2795.19V36.6H2796.19V35.6ZM2795.07 28.56L2794.3 29.1957L2794.31 29.2072L2794.32 29.2185L2795.07 28.56ZM2788.99 38.24L2788.14 38.7583L2788.14 38.7676L2788.15 38.7769L2788.99 38.24ZM2794.99 44.64L2794.34 45.3943L2794.34 45.3946L2794.99 44.64ZM2802.59 53.36L2801.71 53.8287L2801.71 53.8287L2802.59 53.36ZM2801.23 73.12L2800.5 72.4371L2800.49 72.4457L2801.23 73.12ZM2791.39 75.8C2787.31 75.8 2784.39 74.6584 2782.45 72.5265L2780.97 73.8735C2783.4 76.5416 2786.94 77.8 2791.39 77.8V75.8ZM2782.46 72.5346C2780.49 70.3239 2779.43 67.1014 2779.43 62.72H2777.43C2777.43 67.4053 2778.56 71.1694 2780.97 73.8654L2782.46 72.5346ZM2779.43 62.72V59.52H2777.43V62.72H2779.43ZM2778.43 60.52H2786.75V58.52H2778.43V60.52ZM2785.75 59.52V63.36H2787.75V59.52H2785.75ZM2785.75 63.36C2785.75 65.2887 2786.15 66.9215 2787.13 68.0824C2788.13 69.2771 2789.59 69.8 2791.31 69.8V67.8C2790 67.8 2789.18 67.4162 2788.66 66.7976C2788.11 66.1452 2787.75 65.058 2787.75 63.36H2785.75ZM2791.31 69.8C2793 69.8 2794.43 69.3125 2795.42 68.1785L2793.92 66.8615C2793.42 67.4342 2792.61 67.8 2791.31 67.8V69.8ZM2795.42 68.1816C2796.46 67.0072 2796.87 65.2727 2796.87 63.2H2794.87C2794.87 65.074 2794.49 66.2195 2793.92 66.8584L2795.42 68.1816ZM2796.87 63.2C2796.87 60.6968 2796.3 58.459 2795.13 56.5217L2793.42 57.5583C2794.38 59.141 2794.87 61.0099 2794.87 63.2H2796.87ZM2795.13 56.533C2793.98 54.5798 2791.91 52.3354 2789.01 49.8057L2787.7 51.3143C2790.55 53.798 2792.43 55.8736 2793.41 57.547L2795.13 56.533ZM2789.01 49.8102C2785.42 46.6428 2782.98 43.8493 2781.62 41.4297L2779.88 42.4103C2781.4 45.1107 2784.03 48.0772 2787.69 51.3098L2789.01 49.8102ZM2781.63 41.4374C2780.28 38.985 2779.59 36.2202 2779.59 33.12H2777.59C2777.59 36.5265 2778.35 39.6283 2779.88 42.4026L2781.63 41.4374ZM2779.59 33.12C2779.59 28.8568 2780.67 25.7205 2782.68 23.5623L2781.22 22.1977C2778.76 24.8395 2777.59 28.5299 2777.59 33.12H2779.59ZM2782.69 23.5543C2784.69 21.3638 2787.64 20.2 2791.71 20.2V18.2C2787.25 18.2 2783.69 19.4896 2781.21 22.2057L2782.69 23.5543ZM2791.71 20.2C2795.73 20.2 2798.59 21.3619 2800.48 23.5362L2801.99 22.2238C2799.61 19.4914 2796.12 18.2 2791.71 18.2V20.2ZM2800.49 23.5535C2802.46 25.7074 2803.51 28.8969 2803.51 33.28H2805.51C2805.51 28.5964 2804.38 24.8526 2801.97 22.2065L2800.49 23.5535ZM2803.51 33.28V35.6H2805.51V33.28H2803.51ZM2804.51 34.6H2796.19V36.6H2804.51V34.6ZM2797.19 35.6V32.72H2795.19V35.6H2797.19ZM2797.19 32.72C2797.19 30.7125 2796.81 29.0271 2795.82 27.9015L2794.32 29.2185C2794.83 29.7996 2795.19 30.8875 2795.19 32.72H2797.19ZM2795.84 27.9243C2794.86 26.7353 2793.46 26.2 2791.79 26.2V28.2C2793.01 28.2 2793.79 28.5714 2794.3 29.1957L2795.84 27.9243ZM2791.79 26.2C2790.11 26.2 2788.69 26.7208 2787.72 27.9055C2786.78 29.0525 2786.39 30.6619 2786.39 32.56H2788.39C2788.39 30.8848 2788.74 29.8142 2789.26 29.1745C2789.76 28.5726 2790.54 28.2 2791.79 28.2V26.2ZM2786.39 32.56C2786.39 34.7724 2786.98 36.8446 2788.14 38.7583L2789.85 37.7217C2788.87 36.1154 2788.39 34.401 2788.39 32.56H2786.39ZM2788.15 38.7769C2789.35 40.6592 2791.43 42.8676 2794.34 45.3943L2795.65 43.8857C2792.79 41.3991 2790.88 39.3408 2789.84 37.7031L2788.15 38.7769ZM2794.34 45.3946C2797.98 48.5594 2800.4 51.3716 2801.71 53.8287L2803.48 52.8913C2802.01 50.1218 2799.37 47.1206 2795.65 43.8854L2794.34 45.3946ZM2801.71 53.8287C2803.01 56.2726 2803.67 59.1725 2803.67 62.56H2805.67C2805.67 58.9075 2804.95 55.674 2803.48 52.8913L2801.71 53.8287ZM2803.67 62.56C2803.67 66.9871 2802.57 70.2279 2800.5 72.4371L2801.96 73.8029C2804.48 71.1055 2805.67 67.3062 2805.67 62.56H2803.67ZM2800.49 72.4457C2798.5 74.6337 2795.52 75.8 2791.39 75.8V77.8C2795.9 77.8 2799.49 76.513 2801.97 73.7943L2800.49 72.4457Z" fill="black"/>
<path d="M2897.5 46C2897.5 52.3143 2891.94 57.5 2885 57.5C2878.06 57.5 2872.5 52.3143 2872.5 46C2872.5 39.6857 2878.06 34.5 2885 34.5C2891.94 34.5 2897.5 39.6857 2897.5 46Z" stroke="black"/>
<path d="M2941.28 20V19H2940.28V20H2941.28ZM2964.56 20H2965.56V19H2964.56V20ZM2964.56 28V29H2965.56V28H2964.56ZM2950.08 28V27H2949.08V28H2950.08ZM2950.08 43.6H2949.08V44.6H2950.08V43.6ZM2961.44 43.6H2962.44V42.6H2961.44V43.6ZM2961.44 51.6V52.6H2962.44V51.6H2961.44ZM2950.08 51.6V50.6H2949.08V51.6H2950.08ZM2950.08 76V77H2951.08V76H2950.08ZM2941.28 76H2940.28V77H2941.28V76ZM2941.28 21H2964.56V19H2941.28V21ZM2963.56 20V28H2965.56V20H2963.56ZM2964.56 27H2950.08V29H2964.56V27ZM2949.08 28V43.6H2951.08V28H2949.08ZM2950.08 44.6H2961.44V42.6H2950.08V44.6ZM2960.44 43.6V51.6H2962.44V43.6H2960.44ZM2961.44 50.6H2950.08V52.6H2961.44V50.6ZM2949.08 51.6V76H2951.08V51.6H2949.08ZM2950.08 75H2941.28V77H2950.08V75ZM2942.28 76V20H2940.28V76H2942.28ZM2968.78 20V19H2967.78V20H2968.78ZM2992.78 20H2993.78V19H2992.78V20ZM2992.78 28V29H2993.78V28H2992.78ZM2977.58 28V27H2976.58V28H2977.58ZM2977.58 42.8H2976.58V43.8H2977.58V42.8ZM2989.66 42.8H2990.66V41.8H2989.66V42.8ZM2989.66 50.8V51.8H2990.66V50.8H2989.66ZM2977.58 50.8V49.8H2976.58V50.8H2977.58ZM2977.58 68H2976.58V69H2977.58V68ZM2992.78 68H2993.78V67H2992.78V68ZM2992.78 76V77H2993.78V76H2992.78ZM2968.78 76H2967.78V77H2968.78V76ZM2968.78 21H2992.78V19H2968.78V21ZM2991.78 20V28H2993.78V20H2991.78ZM2992.78 27H2977.58V29H2992.78V27ZM2976.58 28V42.8H2978.58V28H2976.58ZM2977.58 43.8H2989.66V41.8H2977.58V43.8ZM2988.66 42.8V50.8H2990.66V42.8H2988.66ZM2989.66 49.8H2977.58V51.8H2989.66V49.8ZM2976.58 50.8V68H2978.58V50.8H2976.58ZM2977.58 69H2992.78V67H2977.58V69ZM2991.78 68V76H2993.78V68H2991.78ZM2992.78 75H2968.78V77H2992.78V75ZM2969.78 76V20H2967.78V76H2969.78ZM2997.84 20V19H2996.84V20H2997.84ZM3020.8 23.2L3020.09 23.8982L3020.1 23.9071L3020.8 23.2ZM3018.16 47.36L3017.79 46.4324L3017.16 46.6847V47.36H3018.16ZM3018.16 47.52H3017.16V48.264L3017.88 48.4778L3018.16 47.52ZM3022.64 51.44L3021.72 51.8369L3021.73 51.8473L3021.73 51.8575L3022.64 51.44ZM3024.16 73.12L3023.17 73.2247L3023.17 73.2304L3024.16 73.12ZM3024.96 76V77H3026.5L3025.88 75.5939L3024.96 76ZM3016 76L3015.06 76.3328L3015.29 77H3016V76ZM3013.92 53.52L3013.14 54.1396L3013.15 54.152L3013.16 54.1641L3013.92 53.52ZM3006.64 52V51H3005.64V52H3006.64ZM3006.64 76V77H3007.64V76H3006.64ZM2997.84 76H2996.84V77H2997.84V76ZM3013.76 42.64L3013.06 41.9329L3013.04 41.9436L3013.03 41.9546L3013.76 42.64ZM3014 29.36L3013.21 29.9674L3013.22 29.9818L3013.23 29.9957L3014 29.36ZM3006.64 28V27H3005.64V28H3006.64ZM3006.64 44H3005.64V45H3006.64V44ZM2997.84 21H3010.88V19H2997.84V21ZM3010.88 21C3015.28 21 3018.27 22.0385 3020.09 23.8981L3021.52 22.5019C3019.17 20.0948 3015.55 19 3010.88 19V21ZM3020.1 23.9071C3021.91 25.7252 3022.92 28.6439 3022.92 32.88H3024.92C3024.92 28.3695 3023.85 24.8348 3021.51 22.4929L3020.1 23.9071ZM3022.92 32.88V36.32H3024.92V32.88H3022.92ZM3022.92 36.32C3022.92 39.1264 3022.46 41.3258 3021.6 42.9774C3020.75 44.6069 3019.49 45.7483 3017.79 46.4324L3018.54 48.2876C3020.68 47.425 3022.3 45.9531 3023.37 43.9026C3024.43 41.8742 3024.92 39.3269 3024.92 36.32H3022.92ZM3017.16 47.36V47.52H3019.16V47.36H3017.16ZM3017.88 48.4778C3019.74 49.0365 3020.99 50.1454 3021.72 51.8369L3023.56 51.0431C3022.59 48.7879 3020.85 47.2835 3018.45 46.5622L3017.88 48.4778ZM3021.73 51.8575C3022.56 53.6495 3023 56.1293 3023 59.36H3025C3025 55.9774 3024.54 53.1771 3023.55 51.0225L3021.73 51.8575ZM3023 59.36V69.2H3025V59.36H3023ZM3023 69.2C3023 70.8177 3023.06 72.1628 3023.17 73.2247L3025.16 73.0153C3025.06 72.0505 3025 70.7823 3025 69.2H3023ZM3023.17 73.2304C3023.29 74.3011 3023.58 75.3605 3024.05 76.4061L3025.88 75.5939C3025.49 74.7195 3025.25 73.8589 3025.16 73.0096L3023.17 73.2304ZM3024.96 75H3016V77H3024.96V75ZM3016.95 75.6672C3016.64 74.8136 3016.45 74.028 3016.35 73.3078L3014.37 73.5722C3014.49 74.452 3014.72 75.3731 3015.06 76.3328L3016.95 75.6672ZM3016.35 73.3078C3016.26 72.5819 3016.2 71.2035 3016.2 69.12H3014.2C3014.2 71.1965 3014.25 72.6981 3014.37 73.5722L3016.35 73.3078ZM3016.2 69.12V58.88H3014.2V69.12H3016.2ZM3016.2 58.88C3016.2 56.2738 3015.78 54.1748 3014.69 52.8759L3013.16 54.1641C3013.77 54.8919 3014.2 56.3662 3014.2 58.88H3016.2ZM3014.71 52.9004C3013.63 51.5363 3011.84 51 3009.68 51V53C3011.58 53 3012.61 53.477 3013.14 54.1396L3014.71 52.9004ZM3009.68 51H3006.64V53H3009.68V51ZM3005.64 52V76H3007.64V52H3005.64ZM3006.64 75H2997.84V77H3006.64V75ZM2998.84 76V20H2996.84V76H2998.84ZM3009.84 45C3011.76 45 3013.38 44.5042 3014.49 43.3254L3013.03 41.9546C3012.44 42.5891 3011.44 43 3009.84 43V45ZM3014.47 43.3471C3015.66 42.1611 3016.12 40.312 3016.12 38.08H3014.12C3014.12 40.1147 3013.68 41.3055 3013.06 41.9329L3014.47 43.3471ZM3016.12 38.08V33.76H3014.12V38.08H3016.12ZM3016.12 33.76C3016.12 31.6539 3015.74 29.9001 3014.77 28.7243L3013.23 29.9957C3013.76 30.6332 3014.12 31.8127 3014.12 33.76H3016.12ZM3014.8 28.7525C3013.85 27.5173 3012.38 27 3010.64 27V29C3012 29 3012.77 29.3894 3013.21 29.9674L3014.8 28.7525ZM3010.64 27H3006.64V29H3010.64V27ZM3005.64 28V44H3007.64V28H3005.64ZM3006.64 45H3009.84V43H3006.64V45ZM3030.11 20V19H3029.11V20H3030.11ZM3038.91 20H3039.91V19H3038.91V20ZM3038.91 76V77H3039.91V76H3038.91ZM3030.11 76H3029.11V77H3030.11V76ZM3030.11 21H3038.91V19H3030.11V21ZM3037.91 20V76H3039.91V20H3037.91ZM3038.91 75H3030.11V77H3038.91V75ZM3031.11 76V20H3029.11V76H3031.11ZM3052.3 20V19H3051.45L3051.31 19.8393L3052.3 20ZM3064.22 20L3065.21 19.8393L3065.07 19H3064.22V20ZM3073.34 76V77H3074.51L3074.33 75.8393L3073.34 76ZM3064.54 76L3063.55 76.1424L3063.67 77H3064.54V76ZM3062.94 64.88L3063.93 64.7376L3061.94 64.88H3062.94ZM3062.94 65.04V66.04H3063.94V65.04H3062.94ZM3052.94 65.04V64.04H3052.07L3051.95 64.8955L3052.94 65.04ZM3051.34 76V77H3052.2L3052.33 76.1445L3051.34 76ZM3043.18 76L3042.19 75.8393L3042 77H3043.18V76ZM3061.9 57.44V58.44H3063.05L3062.89 57.2998L3061.9 57.44ZM3057.98 29.76L3058.97 29.6198L3058.85 28.76H3057.98V29.76ZM3057.82 29.76V28.76H3056.95L3056.83 29.6226L3057.82 29.76ZM3053.98 57.44L3052.99 57.3026L3052.83 58.44H3053.98V57.44ZM3052.3 21H3064.22V19H3052.3V21ZM3063.23 20.1607L3072.35 76.1607L3074.33 75.8393L3065.21 19.8393L3063.23 20.1607ZM3073.34 75H3064.54V77H3073.34V75ZM3065.53 75.8576L3063.93 64.7376L3061.95 65.0224L3063.55 76.1424L3065.53 75.8576ZM3061.94 64.88V65.04H3063.94V64.88H3061.94ZM3062.94 64.04H3052.94V66.04H3062.94V64.04ZM3051.95 64.8955L3050.35 75.8555L3052.33 76.1445L3053.93 65.1845L3051.95 64.8955ZM3051.34 75H3043.18V77H3051.34V75ZM3044.17 76.1607L3053.29 20.1607L3051.31 19.8393L3042.19 75.8393L3044.17 76.1607ZM3062.89 57.2998L3058.97 29.6198L3056.99 29.9002L3060.91 57.5802L3062.89 57.2998ZM3057.98 28.76H3057.82V30.76H3057.98V28.76ZM3056.83 29.6226L3052.99 57.3026L3054.97 57.5774L3058.81 29.8974L3056.83 29.6226ZM3053.98 58.44H3061.9V56.44H3053.98V58.44ZM3079.13 73.2L3078.39 73.8654L3078.39 73.8735L3079.13 73.2ZM3075.85 59.52V58.52H3074.85V59.52H3075.85ZM3084.17 59.52H3085.17V58.52H3084.17V59.52ZM3092.09 67.52L3091.34 66.8584L3091.34 66.8615L3092.09 67.52ZM3091.69 57.04L3090.83 57.5471L3090.84 57.5583L3091.69 57.04ZM3085.77 50.56L3085.11 51.3099L3085.12 51.3143L3085.77 50.56ZM3078.17 41.92L3077.3 42.4026L3077.3 42.4103L3078.17 41.92ZM3079.37 22.88L3080.1 23.5624L3080.11 23.5543L3079.37 22.88ZM3098.65 22.88L3097.9 23.5362L3097.91 23.5449L3097.91 23.5535L3098.65 22.88ZM3101.93 35.6V36.6H3102.93V35.6H3101.93ZM3093.61 35.6H3092.61V36.6H3093.61V35.6ZM3092.49 28.56L3091.72 29.1957L3091.73 29.2072L3091.74 29.2185L3092.49 28.56ZM3086.41 38.24L3085.56 38.7583L3085.56 38.7676L3085.57 38.7769L3086.41 38.24ZM3092.41 44.64L3091.76 45.3943L3091.76 45.3946L3092.41 44.64ZM3100.01 53.36L3099.13 53.8287L3099.13 53.8287L3100.01 53.36ZM3098.65 73.12L3097.92 72.4371L3097.92 72.4457L3098.65 73.12ZM3088.81 75.8C3084.74 75.8 3081.82 74.6584 3079.87 72.5265L3078.39 73.8735C3080.83 76.5416 3084.36 77.8 3088.81 77.8V75.8ZM3079.88 72.5346C3077.91 70.3239 3076.85 67.1014 3076.85 62.72H3074.85C3074.85 67.4053 3075.98 71.1694 3078.39 73.8654L3079.88 72.5346ZM3076.85 62.72V59.52H3074.85V62.72H3076.85ZM3075.85 60.52H3084.17V58.52H3075.85V60.52ZM3083.17 59.52V63.36H3085.17V59.52H3083.17ZM3083.17 63.36C3083.17 65.2887 3083.57 66.9215 3084.55 68.0824C3085.55 69.2771 3087.01 69.8 3088.73 69.8V67.8C3087.42 67.8 3086.6 67.4162 3086.08 66.7976C3085.53 66.1452 3085.17 65.058 3085.17 63.36H3083.17ZM3088.73 69.8C3090.42 69.8 3091.85 69.3125 3092.85 68.1785L3091.34 66.8615C3090.84 67.4342 3090.04 67.8 3088.73 67.8V69.8ZM3092.84 68.1816C3093.88 67.0072 3094.29 65.2727 3094.29 63.2H3092.29C3092.29 65.074 3091.91 66.2195 3091.34 66.8584L3092.84 68.1816ZM3094.29 63.2C3094.29 60.6968 3093.72 58.459 3092.55 56.5217L3090.84 57.5583C3091.8 59.141 3092.29 61.0099 3092.29 63.2H3094.29ZM3092.56 56.533C3091.41 54.5798 3089.34 52.3354 3086.43 49.8057L3085.12 51.3143C3087.97 53.798 3089.85 55.8736 3090.83 57.547L3092.56 56.533ZM3086.44 49.8102C3082.85 46.6428 3080.41 43.8493 3079.05 41.4297L3077.3 42.4103C3078.82 45.1107 3081.45 48.0772 3085.11 51.3098L3086.44 49.8102ZM3079.05 41.4374C3077.7 38.985 3077.01 36.2202 3077.01 33.12H3075.01C3075.01 36.5265 3075.77 39.6283 3077.3 42.4026L3079.05 41.4374ZM3077.01 33.12C3077.01 28.8568 3078.09 25.7205 3080.1 23.5623L3078.64 22.1977C3076.18 24.8395 3075.01 28.5299 3075.01 33.12H3077.01ZM3080.11 23.5543C3082.11 21.3638 3085.06 20.2 3089.13 20.2V18.2C3084.67 18.2 3081.12 19.4896 3078.64 22.2057L3080.11 23.5543ZM3089.13 20.2C3093.15 20.2 3096.01 21.3619 3097.9 23.5362L3099.41 22.2238C3097.03 19.4914 3093.55 18.2 3089.13 18.2V20.2ZM3097.91 23.5535C3099.88 25.7074 3100.93 28.8969 3100.93 33.28H3102.93C3102.93 28.5964 3101.8 24.8526 3099.39 22.2065L3097.91 23.5535ZM3100.93 33.28V35.6H3102.93V33.28H3100.93ZM3101.93 34.6H3093.61V36.6H3101.93V34.6ZM3094.61 35.6V32.72H3092.61V35.6H3094.61ZM3094.61 32.72C3094.61 30.7125 3094.23 29.0271 3093.25 27.9015L3091.74 29.2185C3092.25 29.7996 3092.61 30.8875 3092.61 32.72H3094.61ZM3093.27 27.9243C3092.29 26.7353 3090.88 26.2 3089.21 26.2V28.2C3090.43 28.2 3091.21 28.5714 3091.72 29.1957L3093.27 27.9243ZM3089.21 26.2C3087.54 26.2 3086.11 26.7208 3085.14 27.9055C3084.2 29.0525 3083.81 30.6619 3083.81 32.56H3085.81C3085.81 30.8848 3086.16 29.8142 3086.69 29.1745C3087.18 28.5726 3087.96 28.2 3089.21 28.2V26.2ZM3083.81 32.56C3083.81 34.7724 3084.4 36.8446 3085.56 38.7583L3087.27 37.7217C3086.3 36.1154 3085.81 34.401 3085.81 32.56H3083.81ZM3085.57 38.7769C3086.77 40.6592 3088.85 42.8676 3091.76 45.3943L3093.07 43.8857C3090.21 41.3991 3088.3 39.3408 3087.26 37.7031L3085.57 38.7769ZM3091.76 45.3946C3095.4 48.5594 3097.83 51.3716 3099.13 53.8287L3100.9 52.8913C3099.43 50.1218 3096.79 47.1206 3093.07 43.8854L3091.76 45.3946ZM3099.13 53.8287C3100.43 56.2726 3101.09 59.1725 3101.09 62.56H3103.09C3103.09 58.9075 3102.37 55.674 3100.9 52.8913L3099.13 53.8287ZM3101.09 62.56C3101.09 66.9871 3099.99 70.2279 3097.92 72.4371L3099.38 73.8029C3101.91 71.1055 3103.09 67.3062 3103.09 62.56H3101.09ZM3097.92 72.4457C3095.92 74.6337 3092.94 75.8 3088.81 75.8V77.8C3093.33 77.8 3096.91 76.513 3099.39 73.7943L3097.92 72.4457Z" fill="black"/>
</svg>
