<svg width="147" height="128" viewBox="0 0 147 128" fill="none" xmlns="http://www.w3.org/2000/svg">
<ellipse cx="22.3669" cy="55.6494" rx="22.3669" ry="55.6494" transform="matrix(0.948611 0.316445 -0.464735 0.88545 98.7244 15.1474)" fill="#CF2123"/>
<ellipse cx="72" cy="38.2671" rx="23" ry="38.2671" fill="#CF2123"/>
<ellipse cx="22.8981" cy="48.7635" rx="22.8981" ry="48.7635" transform="matrix(0.992193 -0.124715 0.19401 0.981 23 8.90042)" fill="#CF2123"/>
<ellipse cx="22.8366" cy="46.8362" rx="22.8366" ry="46.8362" transform="matrix(0.987399 0.15825 -0.244509 0.969647 77.9037 3.18893)" fill="#CF2123"/>
<ellipse cx="22.4399" cy="55.3995" rx="22.4399" ry="55.3995" transform="matrix(0.954904 -0.296916 0.43945 0.898267 3 28.4729)" fill="#CF2123"/>
<ellipse cx="13.6041" cy="43.8897" rx="13.6041" ry="43.8897" transform="matrix(0.873333 0.487123 -0.659604 0.751613 122.9 38.2672)" fill="#CF2123"/>
<ellipse cx="13.4712" cy="44.3839" rx="13.4712" ry="44.3839" transform="matrix(0.850553 -0.52589 0.697291 0.716788 0 54.8276)" fill="#CF2123"/>
<ellipse cx="4.29644" cy="27.7535" rx="4.29644" ry="27.7535" transform="matrix(0.850553 -0.52589 0.697291 0.716788 12 73.0809)" fill="#CF2123"/>
<ellipse cx="4.14897" cy="30.889" rx="4.14897" ry="30.889" transform="matrix(0.759765 0.650198 -0.802811 0.596234 125.596 70.9537)" fill="#CF2123"/>
<ellipse cx="71" cy="117" rx="18" ry="5" fill="#CF2123"/>
</svg>
