<svg width="429" height="430" viewBox="0 0 429 430" fill="none" xmlns="http://www.w3.org/2000/svg">
<path d="M61.8824 62.8796H366.124V367.121H61.8824V62.8796Z" fill="black"/>
<path d="M-1 207.492L221.508 0L429 222.508L206.492 430L-1 207.492Z" fill="black"/>
<path d="M8.26869 152.102L276.898 9.26906L419.73 277.898L151.101 420.731L8.26869 152.102Z" fill="black"/>
<path d="M31.5592 100.998L328.003 32.5587L396.442 329.002L99.9986 397.442L31.5592 100.998Z" fill="black"/>
<path d="M27.6903 322.566L106.434 28.6913L400.308 107.435L321.565 401.309L27.6903 322.566Z" fill="black"/>
<path d="M31.5592 100.998L328.003 32.5587L396.442 329.002L99.9986 397.442L31.5592 100.998Z" fill="black"/>
<path d="M5.25905 267.045L161.955 6.25959L422.741 162.955L266.045 423.741L5.25905 267.045Z" fill="black"/>
<path d="M63.5486 66.0039H363.614V364.845H63.5486V66.0039Z" fill="#FFDC58"/>
<path d="M1.5293 208.049L220.983 4.2406L425.627 222.799L206.173 426.607L1.5293 208.049Z" fill="#FFDC58"/>
<path d="M10.6708 153.642L275.613 13.3451L416.485 277.206L151.543 417.503L10.6708 153.642Z" fill="#FFDC58"/>
<path d="M33.6416 103.446L326.016 36.2213L393.516 327.403L101.142 394.627L33.6416 103.446Z" fill="#FFDC58"/>
<path d="M29.8258 321.08L107.488 32.4226L397.329 109.768L319.667 398.426L29.8258 321.08Z" fill="#FFDC58"/>
<path d="M33.6416 103.446L326.016 36.2213L393.516 327.403L101.142 394.627L33.6416 103.446Z" fill="#FFDC58"/>
<path d="M7.70244 266.545L162.248 10.3891L419.454 164.303L264.909 420.46L7.70244 266.545Z" fill="#FFDC58"/>
<path d="M38.5547 179.239L37.9259 178.456L37.9167 178.464L38.5547 179.239ZM88.8441 182.575L89.5678 181.891L89.5594 181.882L88.8441 182.575ZM87.7138 201.822L87.085 201.04L87.0758 201.047L87.7138 201.822ZM71.472 204.112L70.4742 204.046L70.4156 205.044L71.4134 205.11L71.472 204.112ZM71.9598 195.806L72.0184 194.808L71.0206 194.742L70.962 195.74L71.9598 195.806ZM55.7555 194.731L56.7533 194.797L56.8119 193.799L55.8141 193.733L55.7555 194.731ZM55.2677 203.037L55.2091 204.035L56.2069 204.101L56.2655 203.103L55.2677 203.037ZM37.4243 198.486L38.1481 197.801L38.1397 197.792L37.4243 198.486ZM35.3928 188.73C35.6285 184.718 36.9363 181.869 39.1926 180.014L37.9167 178.464C35.1208 180.763 33.6556 184.198 33.3972 188.598L35.3928 188.73ZM39.1833 180.021C41.4538 178.2 44.6233 177.356 48.826 177.635L48.9433 175.639C44.4185 175.339 40.7013 176.23 37.926 178.456L39.1833 180.021ZM48.826 177.635L78.84 179.627L78.9573 177.63L48.9433 175.639L48.826 177.635ZM78.84 179.627C83.0427 179.906 86.089 181.161 88.1287 183.269L89.5594 181.882C87.0661 179.306 83.4821 177.93 78.9573 177.63L78.84 179.627ZM88.1204 183.26C90.1421 185.399 91.1065 188.399 90.8709 192.411L92.8665 192.543C93.1249 188.144 92.0729 184.542 89.5678 181.891L88.1204 183.26ZM90.8709 192.411C90.6352 196.425 89.3289 199.24 87.0851 201.04L88.3424 202.605C91.1445 200.357 92.6082 196.942 92.8665 192.543L90.8709 192.411ZM87.0758 201.047C84.802 202.917 81.6345 203.784 77.4377 203.506L77.3204 205.502C81.8511 205.803 85.5734 204.882 88.3517 202.597L87.0758 201.047ZM77.4377 203.506L71.5307 203.114L71.4134 205.11L77.3204 205.502L77.4377 203.506ZM72.4699 204.178L72.9576 195.872L70.962 195.74L70.4742 204.046L72.4699 204.178ZM71.9012 196.805L78.367 197.234L78.4842 195.237L72.0184 194.808L71.9012 196.805ZM78.367 197.234C80.2134 197.356 81.807 197.073 82.9813 196.2C84.1892 195.302 84.7721 193.919 84.87 192.253L82.8743 192.121C82.8002 193.383 82.3894 194.139 81.7818 194.591C81.1406 195.067 80.0969 195.344 78.4842 195.237L78.367 197.234ZM84.87 192.253C84.9678 190.588 84.5512 189.138 83.4578 188.087C82.3947 187.066 80.8466 186.575 79.0001 186.452L78.8829 188.449C80.4955 188.556 81.4987 188.968 82.0792 189.526C82.6293 190.054 82.9485 190.858 82.8743 192.121L84.87 192.253ZM79.0001 186.452L47.7888 184.381L47.6715 186.378L78.8829 188.449L79.0001 186.452ZM47.7888 184.381C45.9659 184.26 44.3898 184.546 43.2282 185.423C42.0362 186.323 41.4632 187.706 41.3656 189.367L43.3612 189.499C43.4357 188.232 43.843 187.475 44.44 187.024C45.0673 186.55 46.0885 186.273 47.6715 186.378L47.7888 184.381ZM41.3656 189.367C41.2681 191.028 41.675 192.475 42.7523 193.526C43.8023 194.55 45.3328 195.042 47.1556 195.163L47.2729 193.166C45.6898 193.061 44.709 192.651 44.1419 192.098C43.6024 191.572 43.2868 190.767 43.3612 189.499L41.3656 189.367ZM47.1556 195.163L55.6968 195.729L55.8141 193.733L47.2729 193.166L47.1556 195.163ZM54.7576 194.665L54.2699 202.971L56.2655 203.103L56.7533 194.797L54.7576 194.665ZM55.3263 202.038L47.4237 201.514L47.3064 203.511L55.2091 204.035L55.3263 202.038ZM47.4237 201.514C43.2268 201.236 40.1853 199.957 38.148 197.801L36.7006 199.17C39.1901 201.804 42.7758 203.21 47.3064 203.511L47.4237 201.514ZM38.1397 197.792C36.1239 195.71 35.1571 192.744 35.3928 188.73L33.3972 188.598C33.1389 192.996 34.1917 196.578 36.709 199.179L38.1397 197.792Z" fill="black"/>
<path d="M91.136 213.564L92.1232 213.405L92.0032 212.563L91.1553 212.561L91.136 213.564ZM92.8187 225.364L93.1167 226.316L93.926 226.047L93.806 225.205L92.8187 225.364ZM38.8191 243.3L37.8318 243.459L37.9978 244.624L39.1171 244.252L38.8191 243.3ZM37.5768 234.588L37.2965 233.631L36.4672 233.89L36.5895 234.748L37.5768 234.588ZM48.3294 231.236L48.6097 232.193L48.1882 230.246L48.3294 231.236ZM48.1714 231.261L47.1841 231.42L47.3253 232.41L48.3126 232.251L48.1714 231.261ZM46.7597 221.361L47.747 221.202L47.6249 220.346L46.7626 220.359L46.7597 221.361ZM35.7134 221.521L34.7261 221.68L34.8481 222.536L35.7104 222.523L35.7134 221.521ZM34.5614 213.442L34.5808 212.44L33.4081 212.437L33.5741 213.601L34.5614 213.442ZM55.5278 229.023L54.5406 229.182L54.7031 230.322L55.806 229.981L55.5278 229.023ZM82.3021 220.739L82.5803 221.697L83.4119 221.44L83.2893 220.58L82.3021 220.739ZM82.2795 220.581L83.2667 220.422L83.1438 219.56L82.2753 219.578L82.2795 220.581ZM54.4098 221.182L54.4056 220.18L53.2604 220.204L53.4225 221.341L54.4098 221.182ZM90.1487 213.723L91.8314 225.524L93.806 225.205L92.1232 213.405L90.1487 213.723ZM92.5207 224.413L38.5211 242.349L39.1171 244.252L93.1167 226.316L92.5207 224.413ZM39.8064 243.141L38.5641 234.429L36.5895 234.748L37.8318 243.459L39.8064 243.141ZM37.8571 235.546L48.6097 232.193L48.049 230.279L37.2965 233.631L37.8571 235.546ZM48.1882 230.246L48.0302 230.271L48.3126 232.251L48.4705 232.226L48.1882 230.246ZM49.1587 231.102L47.747 221.202L45.7724 221.52L47.1841 231.42L49.1587 231.102ZM46.7626 220.359L35.7163 220.518L35.7104 222.523L46.7568 222.364L46.7626 220.359ZM36.7006 221.362L35.5487 213.283L33.5741 213.601L34.7261 221.68L36.7006 221.362ZM34.542 214.445L91.1166 214.567L91.1553 212.561L34.5808 212.44L34.542 214.445ZM55.806 229.981L82.5803 221.697L82.0238 219.781L55.2496 228.065L55.806 229.981ZM83.2893 220.58L83.2667 220.422L81.2922 220.74L81.3148 220.898L83.2893 220.58ZM82.2753 219.578L54.4056 220.18L54.4139 222.185L82.2836 221.583L82.2753 219.578ZM53.4225 221.341L54.5406 229.182L56.5151 228.864L55.397 221.023L53.4225 221.341Z" fill="black"/>
<path d="M94.3335 235.139L95.2585 234.758L94.9166 233.819L93.9917 234.199L94.3335 235.139ZM99.2225 257.932L98.332 257.524L98.3268 257.536L99.2225 257.932ZM75.9737 264.635L76.7039 263.931L76.2564 263.438L75.6318 263.695L75.9737 264.635ZM75.8257 264.695L75.4838 263.756L74.7956 264.039L74.8415 264.79L75.8257 264.695ZM73.7314 270.396L73.0505 269.684L73.0425 269.692L73.0346 269.7L73.7314 270.396ZM54.1984 280.065L53.7616 279.17L53.7565 279.173L54.1984 280.065ZM51.8081 281.912L50.8832 282.292L51.4092 283.738L52.4961 282.616L51.8081 281.912ZM48.7452 273.492L48.115 272.732L47.5784 273.207L47.8202 273.872L48.7452 273.492ZM68.8266 262.992L67.9852 262.49L67.9771 262.504L67.9694 262.518L68.8266 262.992ZM67.7439 255.572L68.6688 255.192L68.327 254.253L67.4021 254.633L67.7439 255.572ZM45.5455 264.696L44.6206 265.076L44.9624 266.015L45.8873 265.635L45.5455 264.696ZM42.5372 256.426L42.1954 255.486L41.2705 255.866L41.6123 256.806L42.5372 256.426ZM78.8352 258.706L79.2475 257.772L79.234 257.766L79.2202 257.761L78.8352 258.706ZM91.2004 253.883L90.367 253.367L90.3575 253.383L90.3485 253.399L91.2004 253.883ZM89.9423 246.449L90.8673 246.069L90.5254 245.13L89.6005 245.51L89.9423 246.449ZM75.1434 252.531L74.8015 251.592L73.8766 251.972L74.2184 252.912L75.1434 252.531ZM93.4086 235.519L97.8663 247.773L99.7162 247.013L95.2585 234.758L93.4086 235.519ZM97.8663 247.773C99.3712 251.91 99.4323 255.113 98.3321 257.524L100.113 258.339C101.537 255.219 101.311 251.396 99.7162 247.013L97.8663 247.773ZM98.3268 257.536C97.2667 259.936 94.912 261.993 90.9939 263.604L91.6776 265.483C95.8495 263.769 98.7527 261.419 100.118 258.327L98.3268 257.536ZM90.9939 263.604L87.8121 264.911L88.4958 266.791L91.6776 265.483L90.9939 263.604ZM87.8121 264.911C85.2164 265.978 83.0231 266.377 81.2009 266.195C79.4032 266.016 77.9173 265.267 76.7039 263.931L75.2434 265.338C76.7733 267.023 78.6891 267.987 80.9514 268.213C83.1893 268.437 85.7146 267.934 88.4958 266.791L87.8121 264.911ZM75.6318 263.695L75.4838 263.756L76.1675 265.635L76.3155 265.574L75.6318 263.695ZM74.8415 264.79C74.9614 266.752 74.365 268.354 73.0505 269.684L74.4123 271.107C76.1648 269.334 76.9646 267.135 76.8098 264.601L74.8415 264.79ZM73.0346 269.7C71.6586 271.155 69.5172 272.517 66.529 273.745L67.2127 275.624C70.3414 274.338 72.7737 272.84 74.4282 271.091L73.0346 269.7ZM66.529 273.745L57.4276 277.485L58.1113 279.365L67.2127 275.624L66.529 273.745ZM57.4276 277.485C55.9314 278.1 54.7056 278.662 53.7616 279.17L54.6352 280.96C55.4929 280.498 56.6478 279.966 58.1113 279.365L57.4276 277.485ZM53.7565 279.173C52.8069 279.692 51.9284 280.373 51.1201 281.207L52.4961 282.616C53.172 281.919 53.887 281.369 54.6403 280.957L53.7565 279.173ZM52.733 281.532L49.6701 273.112L47.8202 273.872L50.8832 282.292L52.733 281.532ZM49.3754 274.251C50.0619 273.644 50.7221 273.162 51.3553 272.798L50.4331 271.036C49.6594 271.481 48.8869 272.049 48.115 272.732L49.3754 274.251ZM51.3553 272.798C51.9937 272.431 53.25 271.856 55.1771 271.064L54.4934 269.185C52.5728 269.974 51.2017 270.594 50.4331 271.036L51.3553 272.798ZM55.1771 271.064L64.6484 267.172L63.9647 265.292L54.4934 269.185L55.1771 271.064ZM64.6484 267.172C67.0589 266.181 68.8564 264.987 69.6839 263.466L67.9694 262.518C67.5058 263.37 66.2898 264.337 63.9647 265.292L64.6484 267.172ZM69.6681 263.494C70.5616 261.963 70.4454 260.076 69.7081 258.049L67.8582 258.809C68.5065 260.592 68.4193 261.746 67.9852 262.49L69.6681 263.494ZM69.7081 258.049L68.6688 255.192L66.819 255.953L67.8582 258.809L69.7081 258.049ZM67.4021 254.633L45.2036 263.756L45.8873 265.635L68.0858 256.512L67.4021 254.633ZM46.4704 264.315L43.4622 256.046L41.6123 256.806L44.6206 265.076L46.4704 264.315ZM42.8791 257.365L94.6754 236.078L93.9917 234.199L42.1954 255.486L42.8791 257.365ZM75.3123 255.919C75.9685 257.722 76.9806 259.056 78.4502 259.65L79.2202 257.761C78.4292 257.441 77.7094 256.663 77.1622 255.159L75.3123 255.919ZM78.4229 259.639C79.9253 260.303 81.7953 260.038 83.8597 259.19L83.176 257.31C81.294 258.084 80.0423 258.123 79.2475 257.772L78.4229 259.639ZM83.8597 259.19L87.8554 257.548L87.1717 255.668L83.176 257.31L83.8597 259.19ZM87.8554 257.548C89.8034 256.747 91.2957 255.724 92.0523 254.367L90.3485 253.399C89.9384 254.135 88.9728 254.928 87.1717 255.668L87.8554 257.548ZM92.0338 254.399C92.8534 253.041 92.8292 251.463 92.2346 249.828L90.3848 250.589C90.8476 251.861 90.7506 252.732 90.367 253.367L92.0338 254.399ZM92.2346 249.828L90.8673 246.069L89.0174 246.83L90.3848 250.589L92.2346 249.828ZM89.6005 245.51L74.8015 251.592L75.4852 253.471L90.2842 247.389L89.6005 245.51ZM74.2184 252.912L75.3123 255.919L77.1622 255.159L76.0683 252.151L74.2184 252.912Z" fill="black"/>
<path d="M107.83 267.524L108.646 266.947L108.195 266.226L107.437 266.595L107.83 267.524ZM114.158 277.626L114.814 278.37L115.426 277.769L114.975 277.048L114.158 277.626ZM73.2911 317.707L72.4748 318.285L73.0992 319.281L73.9463 318.451L73.2911 317.707ZM68.6192 310.249L67.9775 309.493L67.343 310.093L67.803 310.827L68.6192 310.249ZM76.8463 302.469L77.488 303.226L76.3154 301.622L76.8463 302.469ZM76.7157 302.562L75.8995 303.139L76.4304 303.987L77.2466 303.409L76.7157 302.562ZM71.4068 294.087L72.223 293.51L71.764 292.777L70.9994 293.165L71.4068 294.087ZM61.6114 299.063L60.7952 299.641L61.2542 300.374L62.0188 299.985L61.6114 299.063ZM57.2793 292.148L56.8866 291.219L55.8388 291.729L56.4631 292.726L57.2793 292.148ZM82.367 297.29L81.5507 297.867L82.1621 298.843L83.0071 298.048L82.367 297.29ZM102.879 277.976L103.519 278.735L104.156 278.135L103.695 277.399L102.879 277.976ZM102.794 277.841L103.611 277.263L103.148 276.525L102.381 276.922L102.794 277.841ZM78.1623 290.578L77.7486 289.659L76.7364 290.183L77.3461 291.156L78.1623 290.578ZM107.014 268.102L113.342 278.204L114.975 277.048L108.646 266.947L107.014 268.102ZM113.503 276.882L72.6359 316.963L73.9463 318.451L114.814 278.37L113.503 276.882ZM74.1073 317.129L69.4355 309.672L67.803 310.827L72.4748 318.285L74.1073 317.129ZM69.2609 311.006L77.488 303.226L76.2046 301.713L67.9775 309.493L69.2609 311.006ZM76.3154 301.622L76.1848 301.714L77.2466 303.409L77.3772 303.317L76.3154 301.622ZM77.532 301.984L72.223 293.51L70.5906 294.665L75.8995 303.139L77.532 301.984ZM70.9994 293.165L61.204 298.141L62.0188 299.985L71.8142 295.009L70.9994 293.165ZM62.4277 298.486L58.0956 291.57L56.4631 292.726L60.7952 299.641L62.4277 298.486ZM57.6721 293.077L108.223 268.454L107.437 266.595L56.8866 291.219L57.6721 293.077ZM83.0071 298.048L103.519 278.735L102.239 277.218L81.7269 296.532L83.0071 298.048ZM103.695 277.399L103.611 277.263L101.978 278.419L102.063 278.554L103.695 277.399ZM102.381 276.922L77.7486 289.659L78.576 291.497L103.208 278.76L102.381 276.922ZM77.3461 291.156L81.5507 297.867L83.1832 296.712L78.9785 290L77.3461 291.156Z" fill="black"/>
<path d="M85.5862 326.824L84.6176 326.791L84.6173 326.803L85.5862 326.824ZM119.575 289.609L119.526 288.581L119.514 288.581L119.575 289.609ZM132.992 303.454L132.024 303.421L132.023 303.433L132.992 303.454ZM124.487 317.741L123.812 318.479L124.508 319.197L125.183 318.459L124.487 317.741ZM118.697 311.766L118.001 311.048L117.326 311.786L118.022 312.504L118.697 311.766ZM107.745 323.758L108.419 323.019L107.723 322.301L107.049 323.039L107.745 323.758ZM113.535 329.732L114.231 330.45L114.905 329.712L114.209 328.994L113.535 329.732ZM99.0039 340.669L98.9553 339.641L98.9437 339.641L99.0039 340.669ZM90.5695 335.695C87.7724 332.809 86.5019 329.865 86.5551 326.846L84.6173 326.803C84.5514 330.545 86.1536 334.007 89.2208 337.172L90.5695 335.695ZM86.5549 326.858C86.6419 323.85 88.0107 320.795 90.8511 317.685L89.4592 316.249C86.4012 319.597 84.724 323.114 84.6176 326.791L86.5549 326.858ZM90.8511 317.685L111.136 295.474L109.744 294.038L89.4592 316.249L90.8511 317.685ZM111.136 295.474C113.977 292.364 116.809 290.819 119.635 290.638L119.514 288.581C116.06 288.803 112.802 290.69 109.744 294.038L111.136 295.474ZM119.623 290.638C122.461 290.492 125.267 291.755 128.065 294.641L129.413 293.164C126.346 289.999 123.043 288.4 119.526 288.581L119.623 290.638ZM128.065 294.641C130.863 297.528 132.11 300.448 132.024 303.421L133.961 303.488C134.068 299.776 132.48 296.328 129.413 293.164L128.065 294.641ZM132.023 303.433C131.97 306.476 130.62 309.546 127.783 312.651L129.175 314.087C132.237 310.735 133.896 307.194 133.961 303.476L132.023 303.433ZM127.783 312.651L123.791 317.023L125.183 318.459L129.175 314.087L127.783 312.651ZM125.161 317.002L119.371 311.028L118.022 312.504L123.812 318.479L125.161 317.002ZM119.392 312.484L123.762 307.699L122.37 306.263L118.001 311.048L119.392 312.484ZM123.762 307.699C125.01 306.333 125.802 304.892 125.898 303.383C125.996 301.831 125.347 300.442 124.185 299.244L122.837 300.72C123.717 301.629 124.014 302.459 123.964 303.24C123.912 304.064 123.46 305.07 122.37 306.263L123.762 307.699ZM124.185 299.244C123.024 298.045 121.699 297.396 120.242 297.547C118.826 297.694 117.494 298.577 116.246 299.944L117.638 301.38C118.728 300.187 119.66 299.677 120.433 299.597C121.166 299.521 121.957 299.812 122.837 300.72L124.185 299.244ZM116.246 299.944L95.1519 323.041L96.5438 324.477L117.638 301.38L116.246 299.944ZM95.1519 323.041C93.9199 324.39 93.141 325.819 93.0564 327.321C92.9697 328.862 93.625 330.243 94.7828 331.437L96.1315 329.961C95.248 329.049 94.9477 328.22 94.9911 327.448C95.0368 326.636 95.4739 325.648 96.5438 324.477L95.1519 323.041ZM94.7828 331.437C95.9406 332.632 97.2583 333.287 98.7052 333.15C100.115 333.015 101.436 332.145 102.668 330.796L101.276 329.36C100.206 330.532 99.2902 331.025 98.5287 331.098C97.804 331.167 97.0151 330.872 96.1315 329.961L94.7828 331.437ZM102.668 330.796L108.441 324.476L107.049 323.039L101.276 329.36L102.668 330.796ZM107.07 324.496L112.861 330.471L114.209 328.994L108.419 323.019L107.07 324.496ZM112.839 329.014L107.498 334.862L108.89 336.298L114.231 330.45L112.839 329.014ZM107.498 334.862C104.661 337.968 101.815 339.493 98.9553 339.641L99.0525 341.698C102.547 341.518 105.828 339.651 108.89 336.298L107.498 334.862ZM98.9437 339.641C96.1509 339.821 93.3677 338.583 90.5695 335.695L89.2208 337.172C92.2871 340.336 95.5764 341.922 99.0642 341.698L98.9437 339.641Z" fill="black"/>
<path d="M113.15 351.461L114.104 351.276L114.104 351.276L113.15 351.461ZM138.581 308.133L138.845 309.126L138.845 309.126L138.581 308.133ZM155.116 319.098L154.162 319.283L154.162 319.283L155.116 319.098ZM129.685 362.426L129.422 361.433L129.422 361.433L129.685 362.426ZM120.061 359.255C116.621 356.974 114.704 354.306 114.104 351.276L112.196 351.646C112.935 355.383 115.287 358.485 119.048 360.98L120.061 359.255ZM114.104 351.276C113.501 348.224 114.198 344.863 116.381 341.144L114.714 340.038C112.362 344.046 111.461 347.932 112.196 351.646L114.104 351.276ZM116.381 341.144L131.283 315.754L129.617 314.649L114.714 340.038L116.381 341.144ZM131.283 315.754C133.467 312.034 136 309.891 138.845 309.126L138.318 307.141C134.857 308.072 131.969 310.641 129.617 314.649L131.283 315.754ZM138.845 309.126C141.668 308.366 144.766 309.024 148.205 311.304L149.218 309.58C145.457 307.085 141.801 306.204 138.318 307.141L138.845 309.126ZM148.205 311.304C151.645 313.585 153.562 316.254 154.162 319.283L156.071 318.913C155.331 315.176 152.979 312.074 149.218 309.58L148.205 311.304ZM154.162 319.283C154.766 322.336 154.068 325.696 151.885 329.416L153.552 330.521C155.904 326.514 156.805 322.627 156.071 318.913L154.162 319.283ZM151.885 329.416L136.983 354.805L138.649 355.911L153.552 330.521L151.885 329.416ZM136.983 354.805C134.799 358.525 132.266 360.668 129.422 361.433L129.948 363.419C133.41 362.487 136.297 359.918 138.649 355.911L136.983 354.805ZM129.422 361.433C126.598 362.193 123.5 361.536 120.061 359.255L119.048 360.98C122.81 363.474 126.465 364.356 129.948 363.419L129.422 361.433ZM123.098 354.08C124.54 355.036 126.027 355.385 127.473 354.893C128.875 354.417 130.044 353.214 131.032 351.53L129.365 350.425C128.491 351.915 127.629 352.672 126.833 352.943C126.081 353.198 125.202 353.08 124.11 352.356L123.098 354.08ZM131.032 351.53L146.501 325.175L144.835 324.069L129.365 350.425L131.032 351.53ZM146.501 325.175C147.49 323.491 147.993 321.847 147.779 320.298C147.558 318.702 146.61 317.435 145.168 316.479L144.156 318.204C145.248 318.928 145.734 319.714 145.849 320.545C145.97 321.423 145.709 322.58 144.835 324.069L146.501 325.175ZM145.168 316.479C143.727 315.523 142.239 315.175 140.793 315.666C139.391 316.142 138.222 317.345 137.234 319.029L138.901 320.134C139.775 318.645 140.637 317.887 141.433 317.617C142.185 317.361 143.064 317.48 144.156 318.204L145.168 316.479ZM137.234 319.029L121.765 345.385L123.431 346.49L138.901 320.134L137.234 319.029ZM121.765 345.385C120.776 347.069 120.274 348.713 120.488 350.261C120.708 351.857 121.656 353.124 123.098 354.08L124.11 352.356C123.018 351.631 122.532 350.845 122.417 350.015C122.296 349.136 122.557 347.98 123.431 346.49L121.765 345.385Z" fill="black"/>
<path d="M161.304 319.132L161.632 318.188L160.701 317.822L160.373 318.767L161.304 319.132ZM169.496 322.347L170.427 322.712L170.755 321.767L169.824 321.402L169.496 322.347ZM153.747 367.69L152.816 367.324L152.488 368.269L153.419 368.634L153.747 367.69ZM167.226 372.979L168.157 373.344L168.485 372.4L167.555 372.034L167.226 372.979ZM164.602 380.536L164.274 381.481L165.204 381.846L165.533 380.902L164.602 380.536ZM142.93 372.032L142 371.667L141.671 372.612L142.602 372.977L142.93 372.032ZM160.976 320.077L169.168 323.291L169.824 321.402L161.632 318.188L160.976 320.077ZM168.565 321.981L152.816 367.324L154.678 368.055L170.427 322.712L168.565 321.981ZM153.419 368.634L166.898 373.924L167.555 372.034L154.075 366.745L153.419 368.634ZM166.296 372.614L163.671 380.171L165.533 380.902L168.157 373.344L166.296 372.614ZM164.93 379.592L143.259 371.088L142.602 372.977L164.274 381.481L164.93 379.592ZM143.861 372.398L162.235 319.498L160.373 318.767L142 371.667L143.861 372.398Z" fill="black"/>
<path d="M189.12 328.566L189.261 327.576L188.421 327.441L188.168 328.251L189.12 328.566ZM200.89 330.45L201.887 330.447L201.87 329.595L201.031 329.46L200.89 330.45ZM202.038 387.338L201.898 388.328L203.059 388.514L203.035 387.335L202.038 387.338ZM193.349 385.947L192.351 385.932L192.353 386.8L193.208 386.937L193.349 385.947ZM193.329 374.684L194.326 374.7L192.342 374.526L193.329 374.684ZM193.307 374.842L193.166 375.833L194.154 375.991L194.294 375.001L193.307 374.842ZM183.432 373.261L183.573 372.271L182.719 372.135L182.476 372.962L183.432 373.261ZM180.315 383.86L180.174 384.85L181.028 384.987L181.271 384.16L180.315 383.86ZM172.257 382.57L171.305 382.255L170.956 383.374L172.117 383.56L172.257 382.57ZM193.346 367.153L193.206 368.143L194.343 368.325L194.343 367.171L193.346 367.153ZM193.359 339.127L194.357 339.145L194.357 338.275L193.5 338.137L193.359 339.127ZM193.201 339.102L193.342 338.112L192.482 337.974L192.243 338.809L193.201 339.102ZM185.526 365.901L184.567 365.608L184.251 366.71L185.385 366.891L185.526 365.901ZM188.98 329.556L200.75 331.441L201.031 329.46L189.261 327.576L188.98 329.556ZM199.893 330.454L201.041 387.341L203.035 387.335L201.887 330.447L199.893 330.454ZM202.178 386.348L193.489 384.957L193.208 386.937L201.898 388.328L202.178 386.348ZM194.346 385.962L194.326 374.7L192.332 374.669L192.351 385.932L194.346 385.962ZM192.342 374.526L192.319 374.684L194.294 375.001L194.316 374.842L192.342 374.526ZM193.447 373.852L183.573 372.271L183.292 374.252L193.166 375.833L193.447 373.852ZM182.476 372.962L179.358 383.561L181.271 384.16L184.389 373.561L182.476 372.962ZM180.455 382.87L172.398 381.58L172.117 383.56L180.174 384.85L180.455 382.87ZM173.209 382.885L190.072 328.881L188.168 328.251L171.305 382.255L173.209 382.885ZM194.343 367.171L194.357 339.145L192.362 339.11L192.349 367.136L194.343 367.171ZM193.5 338.137L193.342 338.112L193.061 340.092L193.219 340.117L193.5 338.137ZM192.243 338.809L184.567 365.608L186.484 366.194L194.16 339.395L192.243 338.809ZM185.385 366.891L193.206 368.143L193.486 366.163L185.666 364.911L185.385 366.891Z" fill="black"/>
<path d="M232.844 383.471L232.222 384.266L232.231 384.274L232.844 383.471ZM224.961 333.691L224.135 333.146L224.128 333.156L224.961 333.691ZM243.94 330.296L243.317 331.091L243.327 331.098L243.94 330.296ZM249.762 345.586L249.919 346.574L250.903 346.397L250.747 345.41L249.762 345.586ZM241.572 347.051L240.588 347.227L240.744 348.215L241.729 348.039L241.572 347.051ZM244.112 363.091L243.956 362.104L242.972 362.28L243.128 363.267L244.112 363.091ZM252.302 361.626L253.287 361.45L253.13 360.462L252.146 360.638L252.302 361.626ZM251.823 380.075L250.996 379.53L250.99 379.54L251.823 380.075ZM242.78 384.334C238.823 385.042 235.762 384.433 233.457 382.668L232.231 384.274C235.087 386.461 238.754 387.086 243.092 386.309L242.78 384.334ZM233.467 382.675C231.192 380.889 229.67 377.998 229.011 373.837L227.042 374.19C227.751 378.669 229.441 382.082 232.222 384.266L233.467 382.675ZM229.011 373.837L224.306 344.128L222.337 344.48L227.042 374.19L229.011 373.837ZM224.306 344.128C223.647 339.968 224.195 336.706 225.794 334.226L224.128 333.156C222.173 336.187 221.628 340.001 222.337 344.48L224.306 344.128ZM225.787 334.236C227.422 331.767 230.127 330.126 234.083 329.418L233.77 327.443C229.432 328.219 226.16 330.086 224.135 333.146L225.787 334.236ZM234.083 329.418C238.041 328.71 241.069 329.325 243.317 331.091L244.562 329.5C241.754 327.295 238.107 326.667 233.77 327.443L234.083 329.418ZM243.327 331.098C245.649 332.877 247.194 335.761 247.852 339.915L249.821 339.563C249.11 335.078 247.391 331.666 244.553 329.493L243.327 331.098ZM247.852 339.915L248.778 345.762L250.747 345.41L249.821 339.563L247.852 339.915ZM249.606 344.598L241.416 346.064L241.729 348.039L249.919 346.574L249.606 344.598ZM242.557 346.875L241.543 340.475L239.574 340.827L240.588 347.227L242.557 346.875ZM241.543 340.475C241.254 338.647 240.626 337.161 239.516 336.22C238.375 335.253 236.9 335.008 235.258 335.302L235.571 337.278C236.816 337.055 237.642 337.279 238.216 337.765C238.821 338.279 239.322 339.231 239.574 340.827L241.543 340.475ZM235.258 335.302C233.615 335.596 232.297 336.341 231.517 337.652C230.758 338.926 230.623 340.549 230.912 342.377L232.881 342.025C232.628 340.428 232.807 339.354 233.222 338.659C233.614 337.999 234.326 337.5 235.571 337.278L235.258 335.302ZM230.912 342.377L235.805 373.272L237.773 372.92L232.881 342.025L230.912 342.377ZM235.805 373.272C236.09 375.076 236.717 376.545 237.828 377.472C238.968 378.423 240.44 378.659 242.077 378.366L241.765 376.39C240.515 376.614 239.688 376.394 239.117 375.918C238.517 375.417 238.021 374.487 237.773 372.92L235.805 373.272ZM242.077 378.366C243.715 378.073 245.034 377.338 245.818 376.043C246.582 374.78 246.721 373.174 246.436 371.37L244.467 371.722C244.715 373.289 244.533 374.341 244.121 375.022C243.728 375.671 243.014 376.167 241.765 376.39L242.077 378.366ZM246.436 371.37L245.097 362.915L243.128 363.267L244.467 371.722L246.436 371.37ZM244.269 364.079L252.459 362.614L252.146 360.638L243.956 362.104L244.269 364.079ZM251.318 361.802L252.557 369.625L254.526 369.272L253.287 361.45L251.318 361.802ZM252.557 369.625C253.215 373.779 252.643 377.041 250.997 379.53L252.649 380.62C254.662 377.579 255.236 373.757 254.526 369.272L252.557 369.625ZM250.99 379.54C249.409 381.991 246.737 383.626 242.78 384.334L243.092 386.309C247.43 385.533 250.682 383.671 252.656 380.61L250.99 379.54Z" fill="black"/>
<path d="M246.954 326.852L246.61 325.913L245.686 326.295L246.03 327.234L246.954 326.852ZM269.133 317.683L270.058 317.301L269.714 316.362L268.79 316.744L269.133 317.683ZM271.882 325.196L272.226 326.135L273.15 325.753L272.806 324.814L271.882 325.196ZM257.835 331.003L257.492 330.064L256.567 330.446L256.911 331.385L257.835 331.003ZM262.92 344.902L261.996 345.284L262.34 346.223L263.264 345.841L262.92 344.902ZM274.084 340.287L275.008 339.905L274.665 338.966L273.741 339.348L274.084 340.287ZM276.833 347.8L277.177 348.739L278.101 348.357L277.757 347.418L276.833 347.8ZM265.669 352.415L265.326 351.475L264.402 351.857L264.745 352.797L265.669 352.415ZM271.579 368.567L270.655 368.949L270.999 369.888L271.923 369.506L271.579 368.567ZM285.626 362.761L286.551 362.379L286.207 361.439L285.283 361.821L285.626 362.761ZM288.375 370.273L288.719 371.213L289.643 370.831L289.299 369.891L288.375 370.273ZM266.196 379.442L265.272 379.824L265.615 380.763L266.539 380.381L266.196 379.442ZM247.297 327.791L269.477 318.622L268.79 316.744L246.61 325.913L247.297 327.791ZM268.209 318.065L270.958 325.578L272.806 324.814L270.058 317.301L268.209 318.065ZM271.539 324.257L257.492 330.064L258.179 331.942L272.226 326.135L271.539 324.257ZM256.911 331.385L261.996 345.284L263.845 344.52L258.759 330.621L256.911 331.385ZM263.264 345.841L274.428 341.226L273.741 339.348L262.577 343.963L263.264 345.841ZM273.16 340.669L275.909 348.182L277.757 347.418L275.008 339.905L273.16 340.669ZM276.489 346.861L265.326 351.475L266.013 353.354L277.177 348.739L276.489 346.861ZM264.745 352.797L270.655 368.949L272.504 368.185L266.593 352.033L264.745 352.797ZM271.923 369.506L285.97 363.7L285.283 361.821L271.236 367.628L271.923 369.506ZM284.702 363.143L287.451 370.655L289.299 369.891L286.551 362.379L284.702 363.143ZM288.032 369.334L265.852 378.503L266.539 380.381L288.719 371.213L288.032 369.334ZM267.12 379.06L247.878 326.47L246.03 327.234L265.272 379.824L267.12 379.06Z" fill="black"/>
<path d="M269.616 317.762L269.09 316.911L268.27 317.483L268.796 318.334L269.616 317.762ZM290.128 307.348L289.907 308.352L289.919 308.354L290.128 307.348ZM300.655 329.416L299.862 328.84L299.481 329.413L299.835 329.988L300.655 329.416ZM300.74 329.552L299.919 330.124L300.31 330.757L301.007 330.531L300.74 329.552ZM306.473 330.324L305.929 331.187L305.938 331.193L305.947 331.199L306.473 330.324ZM319.11 347.901L318.349 348.559L318.353 348.564L319.11 347.901ZM321.279 349.894L321.805 350.745L323.067 349.865L321.815 349.026L321.279 349.894ZM313.931 355.02L313.332 355.843L313.876 356.276L314.456 355.871L313.931 355.02ZM300.414 337.083L300.096 338.059L300.111 338.064L300.125 338.069L300.414 337.083ZM293.645 339.955L293.12 339.104L292.3 339.676L292.825 340.527L293.645 339.955ZM306.254 360.376L306.779 361.227L307.6 360.654L307.074 359.804L306.254 360.376ZM299.037 365.411L298.217 365.983L298.742 366.834L299.562 366.262L299.037 365.411ZM294.567 327.917L293.616 327.72L293.612 327.735L293.61 327.751L294.567 327.917ZM287.787 316.48L287.454 317.452L287.471 317.457L287.488 317.463L287.787 316.48ZM281.036 319.534L280.511 318.683L279.69 319.255L280.216 320.106L281.036 319.534ZM289.442 333.148L288.622 333.72L289.147 334.571L289.967 333.999L289.442 333.148ZM270.141 318.613L280.836 311.152L279.785 309.45L269.09 316.911L270.141 318.613ZM280.836 311.152C284.446 308.633 287.443 307.807 289.907 308.352L290.348 306.345C287.159 305.639 283.61 306.782 279.785 309.45L280.836 311.152ZM289.919 308.354C292.365 308.861 294.726 310.767 296.952 314.372L298.592 313.227C296.223 309.39 293.487 306.995 290.336 306.342L289.919 308.354ZM296.952 314.372L298.759 317.299L300.4 316.154L298.592 313.227L296.952 314.372ZM298.759 317.299C300.234 319.687 301.008 321.824 301.169 323.722C301.328 325.595 300.895 327.286 299.862 328.84L301.449 329.991C302.752 328.032 303.309 325.852 303.109 323.495C302.911 321.164 301.979 318.713 300.4 316.154L298.759 317.299ZM299.835 329.988L299.919 330.124L301.56 328.98L301.476 328.844L299.835 329.988ZM301.007 330.531C302.828 329.941 304.44 330.166 305.929 331.187L307.018 329.461C305.033 328.1 302.823 327.811 300.472 328.572L301.007 330.531ZM305.947 331.199C307.564 332.253 309.232 334.108 310.93 336.857L312.57 335.713C310.793 332.835 308.943 330.716 306.999 329.449L305.947 331.199ZM310.93 336.857L316.099 345.23L317.74 344.085L312.57 335.713L310.93 336.857ZM316.099 345.23C316.949 346.606 317.7 347.72 318.349 348.559L319.871 347.243C319.281 346.48 318.571 345.432 317.74 344.085L316.099 345.23ZM318.353 348.564C319.013 349.407 319.813 350.139 320.743 350.762L321.815 349.026C321.037 348.504 320.391 347.907 319.867 347.239L318.353 348.564ZM320.754 349.043L313.405 354.17L314.456 355.871L321.805 350.745L320.754 349.043ZM314.529 354.198C313.834 353.644 313.261 353.087 312.804 352.529L311.317 353.888C311.876 354.57 312.55 355.22 313.332 355.843L314.529 354.198ZM312.804 352.529C312.344 351.967 311.575 350.825 310.48 349.052L308.84 350.196C309.931 351.963 310.763 353.211 311.317 353.888L312.804 352.529ZM310.48 349.052L305.1 340.339L303.46 341.483L308.84 350.196L310.48 349.052ZM305.1 340.339C303.731 338.122 302.283 336.577 300.703 336.097L300.125 338.069C301.01 338.337 302.139 339.345 303.46 341.483L305.1 340.339ZM300.733 336.107C299.133 335.562 297.382 336.131 295.613 337.365L296.664 339.066C298.219 337.981 299.319 337.795 300.096 338.059L300.733 336.107ZM295.613 337.365L293.12 339.104L294.17 340.806L296.664 339.066L295.613 337.365ZM292.825 340.527L305.434 360.948L307.074 359.804L294.465 339.383L292.825 340.527ZM305.729 359.525L298.511 364.56L299.562 366.262L306.779 361.227L305.729 359.525ZM299.857 364.838L270.436 317.19L268.796 318.334L298.217 365.983L299.857 364.838ZM292.592 332.168C294.166 331.07 295.234 329.721 295.524 328.084L293.61 327.751C293.453 328.632 292.854 329.55 291.541 330.466L292.592 332.168ZM295.518 328.114C295.868 326.427 295.279 324.586 294.107 322.687L292.467 323.831C293.536 325.562 293.801 326.827 293.616 327.72L295.518 328.114ZM294.107 322.687L291.837 319.011L290.197 320.155L292.467 323.831L294.107 322.687ZM291.837 319.011C290.731 317.219 289.498 315.944 288.086 315.498L287.488 317.463C288.253 317.705 289.174 318.498 290.197 320.155L291.837 319.011ZM288.119 315.509C286.696 314.998 285.218 315.399 283.791 316.395L284.842 318.096C285.953 317.322 286.788 317.213 287.454 317.452L288.119 315.509ZM283.791 316.395L280.511 318.683L281.561 320.385L284.842 318.096L283.791 316.395ZM280.216 320.106L288.622 333.72L290.262 332.576L281.856 318.962L280.216 320.106ZM289.967 333.999L292.592 332.168L291.541 330.466L288.917 332.297L289.967 333.999Z" fill="black"/>
<path d="M296.724 297.268L296.029 296.549L295.455 297.177L295.946 297.881L296.724 297.268ZM304.771 288.474L305.325 287.63L304.65 287.127L304.076 287.755L304.771 288.474ZM349.863 321.994L350.558 322.713L351.352 321.845L350.418 321.151L349.863 321.994ZM343.923 328.487L343.353 329.319L344.033 329.845L344.618 329.206L343.923 328.487ZM335.111 321.675L335.68 320.842L334.436 322.413L335.111 321.675ZM335.222 321.79L335.918 322.509L336.593 321.771L335.897 321.052L335.222 321.79ZM328.472 329.168L327.777 328.449L327.193 329.087L327.703 329.794L328.472 329.168ZM335.012 338.225L335.707 338.944L336.291 338.306L335.78 337.599L335.012 338.225ZM329.504 344.246L328.726 344.858L329.405 345.832L330.199 344.964L329.504 344.246ZM329.236 317.095L329.931 317.814L330.709 316.964L329.807 316.264L329.236 317.095ZM307.345 300.092L307.915 299.261L307.235 298.733L306.649 299.373L307.345 300.092ZM307.237 300.21L306.541 299.492L305.953 300.134L306.472 300.842L307.237 300.21ZM323.89 322.938L323.126 323.57L323.81 324.504L324.585 323.657L323.89 322.938ZM297.42 297.987L305.466 289.192L304.076 287.755L296.029 296.549L297.42 297.987ZM304.216 289.317L349.309 322.838L350.418 321.151L305.325 287.63L304.216 289.317ZM349.168 321.276L343.227 327.768L344.618 329.206L350.558 322.713L349.168 321.276ZM344.492 327.654L335.68 320.842L334.542 322.508L343.353 329.319L344.492 327.654ZM334.436 322.413L334.547 322.528L335.897 321.052L335.786 320.937L334.436 322.413ZM334.527 321.071L327.777 328.449L329.167 329.886L335.918 322.509L334.527 321.071ZM327.703 329.794L334.244 338.852L335.78 337.599L329.24 328.541L327.703 329.794ZM334.317 337.507L328.808 343.527L330.199 344.964L335.707 338.944L334.317 337.507ZM330.282 343.633L297.502 296.655L295.946 297.881L328.726 344.858L330.282 343.633ZM329.807 316.264L307.915 299.261L306.774 300.923L328.665 317.926L329.807 316.264ZM306.649 299.373L306.541 299.492L307.932 300.929L308.04 300.811L306.649 299.373ZM306.472 300.842L323.126 323.57L324.654 322.306L308.001 299.578L306.472 300.842ZM324.585 323.657L329.931 317.814L328.541 316.376L323.194 322.219L324.585 323.657Z" fill="black"/>
<path d="M310.624 283.745L309.77 283.224L309.295 284.104L310.148 284.625L310.624 283.745ZM316.595 272.695L316.947 271.752L316.155 271.409L315.741 272.174L316.595 272.695ZM353.466 288.652L353.113 289.596L353.906 289.939L354.319 289.173L353.466 288.652ZM353.542 288.511L354.396 289.032L354.809 288.267L354.131 287.712L353.542 288.511ZM321.995 262.701L321.141 262.18L320.728 262.945L321.406 263.5L321.995 262.701ZM327.966 251.651L328.441 250.771L327.587 250.25L327.112 251.13L327.966 251.651ZM375.763 280.83L376.616 281.351L377.092 280.471L376.238 279.95L375.763 280.83ZM371.808 288.149L371.332 289.029L372.186 289.55L372.661 288.671L371.808 288.149ZM335.618 266.057L336.094 265.177L335.24 264.656L334.765 265.536L335.618 266.057ZM335.542 266.198L334.689 265.677L334.28 266.434L334.945 266.99L335.542 266.198ZM368.689 293.921L369.543 294.442L369.952 293.685L369.287 293.129L368.689 293.921ZM365.191 300.396L364.848 301.344L365.635 301.674L366.044 300.917L365.191 300.396ZM325.959 283.934L326.301 282.986L325.514 282.656L325.105 283.413L325.959 283.934ZM325.883 284.075L325.029 283.554L324.554 284.434L325.407 284.955L325.883 284.075ZM362.072 306.167L362.926 306.688L363.401 305.809L362.547 305.288L362.072 306.167ZM358.421 312.924L357.946 313.804L358.799 314.325L359.275 313.445L358.421 312.924ZM311.477 284.266L317.448 273.216L315.741 272.174L309.77 283.224L311.477 284.266ZM316.242 273.639L353.113 289.596L353.819 287.709L316.947 271.752L316.242 273.639ZM354.319 289.173L354.396 289.032L352.688 287.99L352.612 288.131L354.319 289.173ZM354.131 287.712L322.584 261.902L321.406 263.5L352.953 289.311L354.131 287.712ZM322.848 263.222L328.819 252.172L327.112 251.13L321.141 262.18L322.848 263.222ZM327.49 252.531L375.288 281.709L376.238 279.95L328.441 250.771L327.49 252.531ZM374.909 280.309L370.954 287.628L372.661 288.671L376.616 281.351L374.909 280.309ZM372.283 287.27L336.094 265.177L335.143 266.937L371.332 289.029L372.283 287.27ZM334.765 265.536L334.689 265.677L336.396 266.719L336.472 266.578L334.765 265.536ZM334.945 266.99L368.092 294.713L369.287 293.129L336.14 265.405L334.945 266.99ZM367.836 293.4L364.337 299.875L366.044 300.917L369.543 294.442L367.836 293.4ZM365.533 299.448L326.301 282.986L325.616 284.882L364.848 301.344L365.533 299.448ZM325.105 283.413L325.029 283.554L326.736 284.596L326.812 284.455L325.105 283.413ZM325.407 284.955L361.597 307.047L362.547 305.288L326.358 283.195L325.407 284.955ZM361.219 305.646L357.568 312.403L359.275 313.445L362.926 306.688L361.219 305.646ZM358.897 312.044L311.099 282.865L310.148 284.625L357.946 313.804L358.897 312.044Z" fill="black"/>
<path d="M328.704 247.409L327.761 247.077L327.463 248.031L328.406 248.364L328.704 247.409ZM331.324 239.008L331.621 238.053L330.678 237.721L330.381 238.676L331.324 239.008ZM384.142 257.617L385.085 257.949L385.382 256.994L384.439 256.662L384.142 257.617ZM381.522 266.018L381.224 266.972L382.167 267.305L382.465 266.35L381.522 266.018ZM329.647 247.741L332.267 239.34L330.381 238.676L327.761 247.077L329.647 247.741ZM331.026 239.963L383.844 258.571L384.439 256.662L331.621 238.053L331.026 239.963ZM383.198 257.284L380.579 265.685L382.465 266.35L385.085 257.949L383.198 257.284ZM381.819 265.063L329.002 246.454L328.406 248.364L381.224 266.972L381.819 265.063Z" fill="black"/>
<path d="M386.001 240.853L386.557 241.696L386.566 241.689L386.001 240.853ZM336.292 232.534L335.512 233.144L335.519 233.154L336.292 232.534ZM339.117 213.462L339.673 214.304L339.683 214.297L339.117 213.462ZM355.469 212.792L356.455 212.957L356.602 211.968L355.616 211.803L355.469 212.792ZM354.25 221.022L354.103 222.012L355.09 222.177L355.236 221.188L354.25 221.022ZM370.267 223.703L369.281 223.538L369.134 224.527L370.12 224.692L370.267 223.703ZM371.486 215.473L371.633 214.484L370.646 214.319L370.5 215.308L371.486 215.473ZM388.826 221.781L388.046 222.392L388.053 222.401L388.826 221.781ZM389.983 231.707C389.394 235.683 387.842 238.392 385.435 240.017L386.566 241.689C389.55 239.675 391.31 236.397 391.956 232.037L389.983 231.707ZM385.445 240.011C383.026 241.601 379.8 242.127 375.646 241.431L375.353 243.41C379.825 244.158 383.6 243.639 386.556 241.696L385.445 240.011ZM375.646 241.431L345.978 236.466L345.685 238.444L375.353 243.41L375.646 241.431ZM345.978 236.466C341.824 235.771 338.906 234.217 337.065 231.914L335.519 233.154C337.771 235.969 341.213 237.696 345.685 238.444L345.978 236.466ZM337.072 231.923C335.251 229.59 334.557 226.505 335.146 222.529L333.174 222.199C332.528 226.559 333.255 230.253 335.512 233.144L337.072 231.923ZM335.146 222.529C335.735 218.552 337.283 215.875 339.673 214.304L338.561 212.619C335.576 214.582 333.819 217.84 333.174 222.199L335.146 222.529ZM339.683 214.297C342.109 212.66 345.335 212.11 349.484 212.804L349.777 210.826C345.298 210.076 341.516 210.625 338.551 212.626L339.683 214.297ZM349.484 212.804L355.322 213.782L355.616 211.803L349.777 210.826L349.484 212.804ZM354.483 212.627L353.263 220.857L355.236 221.188L356.455 212.957L354.483 212.627ZM354.396 220.033L348.005 218.964L347.712 220.942L354.103 222.012L354.396 220.033ZM348.005 218.964C346.18 218.658 344.571 218.782 343.326 219.535C342.045 220.31 341.343 221.631 341.099 223.282L343.072 223.612C343.257 222.361 343.732 221.649 344.376 221.259C345.056 220.848 346.118 220.675 347.712 220.942L348.005 218.964ZM341.099 223.282C340.854 224.933 341.141 226.419 342.135 227.574C343.102 228.698 344.597 229.342 346.423 229.647L346.716 227.669C345.122 227.402 344.161 226.891 343.633 226.277C343.132 225.696 342.886 224.863 343.072 223.612L341.099 223.282ZM346.423 229.647L377.273 234.81L377.567 232.832L346.716 227.669L346.423 229.647ZM377.273 234.81C379.075 235.112 380.668 234.984 381.9 234.225C383.165 233.446 383.857 232.125 384.101 230.479L382.128 230.149C381.942 231.405 381.47 232.119 380.837 232.509C380.171 232.919 379.131 233.094 377.567 232.832L377.273 234.81ZM384.101 230.479C384.345 228.833 384.068 227.35 383.09 226.196C382.136 225.071 380.658 224.429 378.856 224.127L378.563 226.105C380.128 226.367 381.067 226.873 381.582 227.481C382.072 228.059 382.314 228.893 382.128 230.149L384.101 230.479ZM378.856 224.127L370.414 222.714L370.12 224.692L378.563 226.105L378.856 224.127ZM371.253 223.868L372.472 215.638L370.5 215.308L369.281 223.538L371.253 223.868ZM371.34 216.462L379.151 217.77L379.444 215.791L371.633 214.484L371.34 216.462ZM379.151 217.77C383.299 218.464 386.211 220.041 388.046 222.392L389.606 221.171C387.363 218.298 383.922 216.541 379.444 215.791L379.151 217.77ZM388.053 222.401C389.873 224.677 390.573 227.73 389.983 231.707L391.956 232.037C392.602 227.678 391.871 224.004 389.598 221.161L388.053 222.401Z" fill="black"/>
<path d="M336.787 201.474L335.788 201.534L335.834 202.383L336.679 202.47L336.787 201.474ZM336.152 189.571L335.939 188.595L335.109 188.782L335.154 189.631L336.152 189.571ZM391.566 177.098L392.564 177.038L392.501 175.864L391.353 176.122L391.566 177.098ZM392.034 185.886L392.229 186.865L393.078 186.691L393.032 185.825L392.034 185.886ZM381.019 188.152L380.824 187.172L381.072 189.15L381.019 188.152ZM381.179 188.142L382.177 188.082L382.124 187.083L381.126 187.144L381.179 188.142ZM381.711 198.128L380.713 198.188L380.759 199.051L381.62 199.125L381.711 198.128ZM392.736 199.067L393.735 199.007L393.689 198.143L392.828 198.07L392.736 199.067ZM393.171 207.215L393.063 208.211L394.232 208.33L394.169 207.155L393.171 207.215ZM373.648 189.637L374.646 189.577L374.585 188.427L373.455 188.657L373.648 189.637ZM346.227 195.216L346.034 194.235L345.182 194.409L345.228 195.276L346.227 195.216ZM346.235 195.375L345.237 195.436L345.283 196.305L346.151 196.373L346.235 195.375ZM374.07 197.546L373.985 198.544L375.129 198.633L375.068 197.486L374.07 197.546ZM337.785 201.414L337.15 189.511L335.154 189.631L335.788 201.534L337.785 201.414ZM336.365 190.547L391.779 178.074L391.353 176.122L335.939 188.595L336.365 190.547ZM390.567 177.158L391.036 185.946L393.032 185.825L392.564 177.038L390.567 177.158ZM391.839 184.906L380.824 187.172L381.214 189.132L392.229 186.865L391.839 184.906ZM381.072 189.15L381.232 189.141L381.126 187.144L380.966 187.153L381.072 189.15ZM380.181 188.202L380.713 198.188L382.709 198.068L382.177 188.082L380.181 188.202ZM381.62 199.125L392.645 200.064L392.828 198.07L381.803 197.131L381.62 199.125ZM391.738 199.127L392.173 207.275L394.169 207.155L393.735 199.007L391.738 199.127ZM393.279 206.22L336.895 200.479L336.679 202.47L393.063 208.211L393.279 206.22ZM373.455 188.657L346.034 194.235L346.419 196.196L373.841 190.618L373.455 188.657ZM345.228 195.276L345.237 195.436L347.233 195.315L347.225 195.156L345.228 195.276ZM346.151 196.373L373.985 198.544L374.154 196.549L346.32 194.378L346.151 196.373ZM375.068 197.486L374.646 189.577L372.65 189.698L373.071 197.606L375.068 197.486Z" fill="black"/>
</svg>
