<svg width="553" height="549" viewBox="0 0 553 549" fill="none" xmlns="http://www.w3.org/2000/svg">
<path d="M80.8696 80.2811H472.138V468.719H80.8696V80.2811Z" fill="black"/>
<path d="M0 264.914L286.156 0L553 284.086L266.844 549L0 264.914Z" fill="black"/>
<path d="M11.92 194.195L357.389 11.8342L541.079 354.805L195.609 537.166L11.92 194.195Z" fill="black"/>
<path d="M41.8727 128.949L423.113 41.5691L511.129 420.052L129.889 507.431L41.8727 128.949Z" fill="black"/>
<path d="M36.897 411.834L138.165 36.6314L516.101 137.167L414.833 512.369L36.897 411.834Z" fill="black"/>
<path d="M41.8727 128.949L423.113 41.5691L511.129 420.052L129.889 507.431L41.8727 128.949Z" fill="black"/>
<path d="M8.04943 340.948L209.568 7.99189L544.95 208.052L343.432 541.009L8.04943 340.948Z" fill="black"/>
<path d="M83.6997 83.8188H469.308V465.182H83.6997V83.8188Z" fill="#FFDC58"/>
<path d="M4 265.089L286.016 5L549 283.911L266.984 544L4 265.089Z" fill="#FFDC58"/>
<path d="M15.7475 195.658L356.219 16.6187L537.251 353.342L196.78 532.381L15.7475 195.658Z" fill="#FFDC58"/>
<path d="M45.2669 131.6L420.992 45.812L507.735 417.401L132.01 503.189L45.2669 131.6Z" fill="#FFDC58"/>
<path d="M40.3632 409.332L140.166 40.9642L512.635 139.668L412.832 508.036L40.3632 409.332Z" fill="#FFDC58"/>
<path d="M45.2669 131.6L420.992 45.812L507.735 417.401L132.01 503.189L45.2669 131.6Z" fill="#FFDC58"/>
<path d="M11.933 339.738L210.536 12.8463L541.066 209.263L342.464 536.155L11.933 339.738Z" fill="#FFDC58"/>
<mask id="path-3-outside-1_818_221" maskUnits="userSpaceOnUse" x="39" y="146" width="460" height="359" fill="black">
<rect fill="white" x="39" y="146" width="460" height="359"/>
<path d="M439.751 309.099C440.42 304.94 442.115 301.961 444.834 300.164C447.546 298.419 451.055 297.924 455.363 298.679L484.991 303.871C489.299 304.626 492.461 306.29 494.478 308.863C496.486 311.489 497.156 314.882 496.487 319.042C495.817 323.201 494.127 326.154 491.416 327.898C488.696 329.696 485.182 330.217 480.875 329.462L475.044 328.44L476.365 320.226L482.748 321.344C486.162 321.943 488.103 320.794 488.568 317.898C489.034 315.002 487.56 313.254 484.145 312.656L453.335 307.257C449.973 306.668 448.059 307.821 447.593 310.717C447.127 313.613 448.575 315.356 451.937 315.945L460.369 317.423L459.047 325.637L451.246 324.27C446.938 323.515 443.781 321.825 441.772 319.199C439.756 316.626 439.082 313.259 439.751 309.099Z"/>
<path d="M484.211 362.381L479.567 373.359L424.415 359.996L427.843 351.892L438.713 354.74L438.565 354.677L442.462 345.468L432.987 339.735L436.166 332.22L484.211 362.381ZM445.973 356.673L473.005 363.819L473.068 363.672L449.059 349.379L445.973 356.673Z"/>
<path d="M463.374 403.635L455.511 414.038C452.778 417.655 449.923 419.664 446.946 420.064C444.013 420.496 440.78 419.422 437.249 416.842L434.472 414.812C429.779 411.382 427.965 407.679 429.032 403.703L428.902 403.608C427.099 404.933 425.144 405.353 423.036 404.869C420.896 404.428 418.492 403.232 415.822 401.281L407.877 395.475C406.585 394.531 405.498 393.803 404.616 393.29C403.776 392.809 402.841 392.455 401.808 392.229L407.211 385.081C408.136 385.361 408.953 385.694 409.663 386.081C410.374 386.468 411.568 387.275 413.248 388.502L421.515 394.544C423.582 396.055 425.282 396.768 426.615 396.686C427.915 396.645 429.176 395.817 430.398 394.2L432.231 391.775L412.854 377.614L418.16 370.593L463.374 403.635ZM436.761 399.048C435.7 400.452 435.278 401.762 435.495 402.978C435.681 404.236 436.635 405.494 438.357 406.753L441.845 409.302C443.481 410.498 444.891 411.065 446.073 411.005C447.223 410.987 448.264 410.361 449.197 409.127L451.609 405.936L438.69 396.495L436.761 399.048Z"/>
<path d="M423.576 448.317L414.295 455.798L370.86 418.91L377.711 413.388L386.172 420.845L386.068 420.723L393.854 414.447L387.988 405.103L394.341 399.982L423.576 448.317ZM391.809 425.853L412.821 444.456L412.945 444.355L397.975 420.883L391.809 425.853Z"/>
<path d="M348.417 429.658C352.224 427.852 355.689 427.536 358.812 428.71C361.887 429.906 364.426 432.448 366.428 436.336L380.204 463.076C382.207 466.964 382.77 470.443 381.893 473.514C380.969 476.607 378.603 479.057 374.796 480.862C370.989 482.668 367.548 482.973 364.473 481.776C361.35 480.603 358.787 478.072 356.785 474.184L354.074 468.921L361.591 465.356L364.558 471.116C366.146 474.198 368.265 475.111 370.915 473.854C373.566 472.597 374.097 470.427 372.509 467.345L358.184 439.538C356.621 436.504 354.514 435.615 351.864 436.872C349.214 438.129 348.67 440.275 350.233 443.309L354.154 450.919L346.636 454.484L343.009 447.444C341.006 443.556 340.467 440.065 341.392 436.972C342.269 433.901 344.61 431.463 348.417 429.658Z"/>
<path d="M312.046 441.697C316.271 440.793 319.798 441.292 322.628 443.194C325.458 445.096 327.41 448.222 328.483 452.571L335.534 481.154C336.607 485.504 336.316 489.11 334.661 491.971C333.007 494.833 330.067 496.716 325.843 497.62C321.618 498.524 318.091 498.025 315.261 496.123C312.43 494.221 310.479 491.095 309.406 486.745L302.354 458.162C301.281 453.813 301.572 450.207 303.227 447.345C304.882 444.483 307.822 442.601 312.046 441.697ZM313.962 449.464C310.99 450.1 309.944 452.204 310.825 455.777L318.145 485.448C319.027 489.02 320.954 490.489 323.926 489.853C326.899 489.217 327.945 487.112 327.063 483.539L319.744 453.869C318.862 450.296 316.935 448.828 313.962 449.464Z"/>
<path d="M285.428 502.293L276.628 502.216L275.94 454.221L261.461 454.093L261.346 446.094L284.625 446.299L285.428 502.293Z"/>
<path d="M230.683 497.9L219.067 495.227L222.159 438.477L230.735 440.451L229.915 451.673L229.949 451.516L239.694 453.759L243.598 443.412L251.55 445.242L230.683 497.9ZM229.337 459.174L227.236 487.092L227.391 487.128L237.055 460.95L229.337 459.174Z"/>
<path d="M182.113 418.804C185.679 421.048 187.759 423.774 188.353 426.983C188.902 430.164 187.99 433.591 185.617 437.265L169.298 462.533C166.925 466.207 164.162 468.469 161.009 469.321C157.811 470.144 154.429 469.433 150.863 467.19C147.297 464.946 145.24 462.233 144.691 459.053C144.097 455.844 144.987 452.402 147.359 448.729L150.571 443.756L157.613 448.187L154.097 453.63C152.217 456.542 152.518 458.779 155 460.341C157.483 461.904 159.665 461.229 161.546 458.317L178.516 432.04C180.368 429.173 180.052 426.958 177.57 425.396C175.087 423.834 172.92 424.486 171.068 427.354L166.424 434.544L159.382 430.113L163.679 423.46C166.051 419.787 168.837 417.538 172.035 416.715C175.188 415.864 178.547 416.56 182.113 418.804Z"/>
<path d="M119.643 443.457L102.568 426.592L108.324 421.037L119.139 431.718L129.789 421.441L121.194 412.953L126.951 407.397L135.545 415.886L147.922 403.942L137.108 393.261L142.865 387.706L159.94 404.571L119.643 443.457Z"/>
<path d="M85.4309 406.13L78.4433 395.121C76.0141 391.293 75.1604 387.958 75.8822 385.117C76.5581 382.302 78.7784 379.782 82.543 377.556L85.5042 375.805C90.5084 372.847 94.7051 372.595 98.0942 375.05L98.2319 374.969C97.6397 372.842 97.9643 370.916 99.2057 369.191C100.419 367.421 102.448 365.695 105.295 364.012L113.765 359.005C115.142 358.19 116.239 357.48 117.054 356.875C117.823 356.296 118.506 355.582 119.104 354.733L123.905 362.298C123.296 363.03 122.676 363.644 122.045 364.142C121.413 364.639 120.202 365.417 118.412 366.475L109.597 371.686C107.393 372.989 106.084 374.259 105.669 375.495C105.225 376.686 105.546 378.137 106.632 379.848L108.261 382.415L128.921 370.201L133.637 377.631L85.4309 406.13ZM99.6602 383.785C98.7171 382.299 97.6267 381.426 96.3889 381.167C95.1226 380.863 93.5712 381.254 91.7348 382.339L88.0161 384.538C86.2715 385.569 85.209 386.631 84.8287 387.723C84.4197 388.77 84.6297 389.946 85.4584 391.252L87.6019 394.629L101.375 386.486L99.6602 383.785Z"/>
<path d="M56.7639 352.579L52.9381 341.29L103.605 316.413L106.429 324.747L96.3004 329.487L96.4535 329.441L99.6631 338.912L110.666 337.249L113.285 344.977L56.7639 352.579ZM89.5139 332.63L64.2815 344.37L64.3328 344.521L92.0559 340.131L89.5139 332.63Z"/>
<path d="M43.7827 305.458L43.1689 292.913L82.9635 286.349L82.9557 286.189L42.6138 281.566L42 269.021L97.9836 267.665L98.3902 275.975L56.0026 277.002L56.0104 277.162L98.7108 282.527L99.0704 289.879L56.9956 297.298L57.0034 297.457L99.391 296.431L99.7663 304.102L43.7827 305.458Z"/>
<path d="M44.9687 241.801L46.5225 233.139L101.51 243.739L99.9565 252.4L44.9687 241.801Z"/>
<path d="M109.324 219.238C107.829 223.177 105.562 225.766 102.524 227.005C99.5056 228.194 95.9531 228.01 91.8667 226.452L63.7605 215.735C59.6741 214.177 56.8978 211.948 55.4314 209.049C53.984 206.1 54.0081 202.656 55.5037 198.717C56.9992 194.778 59.2564 192.214 62.2751 191.024C65.3127 189.785 68.8747 189.945 72.9611 191.503L78.4926 193.612L75.5393 201.39L69.4845 199.082C66.2453 197.847 64.1051 198.6 63.0639 201.342C62.0227 204.085 63.1217 206.073 66.3609 207.309L95.5884 218.453C98.7777 219.669 100.893 218.906 101.934 216.163C102.975 213.421 101.901 211.442 98.712 210.226L90.7137 207.176L93.667 199.398L101.067 202.219C105.154 203.778 107.921 206.031 109.368 208.98C110.834 211.88 110.82 215.299 109.324 219.238Z"/>
<path d="M76.3059 158.814L83.0713 149L134.782 172.646L129.787 179.891L119.638 175.022L119.771 175.111L114.096 183.344L122.295 190.759L117.664 197.477L76.3059 158.814ZM112.866 171.739L87.6399 159.567L87.5491 159.699L108.371 178.26L112.866 171.739Z"/>
</mask>
<path d="M439.751 309.099C440.42 304.94 442.115 301.961 444.834 300.164C447.546 298.419 451.055 297.924 455.363 298.679L484.991 303.871C489.299 304.626 492.461 306.29 494.478 308.863C496.486 311.489 497.156 314.882 496.487 319.042C495.817 323.201 494.127 326.154 491.416 327.898C488.696 329.696 485.182 330.217 480.875 329.462L475.044 328.44L476.365 320.226L482.748 321.344C486.162 321.943 488.103 320.794 488.568 317.898C489.034 315.002 487.56 313.254 484.145 312.656L453.335 307.257C449.973 306.668 448.059 307.821 447.593 310.717C447.127 313.613 448.575 315.356 451.937 315.945L460.369 317.423L459.047 325.637L451.246 324.27C446.938 323.515 443.781 321.825 441.772 319.199C439.756 316.626 439.082 313.259 439.751 309.099Z" stroke="black" stroke-width="4" mask="url(#path-3-outside-1_818_221)"/>
<path d="M484.211 362.381L479.567 373.359L424.415 359.996L427.843 351.892L438.713 354.74L438.565 354.677L442.462 345.468L432.987 339.735L436.166 332.22L484.211 362.381ZM445.973 356.673L473.005 363.819L473.068 363.672L449.059 349.379L445.973 356.673Z" stroke="black" stroke-width="4" mask="url(#path-3-outside-1_818_221)"/>
<path d="M463.374 403.635L455.511 414.038C452.778 417.655 449.923 419.664 446.946 420.064C444.013 420.496 440.78 419.422 437.249 416.842L434.472 414.812C429.779 411.382 427.965 407.679 429.032 403.703L428.902 403.608C427.099 404.933 425.144 405.353 423.036 404.869C420.896 404.428 418.492 403.232 415.822 401.281L407.877 395.475C406.585 394.531 405.498 393.803 404.616 393.29C403.776 392.809 402.841 392.455 401.808 392.229L407.211 385.081C408.136 385.361 408.953 385.694 409.663 386.081C410.374 386.468 411.568 387.275 413.248 388.502L421.515 394.544C423.582 396.055 425.282 396.768 426.615 396.686C427.915 396.645 429.176 395.817 430.398 394.2L432.231 391.775L412.854 377.614L418.16 370.593L463.374 403.635ZM436.761 399.048C435.7 400.452 435.278 401.762 435.495 402.978C435.681 404.236 436.635 405.494 438.357 406.753L441.845 409.302C443.481 410.498 444.891 411.065 446.073 411.005C447.223 410.987 448.264 410.361 449.197 409.127L451.609 405.936L438.69 396.495L436.761 399.048Z" stroke="black" stroke-width="4" mask="url(#path-3-outside-1_818_221)"/>
<path d="M423.576 448.317L414.295 455.798L370.86 418.91L377.711 413.388L386.172 420.845L386.068 420.723L393.854 414.447L387.988 405.103L394.341 399.982L423.576 448.317ZM391.809 425.853L412.821 444.456L412.945 444.355L397.975 420.883L391.809 425.853Z" stroke="black" stroke-width="4" mask="url(#path-3-outside-1_818_221)"/>
<path d="M348.417 429.658C352.224 427.852 355.689 427.536 358.812 428.71C361.887 429.906 364.426 432.448 366.428 436.336L380.204 463.076C382.207 466.964 382.77 470.443 381.893 473.514C380.969 476.607 378.603 479.057 374.796 480.862C370.989 482.668 367.548 482.973 364.473 481.776C361.35 480.603 358.787 478.072 356.785 474.184L354.074 468.921L361.591 465.356L364.558 471.116C366.146 474.198 368.265 475.111 370.915 473.854C373.566 472.597 374.097 470.427 372.509 467.345L358.184 439.538C356.621 436.504 354.514 435.615 351.864 436.872C349.214 438.129 348.67 440.275 350.233 443.309L354.154 450.919L346.636 454.484L343.009 447.444C341.006 443.556 340.467 440.065 341.392 436.972C342.269 433.901 344.61 431.463 348.417 429.658Z" stroke="black" stroke-width="4" mask="url(#path-3-outside-1_818_221)"/>
<path d="M312.046 441.697C316.271 440.793 319.798 441.292 322.628 443.194C325.458 445.096 327.41 448.222 328.483 452.571L335.534 481.154C336.607 485.504 336.316 489.11 334.661 491.971C333.007 494.833 330.067 496.716 325.843 497.62C321.618 498.524 318.091 498.025 315.261 496.123C312.43 494.221 310.479 491.095 309.406 486.745L302.354 458.162C301.281 453.813 301.572 450.207 303.227 447.345C304.882 444.483 307.822 442.601 312.046 441.697ZM313.962 449.464C310.99 450.1 309.944 452.204 310.825 455.777L318.145 485.448C319.027 489.02 320.954 490.489 323.926 489.853C326.899 489.217 327.945 487.112 327.063 483.539L319.744 453.869C318.862 450.296 316.935 448.828 313.962 449.464Z" stroke="black" stroke-width="4" mask="url(#path-3-outside-1_818_221)"/>
<path d="M285.428 502.293L276.628 502.216L275.94 454.221L261.461 454.093L261.346 446.094L284.625 446.299L285.428 502.293Z" stroke="black" stroke-width="4" mask="url(#path-3-outside-1_818_221)"/>
<path d="M230.683 497.9L219.067 495.227L222.159 438.477L230.735 440.451L229.915 451.673L229.949 451.516L239.694 453.759L243.598 443.412L251.55 445.242L230.683 497.9ZM229.337 459.174L227.236 487.092L227.391 487.128L237.055 460.95L229.337 459.174Z" stroke="black" stroke-width="4" mask="url(#path-3-outside-1_818_221)"/>
<path d="M182.113 418.804C185.679 421.048 187.759 423.774 188.353 426.983C188.902 430.164 187.99 433.591 185.617 437.265L169.298 462.533C166.925 466.207 164.162 468.469 161.009 469.321C157.811 470.144 154.429 469.433 150.863 467.19C147.297 464.946 145.24 462.233 144.691 459.053C144.097 455.844 144.987 452.402 147.359 448.729L150.571 443.756L157.613 448.187L154.097 453.63C152.217 456.542 152.518 458.779 155 460.341C157.483 461.904 159.665 461.229 161.546 458.317L178.516 432.04C180.368 429.173 180.052 426.958 177.57 425.396C175.087 423.834 172.92 424.486 171.068 427.354L166.424 434.544L159.382 430.113L163.679 423.46C166.051 419.787 168.837 417.538 172.035 416.715C175.188 415.864 178.547 416.56 182.113 418.804Z" stroke="black" stroke-width="4" mask="url(#path-3-outside-1_818_221)"/>
<path d="M119.643 443.457L102.568 426.592L108.324 421.037L119.139 431.718L129.789 421.441L121.194 412.953L126.951 407.397L135.545 415.886L147.922 403.942L137.108 393.261L142.865 387.706L159.94 404.571L119.643 443.457Z" stroke="black" stroke-width="4" mask="url(#path-3-outside-1_818_221)"/>
<path d="M85.4309 406.13L78.4433 395.121C76.0141 391.293 75.1604 387.958 75.8822 385.117C76.5581 382.302 78.7784 379.782 82.543 377.556L85.5042 375.805C90.5084 372.847 94.7051 372.595 98.0942 375.05L98.2319 374.969C97.6397 372.842 97.9643 370.916 99.2057 369.191C100.419 367.421 102.448 365.695 105.295 364.012L113.765 359.005C115.142 358.19 116.239 357.48 117.054 356.875C117.823 356.296 118.506 355.582 119.104 354.733L123.905 362.298C123.296 363.03 122.676 363.644 122.045 364.142C121.413 364.639 120.202 365.417 118.412 366.475L109.597 371.686C107.393 372.989 106.084 374.259 105.669 375.495C105.225 376.686 105.546 378.137 106.632 379.848L108.261 382.415L128.921 370.201L133.637 377.631L85.4309 406.13ZM99.6602 383.785C98.7171 382.299 97.6267 381.426 96.3889 381.167C95.1226 380.863 93.5712 381.254 91.7348 382.339L88.0161 384.538C86.2715 385.569 85.209 386.631 84.8287 387.723C84.4197 388.77 84.6297 389.946 85.4584 391.252L87.6019 394.629L101.375 386.486L99.6602 383.785Z" stroke="black" stroke-width="4" mask="url(#path-3-outside-1_818_221)"/>
<path d="M56.7639 352.579L52.9381 341.29L103.605 316.413L106.429 324.747L96.3004 329.487L96.4535 329.441L99.6631 338.912L110.666 337.249L113.285 344.977L56.7639 352.579ZM89.5139 332.63L64.2815 344.37L64.3328 344.521L92.0559 340.131L89.5139 332.63Z" stroke="black" stroke-width="4" mask="url(#path-3-outside-1_818_221)"/>
<path d="M43.7827 305.458L43.1689 292.913L82.9635 286.349L82.9557 286.189L42.6138 281.566L42 269.021L97.9836 267.665L98.3902 275.975L56.0026 277.002L56.0104 277.162L98.7108 282.527L99.0704 289.879L56.9956 297.298L57.0034 297.457L99.391 296.431L99.7663 304.102L43.7827 305.458Z" stroke="black" stroke-width="4" mask="url(#path-3-outside-1_818_221)"/>
<path d="M44.9687 241.801L46.5225 233.139L101.51 243.739L99.9565 252.4L44.9687 241.801Z" stroke="black" stroke-width="4" mask="url(#path-3-outside-1_818_221)"/>
<path d="M109.324 219.238C107.829 223.177 105.562 225.766 102.524 227.005C99.5056 228.194 95.9531 228.01 91.8667 226.452L63.7605 215.735C59.6741 214.177 56.8978 211.948 55.4314 209.049C53.984 206.1 54.0081 202.656 55.5037 198.717C56.9992 194.778 59.2564 192.214 62.2751 191.024C65.3127 189.785 68.8747 189.945 72.9611 191.503L78.4926 193.612L75.5393 201.39L69.4845 199.082C66.2453 197.847 64.1051 198.6 63.0639 201.342C62.0227 204.085 63.1217 206.073 66.3609 207.309L95.5884 218.453C98.7777 219.669 100.893 218.906 101.934 216.163C102.975 213.421 101.901 211.442 98.712 210.226L90.7137 207.176L93.667 199.398L101.067 202.219C105.154 203.778 107.921 206.031 109.368 208.98C110.834 211.88 110.82 215.299 109.324 219.238Z" stroke="black" stroke-width="4" mask="url(#path-3-outside-1_818_221)"/>
<path d="M76.3059 158.814L83.0713 149L134.782 172.646L129.787 179.891L119.638 175.022L119.771 175.111L114.096 183.344L122.295 190.759L117.664 197.477L76.3059 158.814ZM112.866 171.739L87.6399 159.567L87.5491 159.699L108.371 178.26L112.866 171.739Z" stroke="black" stroke-width="4" mask="url(#path-3-outside-1_818_221)"/>
</svg>
