<svg width="677" height="648" viewBox="0 0 677 648" fill="none" xmlns="http://www.w3.org/2000/svg">
<path d="M99.0031 94.758H578.006V553.243H99.0031V94.758Z" fill="black"/>
<path d="M0 312.686L350.321 0L677 335.314L326.679 648L0 312.686Z" fill="black"/>
<path d="M14.5928 229.214L437.527 13.9683L662.406 418.786L239.471 634.032L14.5928 229.214Z" fill="black"/>
<path d="M51.2619 152.202L517.988 49.0652L625.74 495.799L159.014 598.935L51.2619 152.202Z" fill="black"/>
<path d="M45.1705 486.099L169.146 43.2371L631.827 161.902L507.852 604.764L45.1705 486.099Z" fill="black"/>
<path d="M51.2619 152.202L517.988 49.0652L625.74 495.799L159.014 598.935L51.2619 152.202Z" fill="black"/>
<path d="M9.85437 402.431L256.559 9.43305L667.145 245.57L420.44 638.568L9.85437 402.431Z" fill="black"/>
<path d="M102.468 98.9336H574.542V549.067H102.468V98.9336Z" fill="#FFDC58"/>
<path d="M4.89697 312.892L350.15 5.90161L672.103 335.108L326.85 642.098L4.89697 312.892Z" fill="#FFDC58"/>
<path d="M19.2787 230.94L436.095 19.6154L657.72 417.06L240.904 628.384L19.2787 230.94Z" fill="#FFDC58"/>
<path d="M55.4173 155.331L515.392 54.0731L621.585 492.67L161.611 593.927L55.4173 155.331Z" fill="#FFDC58"/>
<path d="M49.414 483.146L171.596 48.3511L627.584 164.854L505.402 599.65L49.414 483.146Z" fill="#FFDC58"/>
<path d="M55.4173 155.331L515.392 54.0731L621.585 492.67L161.611 593.927L55.4173 155.331Z" fill="#FFDC58"/>
<path d="M14.6088 401.002L257.745 15.1628L662.391 246.999L419.255 632.838L14.6088 401.002Z" fill="#FFDC58"/>
</svg>
