<svg width="3338" height="100" viewBox="0 0 3338 100" fill="none" xmlns="http://www.w3.org/2000/svg">
<rect x="2" y="2.60791" width="3333.84" height="87" fill="#FFDC58" stroke="black" stroke-width="4"/>
<path d="M1151.92 69.2L1150.44 70.547L1150.45 70.5559L1150.46 70.5646L1151.92 69.2ZM1151.92 18.8L1150.46 17.4354L1150.45 17.4441L1150.44 17.453L1151.92 18.8ZM1171.2 18.8L1169.72 20.147L1169.73 20.1559L1169.74 20.1646L1171.2 18.8ZM1174.56 34.88V36.88H1176.56V34.88H1174.56ZM1166.24 34.88H1164.24V36.88H1166.24V34.88ZM1166.24 51.12V49.12H1164.24V51.12H1166.24ZM1174.56 51.12H1176.56V49.12H1174.56V51.12ZM1171.2 69.2L1169.74 67.8354L1169.73 67.8441L1169.72 67.853L1171.2 69.2ZM1161.6 70.8C1157.77 70.8 1155.14 69.7227 1153.38 67.8354L1150.46 70.5646C1153.17 73.4773 1157 74.8 1161.6 74.8V70.8ZM1153.4 67.853C1151.65 65.9333 1150.64 63.0906 1150.64 59.04H1146.64C1146.64 63.7361 1147.82 67.6667 1150.44 70.547L1153.4 67.853ZM1150.64 59.04V28.96H1146.64V59.04H1150.64ZM1150.64 28.96C1150.64 24.9094 1151.65 22.0667 1153.4 20.147L1150.44 17.453C1147.82 20.3333 1146.64 24.2639 1146.64 28.96H1150.64ZM1153.38 20.1646C1155.14 18.2773 1157.77 17.2 1161.6 17.2V13.2C1157 13.2 1153.17 14.5227 1150.46 17.4354L1153.38 20.1646ZM1161.6 17.2C1165.43 17.2 1168.02 18.2781 1169.72 20.147L1172.68 17.453C1170.01 14.5219 1166.2 13.2 1161.6 13.2V17.2ZM1169.74 20.1646C1171.53 22.0852 1172.56 24.9212 1172.56 28.96H1176.56C1176.56 24.2522 1175.35 20.3148 1172.66 17.4354L1169.74 20.1646ZM1172.56 28.96V34.88H1176.56V28.96H1172.56ZM1174.56 32.88H1166.24V36.88H1174.56V32.88ZM1168.24 34.88V28.4H1164.24V34.88H1168.24ZM1168.24 28.4C1168.24 26.4324 1167.83 24.5838 1166.66 23.2081C1165.45 21.7684 1163.71 21.2 1161.84 21.2V25.2C1162.9 25.2 1163.36 25.4982 1163.61 25.7919C1163.91 26.1495 1164.24 26.901 1164.24 28.4H1168.24ZM1161.84 21.2C1159.97 21.2 1158.23 21.7684 1157.01 23.2081C1155.85 24.5838 1155.44 26.4324 1155.44 28.4H1159.44C1159.44 26.901 1159.76 26.1495 1160.06 25.7919C1160.31 25.4982 1160.78 25.2 1161.84 25.2V21.2ZM1155.44 28.4V59.68H1159.44V28.4H1155.44ZM1155.44 59.68C1155.44 61.627 1155.85 63.4605 1157.02 64.8235C1158.24 66.2445 1159.98 66.8 1161.84 66.8V62.8C1160.77 62.8 1160.3 62.5021 1160.05 62.2165C1159.76 61.8728 1159.44 61.1463 1159.44 59.68H1155.44ZM1161.84 66.8C1163.7 66.8 1165.43 66.2445 1166.65 64.8235C1167.83 63.4605 1168.24 61.627 1168.24 59.68H1164.24C1164.24 61.1463 1163.92 61.8728 1163.62 62.2165C1163.38 62.5021 1162.91 62.8 1161.84 62.8V66.8ZM1168.24 59.68V51.12H1164.24V59.68H1168.24ZM1166.24 53.12H1174.56V49.12H1166.24V53.12ZM1172.56 51.12V59.04H1176.56V51.12H1172.56ZM1172.56 59.04C1172.56 63.0788 1171.53 65.9148 1169.74 67.8354L1172.66 70.5646C1175.35 67.6852 1176.56 63.7478 1176.56 59.04H1172.56ZM1169.72 67.853C1168.02 69.7219 1165.43 70.8 1161.6 70.8V74.8C1166.2 74.8 1170.01 73.4781 1172.68 70.547L1169.72 67.853ZM1182.86 69.2L1181.39 70.5485L1181.39 70.5566L1181.4 70.5646L1182.86 69.2ZM1179.5 16V14H1177.5V16H1179.5ZM1188.3 16H1190.3V14H1188.3V16ZM1189.42 63.52L1187.92 64.837L1187.94 64.8628L1187.96 64.8879L1189.42 63.52ZM1196.06 63.52L1194.6 62.1521L1194.58 62.1772L1194.56 62.203L1196.06 63.52ZM1197.26 16V14H1195.26V16H1197.26ZM1205.74 16H1207.74V14H1205.74V16ZM1202.38 69.2L1203.85 70.5646L1203.85 70.5566L1203.86 70.5485L1202.38 69.2ZM1192.62 70.8C1188.74 70.8 1186.08 69.7178 1184.33 67.8354L1181.4 70.5646C1184.12 73.4823 1187.98 74.8 1192.62 74.8V70.8ZM1184.34 67.8515C1182.54 65.883 1181.5 62.9382 1181.5 58.72H1177.5C1177.5 63.5685 1178.7 67.6103 1181.39 70.5485L1184.34 67.8515ZM1181.5 58.72V16H1177.5V58.72H1181.5ZM1179.5 18H1188.3V14H1179.5V18ZM1186.3 16V59.36H1190.3V16H1186.3ZM1186.3 59.36C1186.3 61.455 1186.69 63.4392 1187.92 64.837L1190.93 62.203C1190.66 61.8941 1190.3 61.105 1190.3 59.36H1186.3ZM1187.96 64.8879C1189.23 66.2346 1190.93 66.8 1192.78 66.8V62.8C1191.76 62.8 1191.22 62.512 1190.88 62.1521L1187.96 64.8879ZM1192.78 66.8C1194.63 66.8 1196.34 66.2361 1197.57 64.837L1194.56 62.203C1194.29 62.5106 1193.81 62.8 1192.78 62.8V66.8ZM1197.52 64.8879C1198.83 63.4881 1199.26 61.4808 1199.26 59.36H1195.26C1195.26 61.0792 1194.89 61.8452 1194.6 62.1521L1197.52 64.8879ZM1199.26 59.36V16H1195.26V59.36H1199.26ZM1197.26 18H1205.74V14H1197.26V18ZM1203.74 16V58.72H1207.74V16H1203.74ZM1203.74 58.72C1203.74 62.9382 1202.7 65.883 1200.91 67.8515L1203.86 70.5485C1206.54 67.6103 1207.74 63.5685 1207.74 58.72H1203.74ZM1200.92 67.8354C1199.16 69.7178 1196.51 70.8 1192.62 70.8V74.8C1197.27 74.8 1201.12 73.4823 1203.85 70.5646L1200.92 67.8354ZM1212.01 16V14H1210.01V16H1212.01ZM1234.97 19.2L1233.54 20.5962L1233.55 20.6053L1233.56 20.6142L1234.97 19.2ZM1232.33 43.36L1231.58 41.5048L1230.33 42.0094V43.36H1232.33ZM1232.33 43.52H1230.33V45.0081L1231.76 45.4357L1232.33 43.52ZM1236.81 47.44L1234.97 48.2338L1234.98 48.2545L1234.99 48.275L1236.81 47.44ZM1238.33 69.12L1236.34 69.3294L1236.34 69.3409L1238.33 69.12ZM1239.13 72V74H1242.21L1240.96 71.1877L1239.13 72ZM1230.17 72L1228.28 72.6656L1228.76 74H1230.17V72ZM1228.09 49.52L1226.52 50.7593L1226.54 50.7841L1226.56 50.8083L1228.09 49.52ZM1220.81 48V46H1218.81V48H1220.81ZM1220.81 72V74H1222.81V72H1220.81ZM1212.01 72H1210.01V74H1212.01V72ZM1227.93 38.64L1226.52 37.2258L1226.49 37.2472L1226.47 37.2693L1227.93 38.64ZM1228.17 25.36L1226.58 26.5749L1226.6 26.6036L1226.63 26.6314L1228.17 25.36ZM1220.81 24V22H1218.81V24H1220.81ZM1220.81 40H1218.81V42H1220.81V40ZM1212.01 18H1225.05V14H1212.01V18ZM1225.05 18C1229.32 18 1231.99 19.0104 1233.54 20.5962L1236.4 17.8038C1233.79 15.123 1229.85 14 1225.05 14V18ZM1233.56 20.6142C1235.11 22.1703 1236.09 24.7811 1236.09 28.88H1240.09C1240.09 24.2323 1238.99 20.3897 1236.38 17.7858L1233.56 20.6142ZM1236.09 28.88V32.32H1240.09V28.88H1236.09ZM1236.09 32.32C1236.09 35.0261 1235.64 37.0517 1234.88 38.5149C1234.14 39.9338 1233.06 40.91 1231.58 41.5048L1233.08 45.2152C1235.44 44.2634 1237.24 42.6262 1238.42 40.3651C1239.58 38.1483 1240.09 35.4272 1240.09 32.32H1236.09ZM1230.33 43.36V43.52H1234.33V43.36H1230.33ZM1231.76 45.4357C1233.35 45.9131 1234.37 46.8242 1234.97 48.2338L1238.65 46.6462C1237.55 44.1092 1235.58 42.4069 1232.91 41.6043L1231.76 45.4357ZM1234.99 48.275C1235.73 49.8857 1236.17 52.2052 1236.17 55.36H1240.17C1240.17 51.9015 1239.7 48.9409 1238.63 46.605L1234.99 48.275ZM1236.17 55.36V65.2H1240.17V55.36H1236.17ZM1236.17 65.2C1236.17 66.8354 1236.22 68.219 1236.34 69.3294L1240.32 68.9106C1240.22 67.9943 1240.17 66.7646 1240.17 65.2H1236.17ZM1236.34 69.3409C1236.47 70.5221 1236.8 71.6809 1237.3 72.8123L1240.96 71.1877C1240.61 70.3991 1240.4 69.6379 1240.32 68.8991L1236.34 69.3409ZM1239.13 70H1230.17V74H1239.13V70ZM1232.06 71.3344C1231.77 70.5339 1231.6 69.8159 1231.51 69.1757L1227.55 69.7043C1227.68 70.6641 1227.93 71.6528 1228.28 72.6656L1232.06 71.3344ZM1231.51 69.1757C1231.43 68.5237 1231.37 67.207 1231.37 65.12H1227.37C1227.37 67.193 1227.42 68.7563 1227.55 69.7043L1231.51 69.1757ZM1231.37 65.12V54.88H1227.37V65.12H1231.37ZM1231.37 54.88C1231.37 52.2277 1230.95 49.8163 1229.62 48.2317L1226.56 50.8083C1226.93 51.2504 1227.37 52.4123 1227.37 54.88H1231.37ZM1229.66 48.2807C1228.31 46.566 1226.14 46 1223.85 46V50C1225.62 50 1226.27 50.4474 1226.52 50.7593L1229.66 48.2807ZM1223.85 46H1220.81V50H1223.85V46ZM1218.81 48V72H1222.81V48H1218.81ZM1220.81 70H1212.01V74H1220.81V70ZM1214.01 72V16H1210.01V72H1214.01ZM1224.01 42C1226.09 42 1228.02 41.4618 1229.39 40.0107L1226.47 37.2693C1226.13 37.6315 1225.45 38 1224.01 38V42ZM1229.34 40.0542C1230.81 38.589 1231.29 36.4106 1231.29 34.08H1227.29C1227.29 36.0161 1226.86 36.8777 1226.52 37.2258L1229.34 40.0542ZM1231.29 34.08V29.76H1227.29V34.08H1231.29ZM1231.29 29.76C1231.29 27.5746 1230.9 25.5336 1229.71 24.0886L1226.63 26.6314C1226.93 26.9997 1227.29 27.8921 1227.29 29.76H1231.29ZM1229.76 24.1451C1228.56 22.5812 1226.74 22 1224.81 22V26C1225.97 26 1226.39 26.3254 1226.58 26.5749L1229.76 24.1451ZM1224.81 22H1220.81V26H1224.81V22ZM1218.81 24V40H1222.81V24H1218.81ZM1220.81 42H1224.01V38H1220.81V42ZM1246.04 69.2L1244.54 70.5307L1244.55 70.5389L1244.56 70.547L1246.04 69.2ZM1242.76 55.52V53.52H1240.76V55.52H1242.76ZM1251.08 55.52H1253.08V53.52H1251.08V55.52ZM1259 63.52L1257.5 62.1967L1257.49 62.203L1259 63.52ZM1258.6 53.04L1256.87 54.054L1256.88 54.0654L1256.89 54.0766L1258.6 53.04ZM1252.68 46.56L1251.35 48.0597L1251.36 48.0686L1252.68 46.56ZM1245.08 37.92L1243.32 38.8852L1243.33 38.8929L1243.33 38.9005L1245.08 37.92ZM1246.28 18.88L1247.74 20.2446L1247.75 20.2366L1247.75 20.2285L1246.28 18.88ZM1265.56 18.88L1264.05 20.1924L1264.06 20.2098L1264.08 20.227L1265.56 18.88ZM1268.84 31.6V33.6H1270.84V31.6H1268.84ZM1260.52 31.6H1258.52V33.6H1260.52V31.6ZM1259.4 24.56L1257.85 25.8314L1257.87 25.8545L1257.89 25.877L1259.4 24.56ZM1253.32 34.24L1251.61 35.2766L1251.62 35.2953L1251.63 35.3137L1253.32 34.24ZM1259.32 40.64L1258 42.1486L1258 42.1492L1259.32 40.64ZM1266.92 49.36L1265.15 50.2974V50.2974L1266.92 49.36ZM1265.56 69.12L1264.1 67.7542L1264.09 67.7628L1264.08 67.7715L1265.56 69.12ZM1255.72 70.8C1251.83 70.8 1249.21 69.7168 1247.51 67.853L1244.56 70.547C1247.23 73.4832 1251.07 74.8 1255.72 74.8V70.8ZM1247.53 67.8693C1245.77 65.9012 1244.76 62.9494 1244.76 58.72H1240.76C1240.76 63.5573 1241.92 67.5922 1244.54 70.5307L1247.53 67.8693ZM1244.76 58.72V55.52H1240.76V58.72H1244.76ZM1242.76 57.52H1251.08V53.52H1242.76V57.52ZM1249.08 55.52V59.36H1253.08V55.52H1249.08ZM1249.08 59.36C1249.08 61.404 1249.5 63.3096 1250.68 64.7248C1251.93 66.2076 1253.71 66.8 1255.64 66.8V62.8C1254.53 62.8 1254.03 62.4857 1253.75 62.1552C1253.42 61.7571 1253.08 60.9426 1253.08 59.36H1249.08ZM1255.64 66.8C1257.51 66.8 1259.26 66.2516 1260.5 64.837L1257.49 62.203C1257.24 62.4951 1256.75 62.8 1255.64 62.8V66.8ZM1260.5 64.8432C1261.77 63.401 1262.2 61.372 1262.2 59.2H1258.2C1258.2 60.9747 1257.82 61.8256 1257.5 62.1968L1260.5 64.8432ZM1262.2 59.2C1262.2 56.5402 1261.59 54.1179 1260.31 52.0034L1256.89 54.0766C1257.74 55.4821 1258.2 57.1665 1258.2 59.2H1262.2ZM1260.32 52.026C1259.09 49.9329 1256.92 47.6041 1253.99 45.0514L1251.36 48.0686C1254.19 50.5293 1255.97 52.5204 1256.87 54.054L1260.32 52.026ZM1254 45.0603C1250.45 41.9256 1248.1 39.2186 1246.82 36.9395L1243.33 38.9005C1244.93 41.7414 1247.65 44.7944 1251.35 48.0597L1254 45.0603ZM1246.83 36.9548C1245.57 34.6633 1244.92 32.0671 1244.92 29.12H1240.92C1240.92 32.6796 1241.71 35.95 1243.32 38.8852L1246.83 36.9548ZM1244.92 29.12C1244.92 25.0202 1245.95 22.161 1247.74 20.2446L1244.81 17.5154C1242.12 20.399 1240.92 24.3665 1240.92 29.12H1244.92ZM1247.75 20.2285C1249.51 18.3009 1252.16 17.2 1256.04 17.2V13.2C1251.38 13.2 1247.52 14.5525 1244.8 17.5315L1247.75 20.2285ZM1256.04 17.2C1259.85 17.2 1262.4 18.2971 1264.05 20.1924L1267.07 17.5676C1264.45 14.5562 1260.65 13.2 1256.04 13.2V17.2ZM1264.08 20.227C1265.82 22.1347 1266.84 25.0471 1266.84 29.28H1270.84C1270.84 24.4462 1269.67 20.4253 1267.03 17.533L1264.08 20.227ZM1266.84 29.28V31.6H1270.84V29.28H1266.84ZM1268.84 29.6H1260.52V33.6H1268.84V29.6ZM1262.52 31.6V28.72H1258.52V31.6H1262.52ZM1262.52 28.72C1262.52 26.625 1262.12 24.6408 1260.9 23.243L1257.89 25.877C1258.16 26.1859 1258.52 26.975 1258.52 28.72H1262.52ZM1260.94 23.2886C1259.73 21.8172 1258.01 21.2 1256.12 21.2V25.2C1257.11 25.2 1257.57 25.4895 1257.85 25.8314L1260.94 23.2886ZM1256.12 21.2C1254.23 21.2 1252.48 21.7948 1251.27 23.271C1250.12 24.6716 1249.72 26.5504 1249.72 28.56H1253.72C1253.72 26.9962 1254.05 26.195 1254.36 25.809C1254.62 25.4985 1255.07 25.2 1256.12 25.2V21.2ZM1249.72 28.56C1249.72 30.9581 1250.35 33.2091 1251.61 35.2766L1255.03 33.2034C1254.15 31.7509 1253.72 30.2152 1253.72 28.56H1249.72ZM1251.63 35.3137C1252.9 37.3183 1255.08 39.6019 1258 42.1486L1260.63 39.1314C1257.8 36.6648 1255.97 34.6817 1255 33.1662L1251.63 35.3137ZM1258 42.1492C1261.6 45.2788 1263.93 47.9965 1265.15 50.2974L1268.68 48.4226C1267.13 45.4969 1264.39 42.4012 1260.63 39.1308L1258 42.1492ZM1265.15 50.2974C1266.36 52.572 1267 55.305 1267 58.56H1271C1271 54.775 1270.25 51.3747 1268.68 48.4226L1265.15 50.2974ZM1267 58.56C1267 62.8276 1265.93 65.789 1264.1 67.7542L1267.02 70.4858C1269.77 67.5443 1271 63.4657 1271 58.56H1267ZM1264.08 67.7715C1262.32 69.6941 1259.65 70.8 1255.72 70.8V74.8C1260.42 74.8 1264.31 73.4526 1267.03 70.4685L1264.08 67.7715ZM1276.84 69.12L1278.3 67.7542L1276.84 69.12ZM1276.84 18.88L1278.3 20.2458L1276.84 18.88ZM1296.68 18.88L1295.22 20.2458L1295.22 20.2458L1296.68 18.88ZM1296.68 69.12L1295.22 67.7542H1295.22L1296.68 69.12ZM1286.76 70.8C1282.83 70.8 1280.12 69.6949 1278.3 67.7542L1275.38 70.4858C1278.15 73.4518 1282.06 74.8 1286.76 74.8V70.8ZM1278.3 67.7542C1276.46 65.781 1275.4 62.8661 1275.4 58.72H1271.4C1271.4 63.5339 1272.64 67.5523 1275.38 70.4858L1278.3 67.7542ZM1275.4 58.72V29.28H1271.4V58.72H1275.4ZM1275.4 29.28C1275.4 25.1339 1276.46 22.219 1278.3 20.2458L1275.38 17.5142C1272.64 20.4477 1271.4 24.4661 1271.4 29.28H1275.4ZM1278.3 20.2458C1280.12 18.3051 1282.83 17.2 1286.76 17.2V13.2C1282.06 13.2 1278.15 14.5482 1275.38 17.5142L1278.3 20.2458ZM1286.76 17.2C1290.7 17.2 1293.41 18.3051 1295.22 20.2458L1298.14 17.5142C1295.37 14.5482 1291.47 13.2 1286.76 13.2V17.2ZM1295.22 20.2458C1297.07 22.219 1298.12 25.1339 1298.12 29.28H1302.12C1302.12 24.4661 1300.88 20.4477 1298.14 17.5142L1295.22 20.2458ZM1298.12 29.28V58.72H1302.12V29.28H1298.12ZM1298.12 58.72C1298.12 62.8661 1297.07 65.781 1295.22 67.7542L1298.14 70.4858C1300.88 67.5523 1302.12 63.5339 1302.12 58.72H1298.12ZM1295.22 67.7542C1293.41 69.6949 1290.7 70.8 1286.76 70.8V74.8C1291.47 74.8 1295.37 73.4518 1298.14 70.4858L1295.22 67.7542ZM1286.76 66.8C1288.7 66.8 1290.48 66.1946 1291.72 64.6938C1292.9 63.2661 1293.32 61.3452 1293.32 59.28H1289.32C1289.32 60.8948 1288.98 61.7339 1288.64 62.1462C1288.36 62.4854 1287.86 62.8 1286.76 62.8V66.8ZM1293.32 59.28V28.72H1289.32V59.28H1293.32ZM1293.32 28.72C1293.32 26.6548 1292.9 24.7339 1291.72 23.3062C1290.48 21.8054 1288.7 21.2 1286.76 21.2V25.2C1287.86 25.2 1288.36 25.5146 1288.64 25.8538C1288.98 26.2661 1289.32 27.1052 1289.32 28.72H1293.32ZM1286.76 21.2C1284.82 21.2 1283.04 21.8054 1281.8 23.3062C1280.62 24.7339 1280.2 26.6548 1280.2 28.72H1284.2C1284.2 27.1052 1284.54 26.2661 1284.88 25.8538C1285.16 25.5146 1285.66 25.2 1286.76 25.2V21.2ZM1280.2 28.72V59.28H1284.2V28.72H1280.2ZM1280.2 59.28C1280.2 61.3452 1280.62 63.2661 1281.8 64.6938C1283.04 66.1946 1284.82 66.8 1286.76 66.8V62.8C1285.66 62.8 1285.16 62.4854 1284.88 62.1462C1284.54 61.7339 1284.2 60.8948 1284.2 59.28H1280.2ZM1307.83 69.2L1306.34 70.5307L1306.35 70.5389L1306.35 70.547L1307.83 69.2ZM1304.55 55.52V53.52H1302.55V55.52H1304.55ZM1312.87 55.52H1314.87V53.52H1312.87V55.52ZM1320.79 63.52L1319.29 62.1967L1319.29 62.203L1320.79 63.52ZM1320.39 53.04L1318.67 54.054L1318.68 54.0654L1318.68 54.0766L1320.39 53.04ZM1314.47 46.56L1313.15 48.0597L1313.16 48.0686L1314.47 46.56ZM1306.87 37.92L1305.12 38.8852L1305.13 38.8929L1305.13 38.9005L1306.87 37.92ZM1308.07 18.88L1309.54 20.2446L1309.54 20.2366L1309.55 20.2285L1308.07 18.88ZM1327.35 18.88L1325.84 20.1924L1325.86 20.2098L1325.87 20.227L1327.35 18.88ZM1330.63 31.6V33.6H1332.63V31.6H1330.63ZM1322.31 31.6H1320.31V33.6H1322.31V31.6ZM1321.19 24.56L1319.65 25.8314L1319.67 25.8545L1319.69 25.877L1321.19 24.56ZM1315.11 34.24L1313.4 35.2766L1313.41 35.2953L1313.43 35.3137L1315.11 34.24ZM1321.11 40.64L1319.8 42.1486L1319.8 42.1492L1321.11 40.64ZM1328.71 49.36L1326.95 50.2974V50.2974L1328.71 49.36ZM1327.35 69.12L1325.89 67.7542L1325.88 67.7628L1325.88 67.7715L1327.35 69.12ZM1317.51 70.8C1313.62 70.8 1311.01 69.7168 1309.31 67.853L1306.35 70.547C1309.03 73.4832 1312.87 74.8 1317.51 74.8V70.8ZM1309.33 67.8693C1307.57 65.9012 1306.55 62.9494 1306.55 58.72H1302.55C1302.55 63.5573 1303.72 67.5922 1306.34 70.5307L1309.33 67.8693ZM1306.55 58.72V55.52H1302.55V58.72H1306.55ZM1304.55 57.52H1312.87V53.52H1304.55V57.52ZM1310.87 55.52V59.36H1314.87V55.52H1310.87ZM1310.87 59.36C1310.87 61.404 1311.29 63.3096 1312.48 64.7248C1313.72 66.2076 1315.5 66.8 1317.43 66.8V62.8C1316.32 62.8 1315.82 62.4857 1315.55 62.1552C1315.21 61.7571 1314.87 60.9426 1314.87 59.36H1310.87ZM1317.43 66.8C1319.31 66.8 1321.06 66.2516 1322.3 64.837L1319.29 62.203C1319.03 62.4951 1318.54 62.8 1317.43 62.8V66.8ZM1322.29 64.8432C1323.57 63.401 1323.99 61.372 1323.99 59.2H1319.99C1319.99 60.9747 1319.62 61.8256 1319.29 62.1968L1322.29 64.8432ZM1323.99 59.2C1323.99 56.5402 1323.38 54.1179 1322.1 52.0034L1318.68 54.0766C1319.53 55.4821 1319.99 57.1665 1319.99 59.2H1323.99ZM1322.12 52.026C1320.89 49.9329 1318.72 47.6041 1315.79 45.0514L1313.16 48.0686C1315.99 50.5293 1317.77 52.5204 1318.67 54.054L1322.12 52.026ZM1315.8 45.0603C1312.24 41.9256 1309.9 39.2186 1308.62 36.9395L1305.13 38.9005C1306.73 41.7414 1309.45 44.7944 1313.15 48.0597L1315.8 45.0603ZM1308.62 36.9548C1307.36 34.6633 1306.71 32.0671 1306.71 29.12H1302.71C1302.71 32.6796 1303.5 35.95 1305.12 38.8852L1308.62 36.9548ZM1306.71 29.12C1306.71 25.0202 1307.75 22.161 1309.54 20.2446L1306.61 17.5154C1303.92 20.399 1302.71 24.3665 1302.71 29.12H1306.71ZM1309.55 20.2285C1311.31 18.3009 1313.96 17.2 1317.83 17.2V13.2C1313.17 13.2 1309.32 14.5525 1306.6 17.5315L1309.55 20.2285ZM1317.83 17.2C1321.65 17.2 1324.2 18.2971 1325.84 20.1924L1328.86 17.5676C1326.24 14.5562 1322.44 13.2 1317.83 13.2V17.2ZM1325.87 20.227C1327.61 22.1347 1328.63 25.0471 1328.63 29.28H1332.63C1332.63 24.4462 1331.47 20.4253 1328.83 17.533L1325.87 20.227ZM1328.63 29.28V31.6H1332.63V29.28H1328.63ZM1330.63 29.6H1322.31V33.6H1330.63V29.6ZM1324.31 31.6V28.72H1320.31V31.6H1324.31ZM1324.31 28.72C1324.31 26.625 1323.92 24.6408 1322.7 23.243L1319.69 25.877C1319.96 26.1859 1320.31 26.975 1320.31 28.72H1324.31ZM1322.74 23.2886C1321.53 21.8172 1319.8 21.2 1317.91 21.2V25.2C1318.9 25.2 1319.37 25.4895 1319.65 25.8314L1322.74 23.2886ZM1317.91 21.2C1316.02 21.2 1314.28 21.7948 1313.07 23.271C1311.92 24.6716 1311.51 26.5504 1311.51 28.56H1315.51C1315.51 26.9962 1315.84 26.195 1316.16 25.809C1316.41 25.4985 1316.87 25.2 1317.91 25.2V21.2ZM1311.51 28.56C1311.51 30.9581 1312.15 33.2091 1313.4 35.2766L1316.82 33.2034C1315.94 31.7509 1315.51 30.2152 1315.51 28.56H1311.51ZM1313.43 35.3137C1314.7 37.3183 1316.87 39.6019 1319.8 42.1486L1322.43 39.1314C1319.59 36.6648 1317.76 34.6817 1316.8 33.1662L1313.43 35.3137ZM1319.8 42.1492C1323.4 45.2788 1325.73 47.9965 1326.95 50.2974L1330.48 48.4226C1328.93 45.4969 1326.19 42.4012 1322.43 39.1308L1319.8 42.1492ZM1326.95 50.2974C1328.15 52.572 1328.79 55.305 1328.79 58.56H1332.79C1332.79 54.775 1332.05 51.3747 1330.48 48.4226L1326.95 50.2974ZM1328.79 58.56C1328.79 62.8276 1327.73 65.789 1325.89 67.7542L1328.81 70.4858C1331.56 67.5443 1332.79 63.4657 1332.79 58.56H1328.79ZM1325.88 67.7715C1324.12 69.6941 1321.45 70.8 1317.51 70.8V74.8C1322.22 74.8 1326.11 73.4526 1328.83 70.4685L1325.88 67.7715Z" fill="black"/>
<circle cx="1370.92" cy="46" r="11" stroke="black" stroke-width="2"/>
<path d="M1423.2 20V18H1421.2V20H1423.2ZM1447.2 20H1449.2V18H1447.2V20ZM1447.2 28V30H1449.2V28H1447.2ZM1432 28V26H1430V28H1432ZM1432 42.8H1430V44.8H1432V42.8ZM1444.08 42.8H1446.08V40.8H1444.08V42.8ZM1444.08 50.8V52.8H1446.08V50.8H1444.08ZM1432 50.8V48.8H1430V50.8H1432ZM1432 68H1430V70H1432V68ZM1447.2 68H1449.2V66H1447.2V68ZM1447.2 76V78H1449.2V76H1447.2ZM1423.2 76H1421.2V78H1423.2V76ZM1423.2 22H1447.2V18H1423.2V22ZM1445.2 20V28H1449.2V20H1445.2ZM1447.2 26H1432V30H1447.2V26ZM1430 28V42.8H1434V28H1430ZM1432 44.8H1444.08V40.8H1432V44.8ZM1442.08 42.8V50.8H1446.08V42.8H1442.08ZM1444.08 48.8H1432V52.8H1444.08V48.8ZM1430 50.8V68H1434V50.8H1430ZM1432 70H1447.2V66H1432V70ZM1445.2 68V76H1449.2V68H1445.2ZM1447.2 74H1423.2V78H1447.2V74ZM1425.2 76V20H1421.2V76H1425.2ZM1449.94 20V18H1447.61L1447.96 20.2994L1449.94 20ZM1458.82 20L1460.8 19.7371L1460.57 18H1458.82V20ZM1464.58 63.44L1462.6 63.7029L1462.83 65.44H1464.58V63.44ZM1464.74 63.44V65.44H1466.49L1466.72 63.7029L1464.74 63.44ZM1470.5 20V18H1468.75L1468.52 19.7371L1470.5 20ZM1478.58 20L1480.56 20.2994L1480.91 18H1478.58V20ZM1470.1 76V78H1471.82L1472.08 76.2994L1470.1 76ZM1458.42 76L1456.44 76.2994L1456.7 78H1458.42V76ZM1449.94 22H1458.82V18H1449.94V22ZM1456.84 20.2629L1462.6 63.7029L1466.56 63.1771L1460.8 19.7371L1456.84 20.2629ZM1464.58 65.44H1464.74V61.44H1464.58V65.44ZM1466.72 63.7029L1472.48 20.2629L1468.52 19.7371L1462.76 63.1771L1466.72 63.7029ZM1470.5 22H1478.58V18H1470.5V22ZM1476.6 19.7006L1468.12 75.7006L1472.08 76.2994L1480.56 20.2994L1476.6 19.7006ZM1470.1 74H1458.42V78H1470.1V74ZM1460.4 75.7006L1451.92 19.7006L1447.96 20.2994L1456.44 76.2994L1460.4 75.7006ZM1482.81 20V18H1480.81V20H1482.81ZM1506.81 20H1508.81V18H1506.81V20ZM1506.81 28V30H1508.81V28H1506.81ZM1491.61 28V26H1489.61V28H1491.61ZM1491.61 42.8H1489.61V44.8H1491.61V42.8ZM1503.69 42.8H1505.69V40.8H1503.69V42.8ZM1503.69 50.8V52.8H1505.69V50.8H1503.69ZM1491.61 50.8V48.8H1489.61V50.8H1491.61ZM1491.61 68H1489.61V70H1491.61V68ZM1506.81 68H1508.81V66H1506.81V68ZM1506.81 76V78H1508.81V76H1506.81ZM1482.81 76H1480.81V78H1482.81V76ZM1482.81 22H1506.81V18H1482.81V22ZM1504.81 20V28H1508.81V20H1504.81ZM1506.81 26H1491.61V30H1506.81V26ZM1489.61 28V42.8H1493.61V28H1489.61ZM1491.61 44.8H1503.69V40.8H1491.61V44.8ZM1501.69 42.8V50.8H1505.69V42.8H1501.69ZM1503.69 48.8H1491.61V52.8H1503.69V48.8ZM1489.61 50.8V68H1493.61V50.8H1489.61ZM1491.61 70H1506.81V66H1491.61V70ZM1504.81 68V76H1508.81V68H1504.81ZM1506.81 74H1482.81V78H1506.81V74ZM1484.81 76V20H1480.81V76H1484.81ZM1511.87 20V18H1509.87V20H1511.87ZM1522.91 20L1524.85 19.5051L1524.46 18H1522.91V20ZM1531.47 53.52L1529.53 54.0149L1529.92 55.52H1531.47V53.52ZM1531.63 53.52V55.52H1533.63V53.52H1531.63ZM1531.63 20V18H1529.63V20H1531.63ZM1539.47 20H1541.47V18H1539.47V20ZM1539.47 76V78H1541.47V76H1539.47ZM1530.43 76L1528.49 76.5002L1528.88 78H1530.43V76ZM1519.87 35.12L1521.81 34.6198L1521.42 33.12H1519.87V35.12ZM1519.71 35.12V33.12H1517.71V35.12H1519.71ZM1519.71 76V78H1521.71V76H1519.71ZM1511.87 76H1509.87V78H1511.87V76ZM1511.87 22H1522.91V18H1511.87V22ZM1520.97 20.4949L1529.53 54.0149L1533.41 53.0251L1524.85 19.5051L1520.97 20.4949ZM1531.47 55.52H1531.63V51.52H1531.47V55.52ZM1533.63 53.52V20H1529.63V53.52H1533.63ZM1531.63 22H1539.47V18H1531.63V22ZM1537.47 20V76H1541.47V20H1537.47ZM1539.47 74H1530.43V78H1539.47V74ZM1532.37 75.4998L1521.81 34.6198L1517.93 35.6202L1528.49 76.5002L1532.37 75.4998ZM1519.87 33.12H1519.71V37.12H1519.87V33.12ZM1517.71 35.12V76H1521.71V35.12H1517.71ZM1519.71 74H1511.87V78H1519.71V74ZM1513.87 76V20H1509.87V76H1513.87ZM1552.89 28H1554.89V26H1552.89V28ZM1543.69 28H1541.69V30H1543.69V28ZM1543.69 20V18H1541.69V20H1543.69ZM1570.89 20H1572.89V18H1570.89V20ZM1570.89 28V30H1572.89V28H1570.89ZM1561.69 28V26H1559.69V28H1561.69ZM1561.69 76V78H1563.69V76H1561.69ZM1552.89 76H1550.89V78H1552.89V76ZM1552.89 26H1543.69V30H1552.89V26ZM1545.69 28V20H1541.69V28H1545.69ZM1543.69 22H1570.89V18H1543.69V22ZM1568.89 20V28H1572.89V20H1568.89ZM1570.89 26H1561.69V30H1570.89V26ZM1559.69 28V76H1563.69V28H1559.69ZM1561.69 74H1552.89V78H1561.69V74ZM1554.89 76V28H1550.89V76H1554.89ZM1577.64 73.12L1579.1 71.7542L1577.64 73.12ZM1577.64 22.88L1579.1 24.2458L1577.64 22.88ZM1597.48 22.88L1596.02 24.2458L1596.02 24.2458L1597.48 22.88ZM1597.48 73.12L1596.02 71.7542H1596.02L1597.48 73.12ZM1587.56 74.8C1583.62 74.8 1580.91 73.6949 1579.1 71.7542L1576.18 74.4858C1578.95 77.4518 1582.85 78.8 1587.56 78.8V74.8ZM1579.1 71.7542C1577.26 69.781 1576.2 66.8661 1576.2 62.72H1572.2C1572.2 67.5339 1573.44 71.5523 1576.18 74.4858L1579.1 71.7542ZM1576.2 62.72V33.28H1572.2V62.72H1576.2ZM1576.2 33.28C1576.2 29.1339 1577.26 26.219 1579.1 24.2458L1576.18 21.5142C1573.44 24.4477 1572.2 28.4661 1572.2 33.28H1576.2ZM1579.1 24.2458C1580.91 22.3051 1583.62 21.2 1587.56 21.2V17.2C1582.85 17.2 1578.95 18.5482 1576.18 21.5142L1579.1 24.2458ZM1587.56 21.2C1591.49 21.2 1594.2 22.3051 1596.02 24.2458L1598.94 21.5142C1596.17 18.5482 1592.26 17.2 1587.56 17.2V21.2ZM1596.02 24.2458C1597.86 26.219 1598.92 29.1339 1598.92 33.28H1602.92C1602.92 28.4661 1601.68 24.4477 1598.94 21.5142L1596.02 24.2458ZM1598.92 33.28V62.72H1602.92V33.28H1598.92ZM1598.92 62.72C1598.92 66.8661 1597.86 69.781 1596.02 71.7542L1598.94 74.4858C1601.68 71.5523 1602.92 67.5339 1602.92 62.72H1598.92ZM1596.02 71.7542C1594.2 73.6949 1591.49 74.8 1587.56 74.8V78.8C1592.26 78.8 1596.17 77.4518 1598.94 74.4858L1596.02 71.7542ZM1587.56 70.8C1589.5 70.8 1591.28 70.1946 1592.52 68.6938C1593.7 67.2661 1594.12 65.3452 1594.12 63.28H1590.12C1590.12 64.8948 1589.78 65.7339 1589.44 66.1462C1589.16 66.4854 1588.66 66.8 1587.56 66.8V70.8ZM1594.12 63.28V32.72H1590.12V63.28H1594.12ZM1594.12 32.72C1594.12 30.6548 1593.7 28.7339 1592.52 27.3062C1591.28 25.8054 1589.5 25.2 1587.56 25.2V29.2C1588.66 29.2 1589.16 29.5146 1589.44 29.8538C1589.78 30.2661 1590.12 31.1052 1590.12 32.72H1594.12ZM1587.56 25.2C1585.62 25.2 1583.84 25.8054 1582.6 27.3062C1581.42 28.7339 1581 30.6548 1581 32.72H1585C1585 31.1052 1585.34 30.2661 1585.68 29.8538C1585.96 29.5146 1586.46 29.2 1587.56 29.2V25.2ZM1581 32.72V63.28H1585V32.72H1581ZM1581 63.28C1581 65.3452 1581.42 67.2661 1582.6 68.6938C1583.84 70.1946 1585.62 70.8 1587.56 70.8V66.8C1586.46 66.8 1585.96 66.4854 1585.68 66.1462C1585.34 65.7339 1585 64.8948 1585 63.28H1581ZM1608.63 73.2L1607.14 74.5307L1607.14 74.5389L1607.15 74.547L1608.63 73.2ZM1605.35 59.52V57.52H1603.35V59.52H1605.35ZM1613.67 59.52H1615.67V57.52H1613.67V59.52ZM1621.59 67.52L1620.09 66.1967L1620.08 66.203L1621.59 67.52ZM1621.19 57.04L1619.47 58.054L1619.47 58.0654L1619.48 58.0766L1621.19 57.04ZM1615.27 50.56L1613.95 52.0597L1613.96 52.0686L1615.27 50.56ZM1607.67 41.92L1605.92 42.8852L1605.92 42.8929L1605.93 42.9005L1607.67 41.92ZM1608.87 22.88L1610.33 24.2446L1610.34 24.2366L1610.35 24.2285L1608.87 22.88ZM1628.15 22.88L1626.64 24.1924L1626.66 24.2098L1626.67 24.227L1628.15 22.88ZM1631.43 35.6V37.6H1633.43V35.6H1631.43ZM1623.11 35.6H1621.11V37.6H1623.11V35.6ZM1621.99 28.56L1620.45 29.8314L1620.46 29.8545L1620.48 29.877L1621.99 28.56ZM1615.91 38.24L1614.2 39.2766L1614.21 39.2953L1614.22 39.3137L1615.91 38.24ZM1621.91 44.64L1620.6 46.1486L1620.6 46.1492L1621.91 44.64ZM1629.51 53.36L1627.74 54.2974V54.2974L1629.51 53.36ZM1628.15 73.12L1626.69 71.7542L1626.68 71.7628L1626.67 71.7715L1628.15 73.12ZM1618.31 74.8C1614.42 74.8 1611.81 73.7168 1610.11 71.853L1607.15 74.547C1609.83 77.4832 1613.67 78.8 1618.31 78.8V74.8ZM1610.12 71.8693C1608.37 69.9012 1607.35 66.9494 1607.35 62.72H1603.35C1603.35 67.5573 1604.52 71.5922 1607.14 74.5307L1610.12 71.8693ZM1607.35 62.72V59.52H1603.35V62.72H1607.35ZM1605.35 61.52H1613.67V57.52H1605.35V61.52ZM1611.67 59.52V63.36H1615.67V59.52H1611.67ZM1611.67 63.36C1611.67 65.404 1612.09 67.3096 1613.28 68.7248C1614.52 70.2076 1616.3 70.8 1618.23 70.8V66.8C1617.12 66.8 1616.62 66.4857 1616.34 66.1552C1616.01 65.7571 1615.67 64.9426 1615.67 63.36H1611.67ZM1618.23 70.8C1620.11 70.8 1621.86 70.2516 1623.1 68.837L1620.08 66.203C1619.83 66.4951 1619.34 66.8 1618.23 66.8V70.8ZM1623.09 68.8432C1624.36 67.401 1624.79 65.372 1624.79 63.2H1620.79C1620.79 64.9747 1620.42 65.8256 1620.09 66.1968L1623.09 68.8432ZM1624.79 63.2C1624.79 60.5402 1624.18 58.1179 1622.9 56.0034L1619.48 58.0766C1620.33 59.4821 1620.79 61.1665 1620.79 63.2H1624.79ZM1622.91 56.026C1621.68 53.9329 1619.52 51.6041 1616.58 49.0514L1613.96 52.0686C1616.78 54.5293 1618.56 56.5204 1619.47 58.054L1622.91 56.026ZM1616.59 49.0603C1613.04 45.9256 1610.69 43.2186 1609.41 40.9395L1605.93 42.9005C1607.52 45.7414 1610.25 48.7944 1613.95 52.0597L1616.59 49.0603ZM1609.42 40.9548C1608.16 38.6633 1607.51 36.0671 1607.51 33.12H1603.51C1603.51 36.6796 1604.3 39.95 1605.92 42.8852L1609.42 40.9548ZM1607.51 33.12C1607.51 29.0202 1608.54 26.161 1610.33 24.2446L1607.41 21.5154C1604.72 24.399 1603.51 28.3665 1603.51 33.12H1607.51ZM1610.35 24.2285C1612.11 22.3009 1614.76 21.2 1618.63 21.2V17.2C1613.97 17.2 1610.11 18.5525 1607.39 21.5315L1610.35 24.2285ZM1618.63 21.2C1622.45 21.2 1624.99 22.2971 1626.64 24.1924L1629.66 21.5676C1627.04 18.5562 1623.24 17.2 1618.63 17.2V21.2ZM1626.67 24.227C1628.41 26.1347 1629.43 29.0471 1629.43 33.28H1633.43C1633.43 28.4462 1632.26 24.4253 1629.63 21.533L1626.67 24.227ZM1629.43 33.28V35.6H1633.43V33.28H1629.43ZM1631.43 33.6H1623.11V37.6H1631.43V33.6ZM1625.11 35.6V32.72H1621.11V35.6H1625.11ZM1625.11 32.72C1625.11 30.625 1624.72 28.6408 1623.49 27.243L1620.48 29.877C1620.75 30.1859 1621.11 30.975 1621.11 32.72H1625.11ZM1623.53 27.2886C1622.32 25.8172 1620.6 25.2 1618.71 25.2V29.2C1619.7 29.2 1620.16 29.4895 1620.45 29.8314L1623.53 27.2886ZM1618.71 25.2C1616.82 25.2 1615.08 25.7948 1613.86 27.271C1612.71 28.6716 1612.31 30.5504 1612.31 32.56H1616.31C1616.31 30.9962 1616.64 30.195 1616.96 29.809C1617.21 29.4985 1617.67 29.2 1618.71 29.2V25.2ZM1612.31 32.56C1612.31 34.9581 1612.95 37.2091 1614.2 39.2766L1617.62 37.2034C1616.74 35.7509 1616.31 34.2152 1616.31 32.56H1612.31ZM1614.22 39.3137C1615.5 41.3183 1617.67 43.6019 1620.6 46.1486L1623.22 43.1314C1620.39 40.6648 1618.56 38.6817 1617.6 37.1662L1614.22 39.3137ZM1620.6 46.1492C1624.2 49.2788 1626.52 51.9965 1627.74 54.2974L1631.28 52.4226C1629.72 49.4969 1626.98 46.4012 1623.22 43.1308L1620.6 46.1492ZM1627.74 54.2974C1628.95 56.572 1629.59 59.305 1629.59 62.56H1633.59C1633.59 58.775 1632.84 55.3747 1631.28 52.4226L1627.74 54.2974ZM1629.59 62.56C1629.59 66.8276 1628.53 69.789 1626.69 71.7542L1629.61 74.4858C1632.36 71.5443 1633.59 67.4657 1633.59 62.56H1629.59ZM1626.67 71.7715C1624.92 73.6941 1622.25 74.8 1618.31 74.8V78.8C1623.01 78.8 1626.9 77.4526 1629.63 74.4685L1626.67 71.7715Z" fill="black"/>
<circle cx="1688.92" cy="46" r="11" stroke="black" stroke-width="2"/>
<path d="M1741.2 20V18H1739.2V20H1741.2ZM1764.48 20H1766.48V18H1764.48V20ZM1764.48 28V30H1766.48V28H1764.48ZM1750 28V26H1748V28H1750ZM1750 43.6H1748V45.6H1750V43.6ZM1761.36 43.6H1763.36V41.6H1761.36V43.6ZM1761.36 51.6V53.6H1763.36V51.6H1761.36ZM1750 51.6V49.6H1748V51.6H1750ZM1750 76V78H1752V76H1750ZM1741.2 76H1739.2V78H1741.2V76ZM1741.2 22H1764.48V18H1741.2V22ZM1762.48 20V28H1766.48V20H1762.48ZM1764.48 26H1750V30H1764.48V26ZM1748 28V43.6H1752V28H1748ZM1750 45.6H1761.36V41.6H1750V45.6ZM1759.36 43.6V51.6H1763.36V43.6H1759.36ZM1761.36 49.6H1750V53.6H1761.36V49.6ZM1748 51.6V76H1752V51.6H1748ZM1750 74H1741.2V78H1750V74ZM1743.2 76V20H1739.2V76H1743.2ZM1768.7 20V18H1766.7V20H1768.7ZM1792.7 20H1794.7V18H1792.7V20ZM1792.7 28V30H1794.7V28H1792.7ZM1777.5 28V26H1775.5V28H1777.5ZM1777.5 42.8H1775.5V44.8H1777.5V42.8ZM1789.58 42.8H1791.58V40.8H1789.58V42.8ZM1789.58 50.8V52.8H1791.58V50.8H1789.58ZM1777.5 50.8V48.8H1775.5V50.8H1777.5ZM1777.5 68H1775.5V70H1777.5V68ZM1792.7 68H1794.7V66H1792.7V68ZM1792.7 76V78H1794.7V76H1792.7ZM1768.7 76H1766.7V78H1768.7V76ZM1768.7 22H1792.7V18H1768.7V22ZM1790.7 20V28H1794.7V20H1790.7ZM1792.7 26H1777.5V30H1792.7V26ZM1775.5 28V42.8H1779.5V28H1775.5ZM1777.5 44.8H1789.58V40.8H1777.5V44.8ZM1787.58 42.8V50.8H1791.58V42.8H1787.58ZM1789.58 48.8H1777.5V52.8H1789.58V48.8ZM1775.5 50.8V68H1779.5V50.8H1775.5ZM1777.5 70H1792.7V66H1777.5V70ZM1790.7 68V76H1794.7V68H1790.7ZM1792.7 74H1768.7V78H1792.7V74ZM1770.7 76V20H1766.7V76H1770.7ZM1797.76 20V18H1795.76V20H1797.76ZM1820.72 23.2L1819.29 24.5962L1819.3 24.6053L1819.31 24.6142L1820.72 23.2ZM1818.08 47.36L1817.33 45.5048L1816.08 46.0094V47.36H1818.08ZM1818.08 47.52H1816.08V49.0081L1817.51 49.4357L1818.08 47.52ZM1822.56 51.44L1820.72 52.2338L1820.73 52.2545L1820.74 52.275L1822.56 51.44ZM1824.08 73.12L1822.09 73.3294L1822.09 73.3409L1824.08 73.12ZM1824.88 76V78H1827.96L1826.71 75.1877L1824.88 76ZM1815.92 76L1814.03 76.6656L1814.51 78H1815.92V76ZM1813.84 53.52L1812.27 54.7593L1812.29 54.7841L1812.31 54.8083L1813.84 53.52ZM1806.56 52V50H1804.56V52H1806.56ZM1806.56 76V78H1808.56V76H1806.56ZM1797.76 76H1795.76V78H1797.76V76ZM1813.68 42.64L1812.27 41.2258L1812.24 41.2472L1812.22 41.2693L1813.68 42.64ZM1813.92 29.36L1812.33 30.5749L1812.35 30.6036L1812.38 30.6314L1813.92 29.36ZM1806.56 28V26H1804.56V28H1806.56ZM1806.56 44H1804.56V46H1806.56V44ZM1797.76 22H1810.8V18H1797.76V22ZM1810.8 22C1815.07 22 1817.74 23.0104 1819.29 24.5962L1822.15 21.8038C1819.54 19.123 1815.6 18 1810.8 18V22ZM1819.31 24.6142C1820.86 26.1703 1821.84 28.7811 1821.84 32.88H1825.84C1825.84 28.2323 1824.74 24.3897 1822.13 21.7858L1819.31 24.6142ZM1821.84 32.88V36.32H1825.84V32.88H1821.84ZM1821.84 36.32C1821.84 39.0261 1821.39 41.0517 1820.63 42.5149C1819.89 43.9338 1818.81 44.91 1817.33 45.5048L1818.83 49.2152C1821.19 48.2634 1822.99 46.6262 1824.17 44.3651C1825.33 42.1483 1825.84 39.4272 1825.84 36.32H1821.84ZM1816.08 47.36V47.52H1820.08V47.36H1816.08ZM1817.51 49.4357C1819.1 49.9131 1820.12 50.8242 1820.72 52.2338L1824.4 50.6462C1823.3 48.1092 1821.33 46.4069 1818.66 45.6043L1817.51 49.4357ZM1820.74 52.275C1821.48 53.8857 1821.92 56.2052 1821.92 59.36H1825.92C1825.92 55.9015 1825.45 52.9409 1824.38 50.605L1820.74 52.275ZM1821.92 59.36V69.2H1825.92V59.36H1821.92ZM1821.92 69.2C1821.92 70.8354 1821.97 72.219 1822.09 73.3294L1826.07 72.9106C1825.97 71.9943 1825.92 70.7646 1825.92 69.2H1821.92ZM1822.09 73.3409C1822.22 74.5221 1822.55 75.6809 1823.05 76.8123L1826.71 75.1877C1826.36 74.3991 1826.15 73.6379 1826.07 72.8991L1822.09 73.3409ZM1824.88 74H1815.92V78H1824.88V74ZM1817.81 75.3344C1817.52 74.5339 1817.35 73.8159 1817.26 73.1757L1813.3 73.7043C1813.43 74.6641 1813.68 75.6528 1814.03 76.6656L1817.81 75.3344ZM1817.26 73.1757C1817.18 72.5237 1817.12 71.207 1817.12 69.12H1813.12C1813.12 71.193 1813.17 72.7563 1813.3 73.7043L1817.26 73.1757ZM1817.12 69.12V58.88H1813.12V69.12H1817.12ZM1817.12 58.88C1817.12 56.2277 1816.7 53.8163 1815.37 52.2317L1812.31 54.8083C1812.68 55.2504 1813.12 56.4123 1813.12 58.88H1817.12ZM1815.41 52.2807C1814.06 50.566 1811.89 50 1809.6 50V54C1811.37 54 1812.02 54.4474 1812.27 54.7593L1815.41 52.2807ZM1809.6 50H1806.56V54H1809.6V50ZM1804.56 52V76H1808.56V52H1804.56ZM1806.56 74H1797.76V78H1806.56V74ZM1799.76 76V20H1795.76V76H1799.76ZM1809.76 46C1811.84 46 1813.77 45.4618 1815.14 44.0107L1812.22 41.2693C1811.88 41.6315 1811.2 42 1809.76 42V46ZM1815.09 44.0542C1816.56 42.589 1817.04 40.4106 1817.04 38.08H1813.04C1813.04 40.0161 1812.61 40.8777 1812.27 41.2258L1815.09 44.0542ZM1817.04 38.08V33.76H1813.04V38.08H1817.04ZM1817.04 33.76C1817.04 31.5746 1816.65 29.5336 1815.46 28.0886L1812.38 30.6314C1812.68 30.9997 1813.04 31.8921 1813.04 33.76H1817.04ZM1815.51 28.1451C1814.31 26.5812 1812.49 26 1810.56 26V30C1811.72 30 1812.14 30.3254 1812.33 30.5749L1815.51 28.1451ZM1810.56 26H1806.56V30H1810.56V26ZM1804.56 28V44H1808.56V28H1804.56ZM1806.56 46H1809.76V42H1806.56V46ZM1830.03 20V18H1828.03V20H1830.03ZM1838.83 20H1840.83V18H1838.83V20ZM1838.83 76V78H1840.83V76H1838.83ZM1830.03 76H1828.03V78H1830.03V76ZM1830.03 22H1838.83V18H1830.03V22ZM1836.83 20V76H1840.83V20H1836.83ZM1838.83 74H1830.03V78H1838.83V74ZM1832.03 76V20H1828.03V76H1832.03ZM1852.22 20V18H1850.52L1850.24 19.6785L1852.22 20ZM1864.14 20L1866.11 19.6785L1865.84 18H1864.14V20ZM1873.26 76V78H1875.61L1875.23 75.6785L1873.26 76ZM1864.46 76L1862.48 76.2848L1862.72 78H1864.46V76ZM1862.86 64.88L1864.84 64.5952L1860.86 64.88H1862.86ZM1862.86 65.04V67.04H1864.86V65.04H1862.86ZM1852.86 65.04V63.04H1851.13L1850.88 64.7511L1852.86 65.04ZM1851.26 76V78H1852.99L1853.24 76.2889L1851.26 76ZM1843.1 76L1841.12 75.6785L1840.74 78H1843.1V76ZM1861.82 57.44V59.44H1864.12L1863.8 57.1596L1861.82 57.44ZM1857.9 29.76L1859.88 29.4796L1859.63 27.76H1857.9V29.76ZM1857.74 29.76V27.76H1856L1855.76 29.4852L1857.74 29.76ZM1853.9 57.44L1851.92 57.1652L1851.6 59.44H1853.9V57.44ZM1852.22 22H1864.14V18H1852.22V22ZM1862.16 20.3215L1871.28 76.3215L1875.23 75.6785L1866.11 19.6785L1862.16 20.3215ZM1873.26 74H1864.46V78H1873.26V74ZM1866.44 75.7152L1864.84 64.5952L1860.88 65.1648L1862.48 76.2848L1866.44 75.7152ZM1860.86 64.88V65.04H1864.86V64.88H1860.86ZM1862.86 63.04H1852.86V67.04H1862.86V63.04ZM1850.88 64.7511L1849.28 75.7111L1853.24 76.2889L1854.84 65.3289L1850.88 64.7511ZM1851.26 74H1843.1V78H1851.26V74ZM1845.07 76.3215L1854.19 20.3215L1850.24 19.6785L1841.12 75.6785L1845.07 76.3215ZM1863.8 57.1596L1859.88 29.4796L1855.92 30.0404L1859.84 57.7204L1863.8 57.1596ZM1857.9 27.76H1857.74V31.76H1857.9V27.76ZM1855.76 29.4852L1851.92 57.1652L1855.88 57.7148L1859.72 30.0348L1855.76 29.4852ZM1853.9 59.44H1861.82V55.44H1853.9V59.44ZM1879.05 73.2L1877.56 74.5307L1877.57 74.5389L1877.57 74.547L1879.05 73.2ZM1875.77 59.52V57.52H1873.77V59.52H1875.77ZM1884.09 59.52H1886.09V57.52H1884.09V59.52ZM1892.01 67.52L1890.51 66.1967L1890.51 66.203L1892.01 67.52ZM1891.61 57.04L1889.89 58.054L1889.89 58.0654L1889.9 58.0766L1891.61 57.04ZM1885.69 50.56L1884.37 52.0597L1884.38 52.0686L1885.69 50.56ZM1878.09 41.92L1876.34 42.8852L1876.34 42.8929L1876.35 42.9005L1878.09 41.92ZM1879.29 22.88L1880.75 24.2446L1880.76 24.2366L1880.77 24.2285L1879.29 22.88ZM1898.57 22.88L1897.06 24.1924L1897.08 24.2098L1897.09 24.227L1898.57 22.88ZM1901.85 35.6V37.6H1903.85V35.6H1901.85ZM1893.53 35.6H1891.53V37.6H1893.53V35.6ZM1892.41 28.56L1890.87 29.8314L1890.89 29.8545L1890.91 29.877L1892.41 28.56ZM1886.33 38.24L1884.62 39.2766L1884.63 39.2953L1884.64 39.3137L1886.33 38.24ZM1892.33 44.64L1891.02 46.1486L1891.02 46.1492L1892.33 44.64ZM1899.93 53.36L1898.17 54.2974V54.2974L1899.93 53.36ZM1898.57 73.12L1897.11 71.7542L1897.1 71.7628L1897.09 71.7715L1898.57 73.12ZM1888.73 74.8C1884.84 74.8 1882.23 73.7168 1880.53 71.853L1877.57 74.547C1880.25 77.4832 1884.09 78.8 1888.73 78.8V74.8ZM1880.54 71.8693C1878.79 69.9012 1877.77 66.9494 1877.77 62.72H1873.77C1873.77 67.5573 1874.94 71.5922 1877.56 74.5307L1880.54 71.8693ZM1877.77 62.72V59.52H1873.77V62.72H1877.77ZM1875.77 61.52H1884.09V57.52H1875.77V61.52ZM1882.09 59.52V63.36H1886.09V59.52H1882.09ZM1882.09 63.36C1882.09 65.404 1882.51 67.3096 1883.7 68.7248C1884.94 70.2076 1886.72 70.8 1888.65 70.8V66.8C1887.54 66.8 1887.04 66.4857 1886.76 66.1552C1886.43 65.7571 1886.09 64.9426 1886.09 63.36H1882.09ZM1888.65 70.8C1890.53 70.8 1892.28 70.2516 1893.52 68.837L1890.51 66.203C1890.25 66.4951 1889.76 66.8 1888.65 66.8V70.8ZM1893.51 68.8432C1894.78 67.401 1895.21 65.372 1895.21 63.2H1891.21C1891.21 64.9747 1890.84 65.8256 1890.51 66.1968L1893.51 68.8432ZM1895.21 63.2C1895.21 60.5402 1894.6 58.1179 1893.32 56.0034L1889.9 58.0766C1890.75 59.4821 1891.21 61.1665 1891.21 63.2H1895.21ZM1893.34 56.026C1892.1 53.9329 1889.94 51.6041 1887 49.0514L1884.38 52.0686C1887.21 54.5293 1888.99 56.5204 1889.89 58.054L1893.34 56.026ZM1887.01 49.0603C1883.46 45.9256 1881.12 43.2186 1879.83 40.9395L1876.35 42.9005C1877.95 45.7414 1880.67 48.7944 1884.37 52.0597L1887.01 49.0603ZM1879.84 40.9548C1878.58 38.6633 1877.93 36.0671 1877.93 33.12H1873.93C1873.93 36.6796 1874.72 39.95 1876.34 42.8852L1879.84 40.9548ZM1877.93 33.12C1877.93 29.0202 1878.97 26.161 1880.75 24.2446L1877.83 21.5154C1875.14 24.399 1873.93 28.3665 1873.93 33.12H1877.93ZM1880.77 24.2285C1882.53 22.3009 1885.18 21.2 1889.05 21.2V17.2C1884.39 17.2 1880.53 18.5525 1877.81 21.5315L1880.77 24.2285ZM1889.05 21.2C1892.87 21.2 1895.41 22.2971 1897.06 24.1924L1900.08 21.5676C1897.46 18.5562 1893.66 17.2 1889.05 17.2V21.2ZM1897.09 24.227C1898.83 26.1347 1899.85 29.0471 1899.85 33.28H1903.85C1903.85 28.4462 1902.69 24.4253 1900.05 21.533L1897.09 24.227ZM1899.85 33.28V35.6H1903.85V33.28H1899.85ZM1901.85 33.6H1893.53V37.6H1901.85V33.6ZM1895.53 35.6V32.72H1891.53V35.6H1895.53ZM1895.53 32.72C1895.53 30.625 1895.14 28.6408 1893.92 27.243L1890.91 29.877C1891.18 30.1859 1891.53 30.975 1891.53 32.72H1895.53ZM1893.96 27.2886C1892.74 25.8172 1891.02 25.2 1889.13 25.2V29.2C1890.12 29.2 1890.59 29.4895 1890.87 29.8314L1893.96 27.2886ZM1889.13 25.2C1887.24 25.2 1885.5 25.7948 1884.29 27.271C1883.14 28.6716 1882.73 30.5504 1882.73 32.56H1886.73C1886.73 30.9962 1887.06 30.195 1887.38 29.809C1887.63 29.4985 1888.09 29.2 1889.13 29.2V25.2ZM1882.73 32.56C1882.73 34.9581 1883.37 37.2091 1884.62 39.2766L1888.04 37.2034C1887.16 35.7509 1886.73 34.2152 1886.73 32.56H1882.73ZM1884.64 39.3137C1885.92 41.3183 1888.09 43.6019 1891.02 46.1486L1893.64 43.1314C1890.81 40.6648 1888.98 38.6817 1888.02 37.1662L1884.64 39.3137ZM1891.02 46.1492C1894.62 49.2788 1896.94 51.9965 1898.17 54.2974L1901.7 52.4226C1900.15 49.4969 1897.4 46.4012 1893.64 43.1308L1891.02 46.1492ZM1898.17 54.2974C1899.37 56.572 1900.01 59.305 1900.01 62.56H1904.01C1904.01 58.775 1903.26 55.3747 1901.7 52.4226L1898.17 54.2974ZM1900.01 62.56C1900.01 66.8276 1898.95 69.789 1897.11 71.7542L1900.03 74.4858C1902.78 71.5443 1904.01 67.4657 1904.01 62.56H1900.01ZM1897.09 71.7715C1895.34 73.6941 1892.67 74.8 1888.73 74.8V78.8C1893.44 78.8 1897.32 77.4526 1900.05 74.4685L1897.09 71.7715Z" fill="black"/>
</svg>
